<svg width="71" height="72" viewBox="0 0 71 72" fill="none" xmlns="http://www.w3.org/2000/svg">
<path d="M38.0257 45.1022C37.6117 45.5843 37.076 45.8609 36.5559 45.8609C36.0548 45.8609 35.5334 45.6005 35.1255 45.1464C34.7079 44.6816 33.9927 44.6434 33.5279 45.061C33.0632 45.4786 33.0249 46.1938 33.4425 46.6586C34.2789 47.5896 35.4137 48.1236 36.5561 48.1236C37.737 48.1236 38.8983 47.5594 39.7427 46.5757C40.1495 46.1016 40.0949 45.3875 39.6209 44.9805C39.1469 44.5736 38.4327 44.6282 38.0259 45.1023L38.0257 45.1022Z" fill="black"/>
<path d="M41.2064 50.8538C40.6446 50.5894 37.7632 49.2705 36.1998 49.2705C34.6364 49.2705 31.7548 50.5894 31.1932 50.8538C30.8739 51.004 30.6429 51.2946 30.5688 51.6395C30.4947 51.9844 30.5857 52.3441 30.8147 52.6124C31.3066 53.1877 33.877 56.0581 36.1998 56.0581C38.5225 56.0581 41.093 53.1879 41.5848 52.6124C41.8139 52.3443 41.9049 51.9844 41.8307 51.6395C41.7565 51.2946 41.5257 51.004 41.2064 50.8538ZM36.1998 53.7955C35.5569 53.7955 34.5231 53.068 33.6381 52.2662C34.6415 51.8725 35.6904 51.533 36.1998 51.533C36.7091 51.533 37.7582 51.8725 38.7615 52.2662C37.8763 53.0681 36.8426 53.7955 36.1998 53.7955Z" fill="black"/>
<path d="M22.7939 49.2049L21.7513 46.5509C21.5812 46.1179 21.1635 45.8332 20.6984 45.8332C20.2333 45.8332 19.8156 46.1179 19.6455 46.5509L18.6029 49.2049C18.1578 50.3381 17.2515 51.2409 16.1168 51.6816L13.5014 52.6975C13.0664 52.8665 12.7797 53.2852 12.7797 53.752C12.7797 54.2187 13.0662 54.6374 13.5014 54.8064L16.1168 55.8224C17.2515 56.2632 18.1578 57.1659 18.6029 58.299L19.6455 60.9531C19.8156 61.3861 20.2333 61.6707 20.6984 61.6707C21.1635 61.6707 21.5812 61.3861 21.7513 60.9531L22.7939 58.299C23.2389 57.1659 24.145 56.2632 25.2798 55.8224L27.8954 54.8064C28.3304 54.6374 28.6171 54.2186 28.6171 53.752C28.6171 53.2853 28.3305 52.8665 27.8954 52.6975L25.28 51.6815C24.1452 51.2407 23.2389 50.3381 22.7939 49.2049ZM20.6984 57.4456C20.0321 55.7707 18.7009 54.4306 17.033 53.752C18.701 53.0734 20.0321 51.7333 20.6984 50.0583C21.3646 51.7334 22.6956 53.0734 24.3638 53.752C22.6956 54.4306 21.3646 55.7707 20.6984 57.4456Z" fill="black"/>
<path d="M4.60321 51.9308C4.77332 52.3638 5.19104 52.6485 5.65612 52.6485C6.12121 52.6485 6.53892 52.3637 6.70903 51.9308L7.40404 50.1614C7.66239 49.5037 8.18828 48.98 8.84695 48.724L10.5906 48.0467C11.0257 47.8777 11.3124 47.4589 11.3124 46.9922C11.3124 46.5256 11.0257 46.1067 10.5906 45.9377L8.84695 45.2604C8.18828 45.0046 7.66239 44.4807 7.40404 43.823L6.70903 42.0536C6.53892 41.6206 6.12121 41.336 5.65612 41.336C5.19104 41.336 4.77332 41.6208 4.60321 42.0536L3.9082 43.823C3.64985 44.4807 3.12396 45.0046 2.46529 45.2606L0.721615 45.9379C0.286649 46.1069 -0.00012207 46.5256 -0.00012207 46.9924C-0.00012207 47.4591 0.286367 47.8778 0.721615 48.0468L2.46529 48.7243C3.12396 48.9801 3.64985 49.504 3.9082 50.1617L4.60321 51.9311V51.9308ZM5.65612 45.3742C6.05489 46.034 6.60849 46.5903 7.26603 46.9922C6.60863 47.3942 6.05503 47.9504 5.65612 48.6102C5.25736 47.9504 4.70375 47.3941 4.04621 46.9922C4.70361 46.5902 5.25722 46.034 5.65612 45.3742Z" fill="black"/>
<path d="M54.8719 52.3733L54.1769 54.1427C53.9185 54.8004 53.3926 55.3243 52.734 55.5802L50.9903 56.2576C50.5553 56.4265 50.2686 56.8454 50.2686 57.312C50.2686 57.7787 50.5552 58.1975 50.9903 58.3665L52.734 59.0438C53.3926 59.2998 53.9185 59.8237 54.1769 60.4814L54.8719 62.2508C55.042 62.6838 55.4597 62.9684 55.9248 62.9684C56.3899 62.9684 56.8076 62.6836 56.9777 62.2508L57.6727 60.4814C57.9311 59.8237 58.457 59.2998 59.1156 59.0438L60.8593 58.3665C61.2943 58.1975 61.581 57.7787 61.581 57.312C61.581 56.8454 61.2944 56.4265 60.8593 56.2576L59.1156 55.5802C58.457 55.3244 57.9311 54.8005 57.6727 54.1428L56.9777 52.3734C56.8076 51.9404 56.3899 51.6558 55.9248 51.6558C55.4597 51.6558 55.042 51.9406 54.8719 52.3734V52.3733ZM57.5347 57.3119C56.8773 57.7139 56.3237 58.2702 55.9248 58.9298C55.526 58.27 54.9724 57.7139 54.3149 57.3119C54.9723 56.9099 55.5259 56.3537 55.9248 55.6939C56.3236 56.3537 56.8772 56.91 57.5347 57.3119Z" fill="black"/>
<path d="M69.8682 44.7844L67.6885 43.9378C66.7917 43.5894 66.0758 42.8762 65.724 41.9808L64.8552 39.769C64.6851 39.3361 64.2675 39.0514 63.8023 39.0514C63.3371 39.0514 62.9195 39.3361 62.7494 39.769L61.8804 41.9808C61.5288 42.8762 60.8127 43.5894 59.9159 43.9378L57.7364 44.7844C57.3013 44.9534 57.0146 45.3723 57.0146 45.8389C57.0146 46.3055 57.3013 46.7244 57.7364 46.8934L59.9159 47.74C60.8127 48.0884 61.5286 48.8016 61.8804 49.697L62.7494 51.9088C62.9195 52.3417 63.3372 52.6264 63.8023 52.6264C64.2674 52.6264 64.6851 52.3416 64.8552 51.9088L65.724 49.697C66.0757 48.8016 66.7917 48.0884 67.6885 47.74L69.8682 46.8934C70.3031 46.7244 70.5899 46.3057 70.5899 45.8389C70.5899 45.3721 70.3034 44.9534 69.8682 44.7844ZM63.8024 48.4515C63.2492 47.3206 62.3326 46.3989 61.2061 45.8389C62.3328 45.2789 63.2492 44.3571 63.8024 43.2263C64.3555 44.3572 65.2721 45.2789 66.3986 45.8389C65.2719 46.3987 64.3555 47.3206 63.8024 48.4515Z" fill="black"/>
<path d="M68.4551 69.8974C64.6831 67.644 50.5574 64.577 47.0103 63.8303L46.1577 57.4726C49.9125 53.9202 53.0179 48.8012 54.1316 43.5245C54.1352 43.5077 54.1384 43.4908 54.1411 43.474C55.5027 42.2561 59.9561 37.8321 59.9561 32.0854C59.9561 29.2818 59.4976 27.116 58.5127 25.2697C57.7465 23.8333 56.6847 22.6201 55.1219 21.4099C55.6318 19.5706 56.1305 15.1734 51.5698 10.1887C50.5403 9.06354 49.2258 8.14836 47.6794 7.46071C46.7863 5.90552 45.0009 3.37789 42.1195 1.70859C38.4907 -0.393695 34.2676 -0.556877 29.5671 1.22413C22.6614 3.84029 20.5272 10.6521 19.9592 13.2084C19.5734 13.5692 19.1994 13.9409 18.8408 14.3257C15.3097 18.1144 13.1975 22.8891 12.5629 28.5172C11.6882 36.2754 15.9528 41.4994 17.8347 43.393L18.7803 44.326C19.0007 44.5435 19.2878 44.6521 19.5748 44.6521C19.8667 44.6521 20.1587 44.5396 20.38 44.3154C20.6885 44.0027 20.7768 43.556 20.6481 43.1657C20.645 43.1376 20.6419 43.1093 20.6365 43.081L20.4012 41.836C20.3192 39.9394 20.432 36.2791 22.0312 32.5288C24.0063 27.8971 27.6214 24.5597 32.7761 22.6094C38.8729 20.3025 44.1041 20.4791 47.4191 21.0334C50.7168 21.5849 52.831 22.6086 53.1846 22.7884C56.041 24.8336 57.6934 27.0264 57.6934 32.0854C57.6934 35.4081 55.8494 38.259 54.3179 40.0545C54.2336 36.7145 53.4178 31.489 49.7391 26.9217C48.3142 25.1524 46.7474 23.6316 45.0822 22.4018C44.5796 22.0306 43.8713 22.1371 43.5002 22.6397C43.129 23.1422 43.2354 23.8505 43.738 24.2217C45.2474 25.3366 46.6736 26.7225 47.9771 28.3409C53.047 34.6354 51.978 42.629 51.9111 43.0878C51.0213 47.2706 48.6909 51.5848 45.5139 54.9288C42.4898 58.1117 39.0358 60.012 36.2746 60.012C33.8816 60.012 30.9461 58.5837 28.2212 56.0931C27.76 55.6717 27.0446 55.7038 26.6229 56.1649C26.429 56.377 26.3521 56.6074 26.3148 56.9131C26.3148 56.9131 26.3048 57.004 26.2981 57.0534L25.3893 63.8303C21.8421 64.5769 7.7165 67.6438 3.94449 69.8974C3.40814 70.2179 3.23308 70.9124 3.55336 71.4488C3.76533 71.8034 4.14048 72 4.52567 72C4.72307 72 4.92302 71.9484 5.10473 71.8398C6.21137 71.1787 9.22035 69.9758 17.2707 67.9999C22.1487 66.8026 26.5866 65.8921 26.6307 65.8829C27.1023 65.7865 27.4612 65.4021 27.5251 64.925L28.3049 59.1093C31.0028 61.1621 33.78 62.2747 36.2744 62.2747C38.814 62.2747 41.5471 61.1225 44.1069 59.2054L44.8739 64.925C44.9378 65.4021 45.2967 65.7865 45.7683 65.8829C50.6566 66.8834 64.0532 69.9035 67.2944 71.8398C67.4761 71.9484 67.6761 72 67.8735 72C68.2585 72 68.6339 71.8033 68.8458 71.4488C69.1662 70.9124 68.991 70.2179 68.4547 69.8974H68.4551ZM53.0725 20.2598C51.9799 19.8173 50.209 19.2154 47.9004 18.82C44.2881 18.2015 38.5931 17.9894 31.9758 20.4931C26.2225 22.6701 22.1765 26.4207 19.9505 31.6411C18.5645 34.8912 18.1849 38.0683 18.1282 40.3009C16.3725 38.0368 14.2131 34.0783 14.8114 28.7706C15.3906 23.6352 17.3031 19.294 20.4962 15.8681C23.2904 12.8702 27.0321 10.6586 31.317 9.47235C32.6178 9.11233 33.9113 8.8257 35.1612 8.62066C35.7777 8.51956 36.1954 7.93767 36.0944 7.32114C35.9932 6.70461 35.411 6.28704 34.7951 6.388C33.4656 6.60605 32.0924 6.91021 30.7137 7.29187C27.9503 8.05687 25.3917 9.21895 23.124 10.7186C24.2264 8.10736 26.3544 4.86067 30.369 3.33971C37.4364 0.662609 41.7928 3.56327 44.1686 6.3699C42.7172 6.08228 41.1445 5.94314 39.4753 5.96293C38.8506 5.97043 38.3501 6.48288 38.3576 7.10762C38.3651 7.73235 38.8793 8.23929 39.5022 8.22529C44.0994 8.17099 47.7914 9.41027 49.9009 11.7159C53.3279 15.4616 53.3631 18.6676 53.0728 20.2599L53.0725 20.2598Z" fill="black"/>
</svg>
