<svg width="64" height="63" viewBox="0 0 64 63" fill="none" xmlns="http://www.w3.org/2000/svg">
<path d="M0.001 62.001C0.001 62.554 0.449 63.001 1.001 63.001C1.554 63.001 2.001 62.553 2.001 62.001L2 52.003C2 49.245 4.244 47.001 7.002 47.001H10V51C10 53.851 14.729 56 21 56C27.271 56 32 53.851 32 51V47.002H35C37.757 47.002 40 49.245 40 52.002V62.001C40 62.554 40.447 63.001 41 63.001C41.553 63.001 42 62.554 42 62.001V52.002C42 50.101 41.235 48.376 40 47.112V29.975H40.992V31.975C40.992 32.528 41.439 32.975 41.992 32.975H55.996C55.997 33.527 56.444 33.973 56.996 33.973C57.549 33.973 57.996 33.526 57.996 32.973V31.975V29.975H61.997L61.998 31.975C61.998 32.528 62.445 32.975 62.998 32.975C63.551 32.975 63.998 32.528 63.998 31.975V25.977C63.998 25.424 63.551 24.977 62.998 24.977C62.445 24.977 61.998 25.424 61.998 25.977V27.975H57.996V25.977V24.975C57.996 24.422 57.549 23.975 56.996 23.975C56.443 23.975 55.996 24.422 55.996 24.975V24.977H41.992C41.439 24.977 40.992 25.424 40.992 25.977V27.975H40V19C40 14.718 38.559 10.774 36.159 7.594C36.157 7.589 36.157 7.583 36.155 7.578C36.093 7.444 36.003 7.335 35.898 7.245C32.416 2.841 27.038 0 21 0C10.523 0 2 8.523 2 19V47.112C0.765 48.375 0 50.1 0 52.003L0.001 62.001ZM55.996 30.975H50.995V29.975H55.996V30.975ZM55.996 27.975H50.995V26.977H55.996V27.975ZM42.992 26.977H48.995V30.975H42.992V26.977ZM4 23.638L5 23.172V27.001C5 33.311 8.681 38.764 14 41.366V45.002L7.002 45.001C5.927 45.001 4.911 45.252 4 45.687V23.638ZM22.948 14.824L35 21.831V27.001C35 27.33 34.973 27.651 34.95 27.975H28.987C28.434 27.975 27.987 28.422 27.987 28.975C27.987 29.528 28.434 29.975 28.987 29.975H34.675C33.307 36.27 27.698 41.001 21 41.001C13.28 41.001 7 34.721 7 27.001V22.242L22.948 14.824ZM30 51C30 52.047 26.909 54 21 54C15.091 54 12 52.047 12 51V47.002H15C15.553 47.002 16 46.555 16 46.002V42.189C17.575 42.71 19.253 43.001 21 43.001C22.747 43.001 24.425 42.71 26 42.189V46.001C26 46.554 26.447 47.001 27 47.001H30V51ZM38 45.688C37.089 45.253 36.074 45.002 35 45.002L28 45.001V41.366C32.462 39.182 35.764 34.996 36.712 29.974H38V45.688ZM36.95 27.975C36.971 27.651 37 27.33 37 27.001V22.994L38 23.575V27.974L36.95 27.975ZM38 21.262L25.159 13.796L34.911 9.26C36.851 12.022 38 15.376 38 19V21.262ZM21 2C26.012 2 30.509 4.192 33.623 7.653L5.611 20.683C5.61 20.684 5.61 20.684 5.609 20.684L4 21.433V19C4 9.626 11.626 2 21 2Z" fill="black"/>
</svg>
