<svg width="76" height="57" viewBox="0 0 76 57" fill="none" xmlns="http://www.w3.org/2000/svg">
<path d="M0.508974 22.5634C0.227766 22.5634 0 22.3357 0 22.0545C0 21.7733 0.227766 21.5455 0.508974 21.5455H32.5056C32.8046 21.5455 33.0719 21.6015 33.3034 21.702C33.591 21.828 33.8175 22.0214 33.9727 22.267C34.128 22.5113 34.2094 22.795 34.2094 23.1017C34.2094 23.3651 34.1483 23.6488 34.0224 23.9389C33.264 25.6758 32.4522 27.4178 31.6544 29.1254C28.2799 36.3528 25.1853 42.9809 27.0036 48.0465C28.1615 51.2721 30.6491 53.4085 33.5681 54.457C34.9742 54.9622 36.4845 55.2141 38 55.2141C39.5155 55.2141 41.0259 54.9622 42.4319 54.457C45.3509 53.4085 47.8372 51.2721 48.9964 48.0465C50.816 42.9809 47.7201 36.3528 44.3456 29.1254C43.5478 27.4165 42.7347 25.6758 41.9776 23.9389C41.8517 23.6488 41.7906 23.3651 41.7906 23.1017C41.7906 22.795 41.872 22.51 42.0273 22.267C42.1838 22.0214 42.409 21.828 42.6966 21.702C42.9281 21.6015 43.1966 21.5455 43.4944 21.5455H75.491C75.7722 21.5455 76 21.7733 76 22.0545C76 22.3357 75.7722 22.5634 75.491 22.5634H43.4944C43.3353 22.5634 43.2043 22.5876 43.1012 22.6334C43.0019 22.6767 42.9281 22.7378 42.8811 22.8128C42.8327 22.8892 42.8073 22.9872 42.8073 23.103C42.8073 23.234 42.8391 23.3803 42.9065 23.5343C43.6751 25.2979 44.4767 27.0131 45.2631 28.6966C48.7304 36.1212 51.909 42.93 49.9494 48.3888C48.6783 51.9262 45.9604 54.2674 42.7729 55.4114C41.2485 55.9585 39.6224 56.2321 38 56.2321C36.3776 56.2321 34.7502 55.9585 33.2271 55.4114C30.0396 54.2662 27.3217 51.9262 26.0506 48.3888C24.0897 42.93 27.2696 36.1212 30.7369 28.6966C31.5233 27.0131 32.3249 25.2966 33.0935 23.5343C33.1609 23.3791 33.1927 23.234 33.1927 23.103C33.1927 22.9872 33.1673 22.8879 33.1189 22.8128C33.0719 22.7378 32.9968 22.6767 32.8988 22.6334C32.7957 22.5889 32.6647 22.5634 32.5056 22.5634H0.508974ZM0.508974 26.4087C0.227766 26.4087 0 26.181 0 25.8998C0 25.6186 0.227766 25.3908 0.508974 25.3908H13.1952C13.4764 25.3908 13.7041 25.6186 13.7041 25.8998C13.7041 26.181 13.4764 26.4087 13.1952 26.4087H0.508974ZM64.4221 26.4087C64.1409 26.4087 63.9131 26.181 63.9131 25.8998C63.9131 25.6186 64.1409 25.3908 64.4221 25.3908H75.491C75.7722 25.3908 76 25.6186 76 25.8998C76 26.181 75.7722 26.4087 75.491 26.4087H64.4221ZM45.4628 39.0593C45.3865 38.6916 44.9539 38.5312 44.6548 38.7577C44.4996 38.8773 44.4258 39.0733 44.4652 39.2654C44.5327 39.5912 44.5938 39.9182 44.6472 40.2465C44.6828 40.4615 44.847 40.6257 45.0607 40.6651C45.4081 40.7236 45.7071 40.4284 45.6512 40.0811C45.5952 39.7388 45.5315 39.399 45.4616 39.0606L45.4628 39.0593ZM30.9024 48.9716C30.667 48.7133 30.2534 48.7603 30.0804 49.0644C29.9735 49.2566 30.0002 49.4907 30.1465 49.6536L30.2012 49.7147L30.2509 49.7681L30.3005 49.8215L30.3501 49.8737L30.401 49.9259L30.4519 49.9781L30.5028 50.0289L30.555 50.0798L30.6072 50.1307L30.6593 50.1804L30.7115 50.23L30.7649 50.2796L30.8184 50.328L30.8718 50.3763L30.9087 50.4094C31.181 50.6499 31.6086 50.5367 31.7269 50.1931C31.7931 49.9971 31.7371 49.7846 31.5818 49.6472L31.5513 49.6192L31.5029 49.576L31.4559 49.5327L31.4088 49.4882L31.3617 49.4436L31.3146 49.3991L31.2675 49.3533L31.2217 49.3075L31.1759 49.2617L31.1301 49.2146L31.0843 49.1675L31.0398 49.1204L30.9952 49.0734L30.9507 49.025L30.9011 48.9703L30.9024 48.9716ZM34.016 51.178C33.6648 51.0329 33.2869 51.3052 33.3124 51.6831C33.3263 51.8753 33.446 52.0419 33.6241 52.117L33.6954 52.1463L33.7602 52.173L33.8251 52.1985L33.8913 52.2239L33.9575 52.2493L34.0236 52.2735L34.0898 52.2977L34.156 52.3206L34.2221 52.3435L34.2883 52.3664L34.3545 52.388L34.4206 52.4097L34.4881 52.4313L34.5555 52.4517L34.6395 52.4771C34.9996 52.5802 35.3432 52.2723 35.2821 51.902C35.2477 51.7086 35.1103 51.5533 34.9207 51.4986L34.8507 51.4783L34.7909 51.4604L34.7311 51.4414L34.6713 51.4223L34.6115 51.4032L34.5517 51.3828L34.4919 51.3625L34.4321 51.3408L34.3736 51.3192L34.315 51.2976L34.2565 51.2747L34.198 51.2518L34.1394 51.2289L34.0809 51.2047L34.0173 51.178H34.016ZM37.7633 51.8256C37.4045 51.8511 37.1856 52.2252 37.3371 52.5509C37.4274 52.7405 37.6208 52.8538 37.8308 52.841L37.8613 52.8398L37.9313 52.8347L38.0013 52.8296L38.0713 52.8232L38.1412 52.8169L38.2112 52.8092L38.2799 52.8016L38.3486 52.794L38.4174 52.785L38.4861 52.7761L38.5548 52.766L38.6235 52.7558L38.6922 52.7443L38.7609 52.7329L38.8296 52.7214L38.9047 52.7074C39.1159 52.6654 39.275 52.5 39.3093 52.2875C39.3628 51.9376 39.0561 51.6411 38.7087 51.7086H38.7113L38.6502 51.72L38.5891 51.7302L38.5281 51.7404L38.467 51.7506L38.4059 51.7595L38.3448 51.7684L38.2838 51.776L38.2227 51.7836L38.1616 51.7913L38.1005 51.7976L38.0394 51.804L37.9784 51.8104L37.9173 51.8154L37.8562 51.8205L37.7951 51.8244L37.7646 51.8256H37.7633ZM41.3503 50.6614C41.0462 50.8586 41.0398 51.3014 41.3389 51.5075C41.5094 51.6246 41.7295 51.6271 41.9038 51.5152L41.9229 51.5024L41.984 51.4617L42.0451 51.421L42.1061 51.3803L42.1672 51.3383L42.227 51.2963L42.2868 51.253L42.3466 51.2098L42.4064 51.1652L42.4662 51.1207L42.5248 51.0749L42.5833 51.0291L42.6418 50.982L42.7004 50.9349L42.7589 50.8866L42.7767 50.8713C43.0401 50.6461 43.0083 50.2338 42.7131 50.0506C42.5235 49.9348 42.2856 49.9539 42.1163 50.0964L42.054 50.1473L42.0031 50.1893L41.9522 50.23L41.9 50.2707L41.8478 50.3114L41.7957 50.3509L41.7435 50.3903L41.6913 50.4285L41.6379 50.4667L41.5844 50.5036L41.531 50.5405L41.4776 50.5774L41.4241 50.613L41.3707 50.6486L41.3516 50.6614H41.3503ZM43.9105 47.8963C43.7514 48.2043 43.9359 48.5746 44.2769 48.6344C44.4958 48.67 44.7096 48.5644 44.8126 48.3684C44.9806 48.049 45.1256 47.7182 45.2516 47.3797C45.3801 47.0273 45.1002 46.6621 44.7261 46.6964C44.5301 46.7155 44.3647 46.8428 44.296 47.0273C44.1853 47.325 44.0568 47.6164 43.9092 47.8976L43.9105 47.8963ZM44.8762 44.1859C44.8546 44.5193 45.1524 44.7827 45.4806 44.7204C45.7084 44.6758 45.8764 44.4862 45.8916 44.2546C45.9158 43.9047 45.926 43.5523 45.926 43.2011C45.9235 42.8537 45.5863 42.6107 45.2554 42.7201C45.0467 42.7913 44.9081 42.9835 44.9081 43.2049C44.9093 43.5319 44.8991 43.8602 44.8762 44.1859ZM37.0966 25.3513C36.8943 25.0498 36.4527 25.0498 36.2504 25.3513C36.1359 25.5244 36.1359 25.7433 36.2504 25.9163C36.4336 26.1924 36.6105 26.4724 36.781 26.7574C36.9591 27.0513 37.3638 27.0882 37.5954 26.835C37.7455 26.667 37.7684 26.4253 37.6526 26.2319C37.4732 25.9341 37.2887 25.6415 37.0966 25.3513ZM39.9888 34.0879C40.069 34.3449 40.3324 34.4951 40.5932 34.4327C40.8795 34.364 41.0475 34.0688 40.961 33.7876C40.8604 33.4593 40.7536 33.1297 40.6403 32.804C40.5271 32.4783 40.1339 32.3561 39.8552 32.561C39.6771 32.6946 39.6058 32.9236 39.6771 33.1348C39.7852 33.4504 39.8896 33.7685 39.9875 34.0879H39.9888ZM38.5904 30.3253C38.7329 30.651 39.1528 30.735 39.4099 30.4894C39.5638 30.3393 39.6084 30.1179 39.5231 29.9207C39.387 29.6051 39.2457 29.2908 39.0994 28.9791C38.9467 28.6546 38.5192 28.5846 38.271 28.8429C38.126 28.9969 38.0891 29.2183 38.1781 29.4104C38.3194 29.7133 38.4568 30.0186 38.5904 30.3253ZM12.7689 3.28096C12.4508 3.12954 12.083 3.3344 12.0423 3.68432C12.0194 3.90063 12.1327 4.10295 12.3286 4.19838C12.6315 4.34344 12.9318 4.49232 13.2308 4.64501C13.5642 4.8117 13.9561 4.58139 13.9701 4.20856C13.9764 4.00879 13.8695 3.8281 13.6914 3.73776C13.386 3.58253 13.0781 3.43111 12.7689 3.28223V3.28096ZM31.0627 19.4689C31.2866 19.7386 31.7053 19.7106 31.8898 19.4129C32.003 19.2258 31.9877 18.993 31.8491 18.8238L31.7523 18.7067C31.5144 18.4204 31.0614 18.4764 30.8998 18.8123C30.8158 18.993 30.84 19.2004 30.9673 19.3556L31.0614 19.4701L31.0627 19.4689ZM28.9899 17.0576C29.2444 17.3375 29.7012 17.2548 29.8411 16.9036C29.9124 16.7217 29.8755 16.5206 29.7457 16.3756C29.5167 16.1211 29.2864 15.8692 29.0535 15.6185C28.8003 15.3487 28.3562 15.4264 28.2112 15.7674C28.1348 15.9531 28.1704 16.1631 28.3079 16.3107C28.5369 16.5575 28.7647 16.8069 28.9899 17.0563V17.0576ZM26.1956 14.1399C26.4705 14.4071 26.9285 14.2888 27.0392 13.9223C27.0927 13.7391 27.0431 13.547 26.9082 13.4134C26.6639 13.1741 26.4183 12.9362 26.1702 12.7008C25.8953 12.4412 25.4462 12.5596 25.3329 12.9209C25.2769 13.108 25.3278 13.3052 25.4691 13.4401C25.7134 13.6717 25.9551 13.9058 26.1956 14.1412V14.1399ZM23.2219 11.4093C23.5006 11.6459 23.9256 11.5238 24.0376 11.1764C24.0986 10.9792 24.0388 10.7705 23.8836 10.6356C23.624 10.413 23.3619 10.1928 23.0985 9.97397C22.8122 9.73984 22.3821 9.87599 22.2829 10.2323C22.2307 10.427 22.2956 10.6305 22.4496 10.7591C22.7091 10.9741 22.9662 11.1904 23.2219 11.4093ZM20.0676 8.89367C20.364 9.10998 20.784 8.95475 20.8667 8.59719C20.9112 8.39869 20.8361 8.1951 20.672 8.07422C20.3959 7.87063 20.1185 7.66959 19.8398 7.47109C19.5853 7.29295 19.2367 7.37693 19.0929 7.65304C18.9771 7.87954 19.0433 8.15438 19.2507 8.30199C19.5242 8.49667 19.7965 8.6939 20.0676 8.89367ZM16.7351 6.62619C16.9476 6.75725 17.2199 6.7178 17.3866 6.53076C17.594 6.29281 17.5405 5.9289 17.2733 5.76221C16.9819 5.58025 16.6893 5.40211 16.3941 5.22778C16.0709 5.03819 15.6611 5.24687 15.6268 5.62097C15.6102 5.81692 15.7057 6.00142 15.8749 6.10322C16.1637 6.275 16.45 6.44932 16.7351 6.62746V6.62619ZM12.1823 1.21198C11.9138 1.13182 11.7598 0.849334 11.84 0.579578C11.9202 0.311094 12.2027 0.15713 12.4724 0.237293C19.5357 2.34954 26.6639 7.69758 32.4624 14.1539C38.7202 21.1218 43.4435 29.4028 44.8775 36.3185C44.9335 36.5933 44.7566 36.8605 44.4818 36.9165C44.2069 36.9725 43.9397 36.7956 43.8837 36.5208C42.4866 29.7807 37.8524 21.6766 31.7065 14.8334C26.0213 8.50176 19.056 3.26696 12.1823 1.21071V1.21198ZM35.889 41.3548C35.6702 41.1435 35.3648 41.0125 35.025 41.0125C34.6853 41.0125 34.3799 41.1435 34.1611 41.3548C33.9473 41.5609 33.815 41.8459 33.815 42.1602C33.815 42.4745 33.9473 42.7595 34.1611 42.9657C34.3799 43.1769 34.6853 43.3079 35.025 43.3079C35.3648 43.3079 35.6702 43.1769 35.889 42.9657C36.1028 42.7595 36.2351 42.4745 36.2351 42.1602C36.2351 41.8459 36.1028 41.5609 35.889 41.3548ZM39.7 41.3548C39.4811 41.1435 39.1757 41.0125 38.836 41.0125C38.4963 41.0125 38.1909 41.1435 37.972 41.3548C37.7582 41.5609 37.6259 41.8459 37.6259 42.1602C37.6259 42.4745 37.7582 42.7595 37.972 42.9657C38.1909 43.1769 38.4963 43.3079 38.836 43.3079C39.1757 43.3079 39.4811 43.1769 39.7 42.9657C39.9137 42.7595 40.0461 42.4745 40.0461 42.1602C40.0461 41.8459 39.9137 41.5609 39.7 41.3548ZM36.8701 36.251C38.6909 36.251 40.34 36.989 41.5336 38.1826C42.7271 39.3761 43.4651 41.0252 43.4651 42.8461C43.4651 44.6669 42.7271 46.316 41.5336 47.5095C40.34 48.7031 38.6909 49.4411 36.8701 49.4411C35.0492 49.4411 33.4001 48.7031 32.2066 47.5095C31.0131 46.316 30.275 44.6669 30.275 42.8461C30.275 41.0252 31.0131 39.3761 32.2066 38.1826C33.4001 36.989 35.0492 36.251 36.8701 36.251Z" fill="black"/>
</svg>
