<svg width="72" height="71" viewBox="0 0 72 71" fill="none" xmlns="http://www.w3.org/2000/svg">
<path d="M10.3247 71C10.1936 71 10.0604 70.9767 9.93061 70.9273C9.35749 70.7095 9.06941 70.0683 9.28728 69.4952C10.4935 66.321 12.6635 61.0141 13.1627 59.7964C13.0237 58.2699 12.4286 51.0886 13.2196 47.9807C14.1178 44.4513 21.954 35.6573 23.5672 34.779C24.414 34.3181 25.5053 34.4002 26.4863 34.9987C27.3613 35.5324 29.3845 37.2729 29.2767 41.8946C29.1847 45.8283 28.4277 49.119 27.0267 51.6757C26.1029 53.3616 25.6317 55.3361 25.2158 57.0782C24.7814 58.8982 24.4064 60.47 23.5968 61.5148C22.6444 62.7443 21.8577 63.5574 21.4273 63.973L20.9896 69.9701C20.9451 70.5815 20.4141 71.0393 19.8015 70.9964C19.1901 70.9517 18.7305 70.4198 18.7751 69.8083L19.2446 63.3752C19.2662 63.0795 19.4053 62.8046 19.6308 62.612C19.6383 62.6056 20.5701 61.7963 21.8415 60.155C22.3576 59.4886 22.6969 58.0673 23.056 56.5627C23.5042 54.6846 24.0124 52.556 25.0794 50.6087C26.3079 48.3668 26.9731 45.4174 27.0567 41.8427C27.1229 39.0111 26.208 37.4297 25.3297 36.894C24.9849 36.6836 24.7168 36.6811 24.6285 36.729C24.2361 36.9646 22.2371 38.9226 19.8378 41.8125C17.3478 44.8115 15.6778 47.3221 15.371 48.5281C14.7295 51.0491 15.1731 57.5603 15.3981 59.8565C15.4157 60.037 15.3889 60.2192 15.3199 60.387C15.294 60.45 12.714 66.7272 11.3624 70.2837C11.194 70.727 10.7722 70.9997 10.3246 70.9997L10.3247 71Z" fill="black"/>
<path d="M6.8152 59.3948C6.10582 59.3948 5.39019 59.1796 4.77309 58.7325C4.0186 58.1857 3.52237 57.3779 3.37555 56.4579C3.22873 55.5379 3.44896 54.6158 3.99571 53.8614C4.33735 53.39 4.79404 53.0098 5.31845 52.76C5.33371 52.7522 5.34925 52.745 5.36479 52.738L9.15775 51.0437C9.52007 50.8821 9.94081 50.9258 10.2619 51.1585C10.583 51.3912 10.7557 51.7775 10.7147 52.1721L10.2855 56.304C10.2838 56.3207 10.2818 56.3373 10.2793 56.3538C10.2053 56.9303 9.98605 57.4831 9.64427 57.9548C8.96278 58.8951 7.8962 59.3948 6.8152 59.3948ZM6.29718 54.7533C6.29301 54.7552 6.28885 54.7572 6.28483 54.7591C6.08736 54.8507 5.92195 54.9871 5.79345 55.1643C5.38325 55.7302 5.51008 56.5244 6.07598 56.9346C6.64202 57.3448 7.43619 57.2179 7.84639 56.652C7.97488 56.4747 8.05301 56.2752 8.07855 56.0588C8.07896 56.0547 8.07952 56.0505 8.08007 56.0463L8.30765 53.8552L6.29718 54.7533Z" fill="black"/>
<path d="M4.24497 50.9893C2.47512 50.9893 0.820585 49.8718 0.224437 48.1044C-0.137471 47.0314 -0.0597605 45.8817 0.443135 44.867C0.946031 43.8525 1.81389 43.0944 2.88684 42.7326C3.55945 42.5059 4.28216 42.4515 4.97933 42.5751C4.99654 42.5778 5.01374 42.5808 5.03081 42.5842L10.3906 43.6614C10.7794 43.7395 11.0971 44.0193 11.2238 44.3951C11.3505 44.7709 11.2671 45.1858 11.0051 45.4834L7.39223 49.5865C7.38044 49.6 7.36836 49.613 7.35601 49.6257C6.87615 50.1459 6.26863 50.54 5.59629 50.7668C5.14877 50.9176 4.69305 50.9893 4.24497 50.9893ZM4.23831 44.7298C4.02183 44.7298 3.80702 44.7655 3.59623 44.8365C3.08528 45.0089 2.67189 45.3699 2.43252 45.8531C2.193 46.3363 2.15595 46.8839 2.32844 47.3948C2.6841 48.4498 3.83186 49.0184 4.88691 48.6629C5.21746 48.5515 5.50318 48.3646 5.73617 48.1073C5.73992 48.1031 5.74367 48.0989 5.74755 48.0949L8.06817 45.4593L4.6245 44.7671C4.61937 44.7663 4.61423 44.7653 4.6091 44.7643C4.48532 44.7412 4.36167 44.7297 4.23858 44.7297L4.23831 44.7298Z" fill="black"/>
<path d="M11.1219 41.5518C11.0346 41.5518 10.9468 41.5416 10.8599 41.5205L7.44926 40.6922C7.43303 40.6883 7.41707 40.684 7.40125 40.6794C6.90043 40.5444 6.43792 40.2841 6.06172 39.9252C5.45891 39.3501 5.11601 38.5747 5.09645 37.7418C5.07674 36.9089 5.38273 36.1181 5.95778 35.5154C7.1448 34.2709 9.12308 34.2242 10.3676 35.4115C10.7438 35.7703 11.0257 36.2204 11.1842 36.7147C11.1895 36.7301 11.1945 36.7457 11.1991 36.7614L12.1871 40.1293C12.2988 40.51 12.1989 40.9211 11.9251 41.2081C11.7131 41.4304 11.4215 41.552 11.1218 41.552L11.1219 41.5518ZM7.99962 38.541L9.51538 38.9091L9.07618 37.4118L9.07299 37.4014C9.02747 37.254 8.94754 37.125 8.83514 37.0179C8.47656 36.6757 7.9065 36.6893 7.56444 37.0478C7.39875 37.2216 7.31049 37.4494 7.31618 37.6895C7.32187 37.9294 7.42068 38.1528 7.59427 38.3185C7.70668 38.4258 7.83934 38.4996 7.98865 38.5382L7.99975 38.5411L7.99962 38.541Z" fill="black"/>
<path d="M35.5995 61.1131C31.9751 61.1131 27.6772 58.6519 24.1022 54.5294C23.7005 54.0661 23.7505 53.3649 24.2137 52.9634C24.6769 52.5616 25.3781 52.6116 25.7797 53.0748C28.9387 56.7179 32.6097 58.8928 35.5995 58.8928C38.5384 58.8928 42.16 56.7742 45.2871 53.2258C45.6925 52.7656 46.3941 52.7213 46.854 53.1268C47.314 53.5322 47.3583 54.2338 46.9529 54.6937C43.3577 58.7733 39.2195 61.1131 35.5995 61.1131Z" fill="black"/>
<path d="M4.44301 70.9999C4.06515 70.9999 3.69686 70.8071 3.48898 70.459C3.17453 69.9327 3.34633 69.251 3.87268 68.9366C5.09064 68.2089 7.37102 67.3738 10.8443 66.3837C11.4339 66.2155 12.0481 66.5573 12.2163 67.1469C12.3843 67.7365 12.0427 68.3507 11.453 68.5189C7.41848 69.6692 5.72315 70.4174 5.01155 70.8427C4.83323 70.9493 4.63687 70.9999 4.44329 70.9999H4.44301Z" fill="black"/>
<path d="M20.4354 66.2178C19.9295 66.2178 19.4722 65.8696 19.3543 65.3553C19.2173 64.7577 19.5907 64.1622 20.1884 64.0252C22.2498 63.5527 23.9746 63.1822 24.9172 62.9831L25.874 55.8469C25.9556 55.2393 26.5147 54.8131 27.1218 54.8942C27.7295 54.9756 28.1561 55.5343 28.0746 56.142L27.0135 64.0567C26.9506 64.525 26.5985 64.9021 26.1358 64.9968C26.1126 65.0015 23.784 65.479 20.6844 66.1893C20.601 66.2085 20.5174 66.2178 20.4354 66.2178Z" fill="black"/>
<path d="M66.609 70.9999C66.4153 70.9999 66.219 70.9491 66.0407 70.8425C65.3391 70.4233 63.675 69.6864 59.7318 68.5566C59.1424 68.3877 58.8015 67.7731 58.9704 67.1836C59.1392 66.5943 59.754 66.2535 60.3433 66.4222C63.7411 67.3958 65.9772 68.2181 67.1795 68.9364C67.7058 69.2509 67.8776 69.9325 67.5632 70.4588C67.3553 70.8067 66.987 70.9998 66.6091 70.9998L66.609 70.9999Z" fill="black"/>
<path d="M50.5867 66.2178C50.5037 66.2178 50.4195 66.2085 50.3353 66.1889C46.9339 65.4011 44.9411 65.0019 44.9214 64.998C44.4562 64.9051 44.1014 64.527 44.0384 64.0569L43.0104 56.3905C42.9289 55.7828 43.3555 55.2241 43.9632 55.1427C44.5703 55.0612 45.1295 55.4878 45.211 56.0954L46.1343 62.9815C47.0223 63.1683 48.6406 63.5173 50.8362 64.0259C51.4335 64.1643 51.8055 64.7605 51.6672 65.3579C51.5484 65.871 51.0917 66.2179 50.5866 66.2179L50.5867 66.2178Z" fill="black"/>
<path d="M52.7096 42.9976C52.4146 42.9976 52.1201 42.8808 51.9018 42.6492C51.4811 42.2032 51.5018 41.5006 51.9478 41.0798C53.3523 39.7551 56.6189 36.2021 56.6189 31.8297C56.6189 27.3403 55.32 24.5854 52.1357 22.321C51.636 21.9656 51.519 21.2726 51.8744 20.7729C52.2296 20.2732 52.9226 20.1562 53.4225 20.5116C57.2192 23.2118 58.8391 26.5966 58.8391 31.8298C58.8391 37.063 55.0852 41.1728 53.4712 42.6951C53.2568 42.8974 52.9829 42.9976 52.7096 42.9976Z" fill="black"/>
<path d="M60.7272 71C60.2795 71 59.8577 70.7273 59.6894 70.2839C58.3378 66.7274 55.7576 60.4502 55.7318 60.3872C55.6629 60.2195 55.6361 60.0373 55.6537 59.8567C55.8788 57.5607 56.3223 51.0494 55.6808 48.5284C55.3738 47.3225 53.704 44.8119 51.214 41.8127C48.8147 38.9228 46.8157 36.9648 46.4169 36.7256C46.3356 36.6813 46.0672 36.6837 45.7221 36.8942C44.8438 37.43 43.929 39.0114 43.9951 41.8431C44.0786 45.4178 44.7439 48.3671 45.9724 50.6089C47.0394 52.5564 47.5476 54.685 47.9958 56.5629C48.3549 58.0676 48.6942 59.4889 49.2103 60.1554C50.4818 61.7966 51.4135 62.606 51.4228 62.6139C51.6462 62.8064 51.7857 63.0816 51.8072 63.3756L52.2766 69.8086C52.3212 70.4202 51.8617 70.9521 51.2503 70.9968C50.6383 71.0406 50.107 70.5818 50.0622 69.9704L49.6245 63.9734C49.194 63.5578 48.4074 62.7446 47.455 61.5151C46.6456 60.4702 46.2705 58.8985 45.836 57.0784C45.4201 55.3364 44.9489 53.3618 44.0251 51.6759C42.6241 49.1193 41.8671 45.8284 41.7751 41.8948C41.6673 37.273 43.6905 35.5325 44.5654 34.9988C45.5465 34.4001 46.6379 34.3181 47.4844 34.7791C49.0977 35.6574 56.934 44.4514 57.8322 47.9807C58.6231 51.0885 58.028 58.2699 57.8891 59.7964C58.3883 61.0139 60.5583 66.321 61.7645 69.4952C61.9824 70.0683 61.6943 70.7094 61.1212 70.9272C60.9914 70.9765 60.8581 71 60.7271 71H60.7272Z" fill="black"/>
<path d="M64.2367 59.3947C63.1557 59.3947 62.0892 58.895 61.4079 57.9549C61.0659 57.4833 60.8468 56.9303 60.7727 56.3538C60.7702 56.3372 60.7682 56.3206 60.7665 56.3039L60.3373 52.1721C60.2963 51.7776 60.4688 51.3913 60.7901 51.1586C61.111 50.9258 61.5321 50.882 61.8943 51.0438L65.6872 52.7379C65.7029 52.745 65.7184 52.7523 65.7337 52.7599C66.258 53.0097 66.7146 53.3898 67.0563 53.8612C67.603 54.6157 67.8233 55.5378 67.6764 56.4577C67.5296 57.3776 67.0333 58.1855 66.2789 58.7322C65.6618 59.1795 64.9462 59.3947 64.2368 59.3947H64.2367ZM62.9719 56.0462C62.9725 56.0504 62.973 56.0546 62.9735 56.0587C62.999 56.2751 63.0771 56.4746 63.2056 56.652C63.6157 57.2179 64.41 57.3447 64.976 56.9344C65.5421 56.5242 65.6687 55.73 65.2586 55.1641C65.1301 54.9869 64.9646 54.8505 64.7672 54.7589C64.763 54.757 64.7588 54.755 64.7547 54.7531L62.7444 53.8551L62.9719 56.0462Z" fill="black"/>
<path d="M66.807 50.9893C66.3588 50.9893 65.9032 50.9176 65.4556 50.7667C64.7833 50.54 64.1757 50.1457 63.6959 49.6256C63.6836 49.6129 63.6715 49.5998 63.6597 49.5864L60.0469 45.4833C59.7847 45.1856 59.7015 44.7707 59.8282 44.3949C59.955 44.0191 60.2725 43.7395 60.6613 43.6612L66.0211 42.584C66.0383 42.5805 66.0554 42.5776 66.0726 42.575C66.7698 42.4515 67.4923 42.5057 68.165 42.7325C70.3801 43.4796 71.5745 45.8893 70.8275 48.1043C70.2315 49.8717 68.5767 50.9893 66.807 50.9893ZM65.3045 48.0947C65.3083 48.0988 65.312 48.1029 65.3159 48.1071C65.5489 48.3644 65.8346 48.5513 66.1652 48.6627C67.2199 49.0187 68.3678 48.4496 68.7236 47.3947C68.896 46.8836 68.8591 46.3361 68.6196 45.8529C68.38 45.3697 67.9668 45.0087 67.4557 44.8363C67.1253 44.7248 66.7845 44.7005 66.4433 44.7642C66.4381 44.7651 66.433 44.766 66.4279 44.7669L62.9842 45.4591L65.3048 48.0947H65.3045Z" fill="black"/>
<path d="M59.93 41.5518C59.6302 41.5518 59.3388 41.4302 59.1266 41.2079C58.8529 40.921 58.7531 40.5098 58.8646 40.1291L59.8527 36.7612C59.8573 36.7454 59.8623 36.7297 59.8675 36.7143C60.0261 36.2202 60.308 35.7702 60.6842 35.4113C61.9287 34.2241 63.9069 34.2708 65.094 35.5152C65.669 36.1181 65.975 36.9088 65.9553 37.7416C65.9357 38.5745 65.5928 39.35 64.9899 39.925C64.614 40.2837 64.1513 40.5441 63.6505 40.6792C63.6347 40.6838 63.6187 40.6881 63.6025 40.692L60.1918 41.5203C60.1051 41.5414 60.0171 41.5517 59.9298 41.5517L59.93 41.5518ZM61.9757 37.4119L61.5365 38.9092L63.0523 38.5411L63.0634 38.5382C63.2127 38.4996 63.3453 38.4258 63.4576 38.3186C63.6313 38.153 63.7301 37.9294 63.7358 37.6895C63.7415 37.4495 63.6533 37.2215 63.4876 37.0478C63.1455 36.6892 62.5753 36.6758 62.2169 37.0178C62.1045 37.125 62.0245 37.254 61.979 37.4014L61.9758 37.4118L61.9757 37.4119Z" fill="black"/>
<path d="M18.2833 42.9034C17.998 42.9034 17.7128 42.7941 17.4959 42.5758C15.6567 40.7252 11.4716 35.5987 12.33 27.9851C12.9528 22.462 15.0256 17.7764 18.4908 14.0584C21.5124 10.8163 25.5413 8.42951 30.1417 7.15589C31.4947 6.78136 32.8422 6.48287 34.1469 6.26889C34.7519 6.16995 35.3228 6.57959 35.4222 7.18462C35.5214 7.78965 35.1115 8.36068 34.5064 8.4599C33.2799 8.66111 32.0107 8.9424 30.734 9.2957C26.5289 10.4598 22.857 12.6302 20.1149 15.5722C16.9814 18.9343 15.1044 23.1943 14.5362 28.234C13.7854 34.8921 17.4571 39.3872 19.0705 41.0108C19.5028 41.4457 19.5006 42.1485 19.0657 42.5806C18.8491 42.7959 18.5663 42.9034 18.2833 42.9034Z" fill="black"/>
<path d="M18.9159 42.2946C18.3268 42.2946 17.836 41.8314 17.8078 41.2368C17.7121 39.2089 17.8149 35.1892 19.5796 31.0512C21.7642 25.9281 25.7347 22.2473 31.3807 20.1111C37.8744 17.6541 43.4633 17.8621 47.0082 18.4692C49.2739 18.8572 51.0119 19.4479 52.0838 19.8821C52.3689 18.3195 52.3343 15.1733 48.9711 11.4975C46.9011 9.23487 43.2794 8.01982 38.7664 8.072C38.1547 8.08573 37.6504 7.58825 37.6431 6.97517C37.6358 6.36209 38.1268 5.8592 38.7399 5.85184C43.8958 5.79217 48.1065 7.26326 50.6091 9.99865C56.3912 16.3184 53.8867 21.677 53.7774 21.9019C53.6446 22.1749 53.4059 22.3815 53.1168 22.4739C52.8278 22.5662 52.5135 22.5362 52.247 22.3908C52.2279 22.3804 50.0764 21.2333 46.5363 20.6412C43.2834 20.0974 38.1497 19.924 32.1664 22.1878C27.1079 24.1017 23.5602 27.3769 21.622 31.9221C20.0309 35.6533 19.939 39.294 20.0257 41.1321C20.0546 41.7447 19.5815 42.2645 18.9692 42.2935C18.9514 42.2943 18.9336 42.2946 18.9159 42.2946Z" fill="black"/>
<path d="M20.6027 14.6459C20.5313 14.6459 20.4587 14.639 20.386 14.6246C19.7845 14.5055 19.3935 13.9214 19.5126 13.32C19.9402 11.1598 21.8895 3.90139 29.0171 1.20124C33.6297 -0.546406 37.7742 -0.386406 41.3352 1.67666C44.3766 3.4386 46.1752 6.1765 46.9766 7.65174C47.2693 8.19044 47.0697 8.86458 46.531 9.15724C45.9924 9.44976 45.3183 9.25049 45.0255 8.71165C43.5082 5.91867 38.9881 -0.201706 29.8036 3.27749C23.7453 5.57272 22.0621 11.8745 21.6905 13.7512C21.5859 14.2799 21.1219 14.6459 20.6027 14.6459Z" fill="black"/>
<path d="M52.1711 42.1511C52.1522 42.1511 52.1334 42.1506 52.1144 42.1497C51.502 42.119 51.0307 41.5977 51.0615 40.9853C51.1784 38.6548 51.0251 32.7059 47.0838 27.8126C45.8044 26.2241 44.4048 24.864 42.9237 23.7702C42.4305 23.406 42.326 22.7109 42.6903 22.2177C43.0545 21.7247 43.7496 21.62 44.2428 21.9843C45.8767 23.191 47.4142 24.6835 48.813 26.4199C53.0743 31.7106 53.4402 37.8863 53.279 41.0967C53.2493 41.6901 52.7586 42.1512 52.1712 42.1512L52.1711 42.1511Z" fill="black"/>
</svg>
