<svg width="68" height="19" viewBox="0 0 68 19" fill="none" xmlns="http://www.w3.org/2000/svg">
<path fill-rule="evenodd" clip-rule="evenodd" d="M9.2709 18.5418C14.3699 18.5418 18.5418 14.3884 18.5418 9.2709C18.5418 4.15336 14.3699 0 9.2709 0C4.15336 0 0 4.15336 0 9.2709C0 14.3884 4.15336 18.5418 9.2709 18.5418Z" fill="#299400"/>
<path fill-rule="evenodd" clip-rule="evenodd" d="M9.27086 2.89685C12.4577 2.89685 14.6209 5.34978 14.6209 7.99584C14.6209 9.05813 14.3892 9.98522 13.8484 11.1441C10.6808 11.1441 10.1014 13.2494 9.96617 14.6593L9.8696 15.6443H8.67211L8.57554 14.6593C8.44034 13.2494 7.86091 11.1441 4.69335 11.1441C4.15255 9.98522 3.92078 9.05813 3.92078 7.99584C3.92078 5.34978 6.08399 2.89685 9.27086 2.89685Z" fill="white"/>
<path fill-rule="evenodd" clip-rule="evenodd" d="M26.8856 2.89685C23.8725 2.89685 21.6128 4.73172 21.6321 7.91859H24.4327C24.394 6.64384 25.2052 5.40772 26.8856 5.40772C28.1603 5.40772 28.9715 6.25755 28.9715 7.33915C28.9715 8.45939 28.0831 9.07745 26.6538 9.77276C24.7803 10.6805 23.6601 11.1055 21.6321 11.7815V15.4512H31.6756V12.9403H25.4177C26.3857 12.537 27.3283 12.0936 28.1797 11.6849C30.4394 10.6033 31.7721 9.38648 31.7721 7.20395C31.7721 4.5772 29.8021 2.89685 26.8856 2.89685ZM36.1179 5.60086H41.9122V3.08999H33.4138V15.4512H36.1179V5.60086ZM45.9682 3.08999H43.2642V15.4512H45.9489L50.9899 7.55161V15.4512H53.6939V3.08999H50.9899L45.9682 10.9896V3.08999ZM67.2719 10.8157H64.4713C64.0464 12.1871 62.7524 13.1335 61.2265 13.1335C59.0054 13.1335 57.5568 11.2213 57.5568 9.27059C57.5568 7.31984 58.9668 5.40772 61.3038 5.40772C62.8489 5.40772 64.0464 6.35412 64.4713 7.72544H67.2719C66.8663 4.96349 64.6838 2.89685 61.2265 2.89685C57.4023 2.89685 54.8528 5.58155 54.8528 9.27059C54.8528 12.9596 57.4023 15.6443 61.2265 15.6443C64.6838 15.6443 66.8663 13.6163 67.2719 10.8157Z" fill="#262626"/>
</svg>
