<svg width="125" height="125" viewBox="0 0 125 125" fill="none" xmlns="http://www.w3.org/2000/svg">
<circle cx="62.5" cy="62.4994" r="48.0072" fill="#FFFBFB"/>
<path d="M56.3715 30.0732C57.7316 23.3992 67.2684 23.3992 68.6285 30.0733C69.5607 34.6477 74.9943 36.6254 78.6488 33.7204C83.9807 29.482 91.2863 35.6121 88.0382 41.599C85.8119 45.7024 88.7031 50.7101 93.3699 50.8338C100.179 51.0143 101.835 60.4062 95.4983 62.9045C91.1553 64.6169 90.1511 70.3114 93.6466 73.406C98.7465 77.9208 93.9781 86.18 87.5182 84.0208C83.0905 82.5409 78.6609 86.2577 79.3495 90.8751C80.3541 97.6118 71.3924 100.874 67.8317 95.0672C65.3912 91.0875 59.6088 91.0875 57.1683 95.0672C53.6076 100.874 44.6459 97.6118 45.6505 90.8751C46.3391 86.2577 41.9095 82.5409 37.4818 84.0208C31.0219 86.18 26.2535 77.9209 31.3534 73.406C34.8489 70.3114 33.8447 64.6169 29.5017 62.9045C23.1652 60.4062 24.8213 51.0143 31.6301 50.8338C36.2969 50.7101 39.1881 45.7024 36.9618 41.599C33.7137 35.6121 41.0193 29.482 46.3512 33.7204C50.0057 36.6254 55.4393 34.6477 56.3715 30.0732Z" fill="#AC0367"/>
<path d="M55.8306 70.1016L65.3906 56.1016H67.3506L57.7906 70.1016H55.8306ZM56.9906 63.6416C56.3373 63.6416 55.7573 63.4816 55.2506 63.1616C54.744 62.8416 54.3506 62.3949 54.0706 61.8216C53.7906 61.2482 53.6506 60.5749 53.6506 59.8016C53.6506 59.0282 53.7906 58.3549 54.0706 57.7816C54.3506 57.2082 54.744 56.7616 55.2506 56.4416C55.7573 56.1216 56.3373 55.9616 56.9906 55.9616C57.6706 55.9616 58.2573 56.1216 58.7506 56.4416C59.2573 56.7616 59.6506 57.2082 59.9306 57.7816C60.2106 58.3549 60.3506 59.0282 60.3506 59.8016C60.3506 60.5749 60.2106 61.2482 59.9306 61.8216C59.6506 62.3949 59.2573 62.8416 58.7506 63.1616C58.2573 63.4816 57.6706 63.6416 56.9906 63.6416ZM57.0106 62.2416C57.544 62.2416 57.9573 62.0349 58.2506 61.6216C58.5573 61.1949 58.7106 60.5882 58.7106 59.8016C58.7106 59.0149 58.5573 58.4149 58.2506 58.0016C57.9573 57.5749 57.544 57.3616 57.0106 57.3616C56.4773 57.3616 56.0506 57.5749 55.7306 58.0016C55.424 58.4282 55.2706 59.0282 55.2706 59.8016C55.2706 60.5749 55.424 61.1749 55.7306 61.6016C56.0506 62.0282 56.4773 62.2416 57.0106 62.2416ZM66.1706 70.2416C65.5173 70.2416 64.9373 70.0816 64.4306 69.7616C63.924 69.4416 63.5306 68.9949 63.2506 68.4216C62.9706 67.8482 62.8306 67.1749 62.8306 66.4016C62.8306 65.6282 62.9706 64.9549 63.2506 64.3816C63.5306 63.8082 63.924 63.3616 64.4306 63.0416C64.9373 62.7216 65.5173 62.5616 66.1706 62.5616C66.8506 62.5616 67.4373 62.7216 67.9306 63.0416C68.4373 63.3616 68.8306 63.8082 69.1106 64.3816C69.3906 64.9549 69.5306 65.6282 69.5306 66.4016C69.5306 67.1749 69.3906 67.8482 69.1106 68.4216C68.8306 68.9949 68.4373 69.4416 67.9306 69.7616C67.4373 70.0816 66.8506 70.2416 66.1706 70.2416ZM66.1706 68.8416C66.704 68.8416 67.124 68.6282 67.4306 68.2016C67.7373 67.7749 67.8906 67.1749 67.8906 66.4016C67.8906 65.6282 67.7373 65.0282 67.4306 64.6016C67.124 64.1749 66.704 63.9616 66.1706 63.9616C65.6506 63.9616 65.2306 64.1749 64.9106 64.6016C64.604 65.0149 64.4506 65.6149 64.4506 66.4016C64.4506 67.1882 64.604 67.7949 64.9106 68.2216C65.2306 68.6349 65.6506 68.8416 66.1706 68.8416Z" fill="white"/>
</svg>
