<svg width="49" height="71" viewBox="0 0 49 71" fill="none" xmlns="http://www.w3.org/2000/svg">
<path d="M24.116 0.29016C21.8757 0.387666 19.7573 1.3379 18.1946 2.94623C16.6319 4.55456 15.7427 6.69931 15.7097 8.94154V12.2692C13.9893 13.5646 12.5761 15.2243 11.5719 17.1295C10.5678 19.0347 9.99757 21.1383 9.9013 23.2897V26.0864C9.90161 28.904 10.7174 31.6614 12.25 34.0257C13.7826 36.3899 15.9671 38.2601 18.5391 39.4106V39.5659C18.5388 40.4763 18.2635 41.3656 17.7507 42.1179C17.2379 42.8703 16.5108 43.4509 15.6634 43.784L4.65111 48.1192C3.27968 48.6596 2.10239 49.6003 1.27306 50.8189C0.443734 52.0375 -0.000528227 53.4775 4.71339e-07 54.9515V68.4692C0.000616961 69.0659 0.238149 69.638 0.660359 70.0598C1.08257 70.4816 1.65525 70.7185 2.25203 70.7185H46.748C47.3448 70.7185 47.9174 70.4816 48.3396 70.0598C48.7619 69.638 48.9994 69.0659 49 68.4692V54.9515C49.0002 53.477 48.5557 52.0367 47.7256 50.818C46.8955 49.5993 45.7184 48.6589 44.3462 48.1192L33.3338 43.784C32.4867 43.4506 31.7604 42.8699 31.2479 42.1176C30.7354 41.3653 30.4611 40.4762 30.4609 39.5659V39.4106C33.0332 38.2603 35.2171 36.3901 36.75 34.0258C38.2829 31.6615 39.0983 28.9041 39.0987 26.0864V23.2897C39.0021 21.138 38.4313 19.0343 37.4267 17.1291C36.4221 15.2239 35.0085 13.5644 33.2875 12.2692V8.94154C33.2703 7.76597 33.0178 6.60586 32.5441 5.5298C32.0705 4.45374 31.3857 3.48367 30.5304 2.67698C29.6751 1.8703 28.6668 1.2434 27.5649 0.833425C26.463 0.423452 25.2906 0.238702 24.116 0.29016ZM24.7233 1.26776C26.7202 1.32563 28.6154 2.15938 30.0075 3.59213C31.3997 5.02487 32.1787 6.94382 32.1792 8.94154V11.5122C29.8714 10.0866 27.2126 9.33163 24.5 9.33163C21.7874 9.33163 19.1286 10.0866 16.8208 11.5122V8.94154C16.821 7.91447 17.0279 6.89783 17.428 5.95189C17.8281 5.00595 18.4136 4.15003 19.1504 3.43452C19.8873 2.71902 20.7597 2.15851 21.717 1.78635C22.6742 1.41419 23.6967 1.23784 24.7233 1.26776ZM24.8213 10.4447C28.2362 10.5272 31.492 11.9008 33.9343 14.2889C36.3766 16.677 37.8231 19.9021 37.9822 23.3142V25.6425C34.7321 26.3347 31.3556 26.1276 28.2143 25.0438C25.0731 23.9599 22.2856 22.0401 20.1539 19.4909C19.9638 19.2626 19.7258 19.0789 19.4568 18.9528C19.1877 18.8267 18.8947 18.7615 18.5976 18.7615C18.3005 18.7615 18.0075 18.8267 17.7385 18.9528C17.4694 19.0789 17.2314 19.2626 17.0413 19.4909C15.2836 21.599 13.2544 23.4651 11.0069 25.0407V23.3142C11.1712 19.7894 12.7085 16.469 15.2904 14.0638C17.8722 11.6585 21.2937 10.3594 24.8213 10.4447ZM18.5772 19.8722C18.715 19.8695 18.8522 19.8979 18.9775 19.9554C19.1028 20.0129 19.2138 20.0981 19.3015 20.2044C21.5357 22.8752 24.4467 24.8951 27.731 26.0518C31.0153 27.2085 34.5512 27.4593 37.9659 26.778C37.7837 30.263 36.2584 33.5416 33.7096 35.9252C31.1608 38.3088 27.7864 39.6117 24.2971 39.5602C20.8078 39.5088 17.475 38.1069 14.9976 35.6492C12.5203 33.1914 11.0916 29.8692 11.0123 26.3805C13.5909 24.6634 15.9077 22.5833 17.8923 20.2044C17.9759 20.1032 18.0806 20.0211 18.1987 19.9638C18.3168 19.9064 18.4459 19.8752 18.5772 19.8722ZM19.6324 39.8518C22.7754 40.9606 26.2042 40.9606 29.3472 39.8518C29.4023 40.9356 29.7686 41.9806 30.4024 42.8615C31.0362 43.7425 31.9098 44.422 32.9199 44.8188L33.0452 44.8703L24.4877 53.3447L15.9289 44.8703L16.0542 44.8188C17.0635 44.4214 17.936 43.7416 18.569 42.8607C19.202 41.9798 19.5681 40.9351 19.6229 39.8518H19.6324ZM14.8084 45.3144L23.8138 54.2299C23.8525 54.2687 23.8957 54.3042 23.9404 54.3359V69.61H2.25067C2.10075 69.6101 1.95214 69.5807 1.81361 69.5234C1.67507 69.4661 1.5493 69.382 1.44326 69.2761C1.33721 69.1701 1.25285 69.0442 1.19545 68.9057C1.13806 68.7672 1.10968 68.6187 1.10968 68.4688V54.9512C1.10962 53.7001 1.48515 52.478 2.1894 51.444C2.89365 50.4099 3.89404 49.6118 5.05821 49.1537L11.6291 46.5667V49.369C10.8098 49.4818 10.0438 49.8417 9.43428 50.4007C8.82473 50.9597 8.40019 51.6911 8.21704 52.4977L6.30268 60.9285C6.23836 61.2113 6.24276 61.5056 6.3163 61.7863C6.38984 62.0669 6.52998 62.3256 6.72477 62.5406C7.21855 63.0851 7.85428 63.4819 8.56016 63.687C8.64975 63.9401 8.82107 64.1559 9.0476 64.3C9.27413 64.4442 9.54284 64.5084 9.81008 64.4823C10.0773 64.4563 10.3278 64.3416 10.5222 64.1564C10.7166 63.9712 10.844 63.7261 10.883 63.4605C10.922 63.1948 10.8703 62.9238 10.7373 62.6905C10.6043 62.4572 10.3976 62.2752 10.1491 62.1735C9.90064 62.0717 9.62461 62.0561 9.36621 62.129C9.1078 62.202 8.88212 62.3593 8.72355 62.576C8.27369 62.4172 7.86951 62.1485 7.54988 61.7944C7.47513 61.712 7.42169 61.6129 7.3933 61.5053C7.36491 61.3977 7.3635 61.2849 7.38785 61.1763L9.30221 52.7456C9.45143 52.0928 9.81742 51.5098 10.3411 51.0924C10.8648 50.6749 11.5149 50.4475 12.1846 50.4475C12.8544 50.4475 13.5032 50.6749 14.0268 51.0924C14.5505 51.5098 14.9179 52.0928 15.0671 52.7456L16.9814 61.1763C17.0058 61.2849 17.003 61.3977 16.9746 61.5053C16.9462 61.6129 16.8928 61.712 16.8181 61.7944C16.4965 62.1495 16.0913 62.4183 15.6389 62.576C15.4804 62.3593 15.2533 62.202 14.9949 62.129C14.7365 62.0561 14.4605 62.0717 14.212 62.1735C13.9636 62.2752 13.7568 62.4572 13.6238 62.6905C13.4908 62.9238 13.4405 63.1948 13.4795 63.4605C13.5185 63.7261 13.6445 63.9712 13.8389 64.1564C14.0334 64.3416 14.2838 64.4563 14.551 64.4823C14.8183 64.5084 15.087 64.4442 15.3135 64.3C15.5401 64.1559 15.7114 63.9401 15.801 63.687C16.5084 63.4826 17.1455 63.0857 17.6404 62.5406C17.835 62.3255 17.9756 62.0667 18.0489 61.7861C18.1222 61.5055 18.1257 61.2112 18.0612 60.9285L16.1468 52.4977C15.9637 51.6911 15.5391 50.9597 14.9296 50.4007C14.32 49.8417 13.5554 49.4818 12.7361 49.369V46.1284L14.8084 45.3144ZM34.1834 45.3144L37.394 46.5779V52.321C36.2925 52.4619 35.2865 53.0171 34.5797 53.8735C33.8728 54.73 33.5179 55.8235 33.5884 56.9318C33.659 58.04 34.1497 59.0799 34.9595 59.8397C35.7694 60.5996 36.8377 61.0224 37.9482 61.0224C39.0587 61.0224 40.1284 60.5996 40.9382 59.8397C41.748 59.0799 42.2373 58.04 42.3079 56.9318C42.3785 55.8235 42.0249 54.73 41.3181 53.8735C40.6112 53.0171 39.6039 52.4619 38.5023 52.321V47.0136L43.9404 49.154C45.1036 49.6131 46.102 50.4115 46.8052 51.4455C47.5084 52.4795 47.884 53.7011 47.8835 54.9515V68.4692C47.8835 68.7712 47.7632 69.061 47.5499 69.2749C47.3367 69.4888 47.0473 69.6093 46.7452 69.6102H25.0528V54.3361C25.0975 54.3044 25.1393 54.2691 25.1781 54.2303L34.1834 45.3144ZM37.8515 53.3966C38.2871 53.3841 38.7212 53.4592 39.1273 53.6172C39.5334 53.7753 39.9027 54.0131 40.2152 54.3167C40.5277 54.6204 40.7767 54.9837 40.9463 55.385C41.116 55.7864 41.2037 56.2178 41.2037 56.6535C41.2037 57.5177 40.8603 58.3464 40.2492 58.9574C39.6382 59.5685 38.8096 59.9119 37.9455 59.9119C37.0813 59.9119 36.2514 59.5685 35.6403 58.9574C35.0293 58.3464 34.6872 57.5177 34.6872 56.6535C34.6872 55.8055 35.0167 54.991 35.6076 54.3829C36.1986 53.7748 37.0039 53.4209 37.8515 53.3966Z" fill="#F2F6FF"/>
</svg>
