<svg width="54" height="71" viewBox="0 0 54 71" fill="none" xmlns="http://www.w3.org/2000/svg">
<path d="M41.6801 17.5824C41.5856 16.7569 41.0233 12.6587 39.0199 10.3509C38.9494 8.94737 38.2837 3.07671 32.1123 0.650468C25.7971 -1.83125 21.4087 3.50108 20.4992 4.73594C18.2177 5.16181 16.2211 5.93781 14.8273 6.98673C10.0123 10.6104 9.29174 17.3162 11.3326 21.8853C10.1877 24.8319 9.94403 27.3811 10.16 28.7554C10.5348 31.1442 12.3815 31.81 13.7019 31.8549C15.529 37.9475 21.1298 42.156 27.547 42.156C34.1352 42.156 39.8702 37.7256 41.5376 31.3699C44.1101 26.8675 44.1566 22.2295 41.6801 17.5824ZM40.9686 29.1813C39.0994 24.5942 35.3761 21.0913 29.8728 18.7288C32.9903 18.096 36.5202 18.027 40.4692 18.5031C42.3466 22.147 42.5168 25.6589 40.9686 29.1813ZM31.565 2.04578C35.5208 3.60079 36.8494 6.71457 37.2985 8.73519C33.4957 5.23078 27.7075 4.03416 22.705 4.44278C24.2923 2.7978 27.4623 0.435285 31.565 2.04578ZM15.73 8.18486C17.0188 7.21391 18.8842 6.51063 21.0038 6.12825C21.0661 6.12375 21.1238 6.11401 21.183 6.09451C25.1208 5.42497 29.9125 5.89733 33.6906 7.98767C29.5227 7.33837 23.6025 7.97417 18.5753 12.0844C15.5485 14.5594 13.5264 17.3267 12.2106 19.9299C11.1189 16.0611 12.0246 10.974 15.73 8.18486ZM11.6415 28.5222C11.4511 27.3106 11.7127 24.9234 12.8464 22.1477C12.8509 22.1357 12.8561 22.1245 12.8599 22.1125C14.022 19.2821 16.0921 16.0514 19.5245 13.245C23.2051 10.2362 27.3738 9.28176 30.7995 9.28176C33.6861 9.28176 36.0449 9.9603 37.1328 10.6598C38.8745 11.78 39.7509 15.0145 40.0756 16.9406C35.2471 16.4195 30.9839 16.7329 27.2958 17.8733C27.2246 17.8898 27.1564 17.9093 27.0927 17.9453C21.0773 19.867 16.6094 24.0094 13.7536 30.3584C13.0795 30.3434 11.8874 30.0885 11.6415 28.5222ZM27.547 40.6564C21.6966 40.6564 16.6004 36.7562 15.0537 31.1449C17.7296 25.0928 21.8256 21.194 27.4293 19.3819C34.2439 21.8051 38.3774 25.6409 40.0554 31.0962C38.5251 36.7344 33.4147 40.6564 27.547 40.6564Z" fill="#F2F6FF"/>
<path d="M3.72324 54.1116C4.32905 51.9898 5.08257 49.3491 4.54873 45.9077C4.13186 43.222 3.44583 41.7135 2.84152 40.3826C2.31068 39.2138 1.85183 38.2053 1.63889 36.5558C1.18154 32.996 1.99953 27.2333 2.00853 27.1755C2.06776 26.7654 1.7836 26.3853 1.37348 26.3268C0.967854 26.2616 0.583974 26.5517 0.524743 26.9618C0.489504 27.2055 -0.331489 32.9825 0.15211 36.7478C0.392784 38.6207 0.919119 39.7783 1.47619 41.0042C2.06926 42.3073 2.68107 43.6554 3.0672 46.1386C3.55079 49.2554 2.87676 51.6179 2.28144 53.7015C1.97554 54.7721 1.68688 55.7828 1.6044 56.7613C1.37048 59.5362 2.73055 63.1815 2.78903 63.336C2.90225 63.6359 3.18716 63.8211 3.49081 63.8211C3.57854 63.8211 3.66851 63.8053 3.75548 63.7731C4.14311 63.6276 4.33805 63.195 4.1926 62.8074C4.17985 62.7729 2.894 59.3285 3.09944 56.8872C3.16842 56.0535 3.42558 55.1538 3.72324 54.1116Z" fill="#F2F6FF"/>
<path d="M9.09685 36.4253C8.68748 35.4671 8.3006 34.5614 8.07118 33.1226C7.65581 30.5172 8.65074 27.015 8.66124 26.9798C8.77595 26.5817 8.54653 26.1663 8.1484 26.0516C7.75103 25.9369 7.3349 26.1655 7.22019 26.5644C7.1752 26.7204 6.12178 30.4212 6.59039 33.3595C6.84831 34.9813 7.31016 36.0617 7.71729 37.0154C8.04568 37.7862 8.35684 38.5149 8.54728 39.4769C9.00538 41.7906 8.11166 43.992 8.10267 44.013C7.94297 44.3953 8.12366 44.8347 8.50529 44.9944C8.59976 45.0341 8.69798 45.0521 8.79395 45.0521C9.08711 45.0521 9.36602 44.8797 9.48598 44.5918C9.53022 44.4853 10.5664 41.9594 10.0176 39.186C9.79789 38.0681 9.441 37.2336 9.09685 36.4253Z" fill="#F2F6FF"/>
<path d="M51.748 26.3269C51.3386 26.3853 51.0537 26.7655 51.1129 27.1756C51.1212 27.2333 51.9399 32.996 51.4818 36.5559C51.2696 38.2054 50.8108 39.2153 50.28 40.3835C49.6749 41.7135 48.9896 43.2221 48.5727 45.9077C48.0389 49.3499 48.7924 51.9898 49.3982 54.1117C49.6951 55.1538 49.9523 56.0535 50.0228 56.8858C50.2275 59.321 48.9431 62.7714 48.9296 62.8059C48.7842 63.1936 48.9799 63.6262 49.3667 63.7716C49.4537 63.8046 49.5429 63.8196 49.6314 63.8196C49.9343 63.8196 50.22 63.6344 50.3332 63.3345C50.3917 63.1808 51.751 59.5355 51.5171 56.7598C51.4346 55.7814 51.1459 54.7707 50.84 53.7C50.2455 51.6164 49.5707 49.2539 50.055 46.1371C50.4404 43.6547 51.053 42.3073 51.646 41.0028C52.2031 39.7769 52.7294 38.6193 52.9701 36.7463C53.4545 32.9818 52.6335 27.2041 52.5982 26.9604C52.5382 26.5525 52.1559 26.2624 51.748 26.3269Z" fill="#F2F6FF"/>
<path d="M44.9716 26.0509C44.5742 26.1656 44.3448 26.5817 44.4588 26.9791C44.4692 27.0143 45.4642 30.5172 45.0496 33.1219C44.8201 34.5607 44.4333 35.4664 44.0239 36.4246C43.6797 37.2329 43.3229 38.0674 43.1017 39.1838C42.5528 41.9571 43.5883 44.4831 43.6325 44.5896C43.7525 44.8767 44.0306 45.0492 44.3238 45.0492C44.4198 45.0492 44.5172 45.0312 44.6117 44.9922C44.9933 44.8332 45.1748 44.3946 45.0166 44.0123C45.0076 43.9905 44.1139 41.7884 44.572 39.4747C44.7624 38.5127 45.0736 37.784 45.402 37.0132C45.8091 36.0602 46.2709 34.9791 46.5288 33.3573C46.9975 30.419 45.944 26.7189 45.899 26.5622C45.7851 26.1648 45.369 25.9354 44.9716 26.0509Z" fill="#F2F6FF"/>
<path d="M25.2452 41.509C25.7451 42.8836 24.1206 45.6327 18.1225 45.6327C12.8741 45.6327 8.00049 49.0067 8.00055 53.1304C8.0006 56.6542 8.00052 66.4744 8.00049 69.2568C8.00049 69.6709 8.33617 70.0001 8.75026 70.0001H45.135C45.5407 70.0001 45.8725 69.6848 45.8828 69.2792C45.9543 66.4633 46.1857 56.1407 45.8636 51.6309C45.4889 46.3825 37.0103 45.6327 33.6364 45.6327C31.3589 45.6327 30 44.0909 30 41.509" stroke="#F2F6FF" stroke-width="1.49953"/>
</svg>
