<svg width="69" height="59" viewBox="0 0 69 59" fill="none" xmlns="http://www.w3.org/2000/svg">
<path fill-rule="evenodd" clip-rule="evenodd" d="M28.3871 37.448V34.1715C28.3871 33.6387 28.8197 33.2058 29.3529 33.2058C29.8861 33.2058 30.3185 33.6387 30.3185 34.1715V37.448C30.3185 37.9807 29.8861 38.414 29.3529 38.414C28.8197 38.414 28.3871 37.9807 28.3871 37.448ZM21.9641 37.448V34.1715C21.9641 33.6387 22.3965 33.2058 22.9297 33.2058C23.4633 33.2058 23.8954 33.6387 23.8954 34.1715V37.448C23.8954 37.9807 23.4633 38.414 22.9297 38.414C22.3965 38.414 21.9641 37.9807 21.9641 37.448ZM15.5412 37.448V34.1715C15.5412 33.6387 15.9733 33.2058 16.5069 33.2058C17.0401 33.2058 17.4727 33.6387 17.4727 34.1715V37.448C17.4727 37.9807 17.0401 38.414 16.5069 38.414C15.9733 38.414 15.5412 37.9807 15.5412 37.448ZM9.11812 37.448V34.1715C9.11812 33.6387 9.55019 33.2058 10.0837 33.2058C10.617 33.2058 11.0495 33.6387 11.0495 34.1715V37.448C11.0495 37.9807 10.617 38.414 10.0837 38.414C9.55019 38.414 9.11812 37.9807 9.11812 37.448ZM10.9226 16.0307C10.9226 15.7246 11.1815 15.4649 11.4883 15.4649H29.0135C29.32 15.4649 29.5789 15.7246 29.5789 16.0307V20.6247C29.5789 20.9312 29.32 21.1904 29.0135 21.1904H11.4883C11.1815 21.1904 10.9226 20.9312 10.9226 20.6247V16.0307ZM11.4883 23.1222H29.0135C30.3903 23.1222 31.5106 22.0018 31.5106 20.6247V16.0307C31.5106 14.6539 30.3903 13.5336 29.0135 13.5336H11.4883C10.1111 13.5336 8.99125 14.6539 8.99125 16.0307V20.6247C8.99125 22.0018 10.1111 23.1222 11.4883 23.1222ZM64.9222 30.5181L64.8802 30.5431V25.2315L65.8765 26.9576C66.5955 28.2019 66.167 29.7994 64.9222 30.5181ZM60.3413 42.6077H48.6707V30.3445C51.2859 32.6579 54.441 34.0791 58.0817 34.5731C58.6013 34.6482 59.0964 34.2786 59.1687 33.7465C59.2404 33.2181 58.8701 32.7309 58.3417 32.6592C55.078 32.2164 52.3379 31.0025 50.0233 28.9673H62.9485V40.0005C62.9485 41.4379 61.7791 42.6077 60.3413 42.6077ZM19.5375 56.7214C18.2967 57.4386 16.6923 57.008 15.9762 55.7668L9.49391 44.5395H40.6373L19.5375 56.7214ZM5.32872 40.0005C5.32872 41.4379 6.49818 42.6077 7.93595 42.6077H46.7393V30.3445C44.1246 32.6579 40.9691 34.0791 37.3288 34.5731C36.8089 34.6481 36.3143 34.2788 36.2418 33.7465C36.1697 33.2181 36.5399 32.7309 37.0683 32.6592C40.3325 32.2164 43.0725 31.0025 45.3872 28.9673H5.32872V40.0005ZM2.27908 32.044C1.56038 30.7984 1.98851 29.2008 3.23328 28.4818L3.39698 28.3866V33.9797L2.27908 32.044ZM46.09 26.4136L41.4298 24.7859C39.316 23.9293 38.214 22.6255 38.4046 21.2059C38.5652 20.0095 39.63 18.9638 40.8287 18.8246C42.2994 18.6522 43.6374 19.8469 44.4936 22.0871L46.09 26.4136ZM7.93595 10.0003C6.49818 10.0003 5.32872 11.1689 5.32872 12.6063V27.036H42.0141L40.7285 26.5849C37.7613 25.3916 36.1768 23.2834 36.4903 20.9478C36.7675 18.8836 38.5371 17.147 40.606 16.9055C42.988 16.628 45.1184 18.3112 46.3017 21.4085L46.7393 22.5949V10.0003H7.93595ZM48.618 2.27851C49.8584 1.56274 51.4637 1.99287 52.1798 3.23345L54.971 8.06899H38.5905L48.618 2.27851ZM49.3204 26.4136L50.9128 22.0982C52.8522 16.9341 56.6861 18.8282 57.0058 21.2059C57.1965 22.6255 56.094 23.9293 53.9807 24.7859L49.3204 26.4136ZM62.9485 12.6063C62.9485 11.1689 61.7791 10.0003 60.3413 10.0003H48.6707V22.5949L49.1048 21.4195C50.292 18.3112 52.4232 16.6296 54.8045 16.9055C56.8734 17.147 58.6426 18.8836 58.9198 20.9478C59.2337 23.2834 57.6492 25.3916 54.6816 26.5849L53.396 27.036H62.9485V12.6063ZM67.5494 25.9914L64.8802 21.3684V12.6063C64.8802 10.1038 62.8443 8.06899 60.3413 8.06899H57.2013L53.8523 2.26746C52.6024 0.101742 49.8174 -0.643844 47.6523 0.606401L34.7275 8.06899H7.93595C5.43341 8.06899 3.39698 10.1038 3.39698 12.6063V26.1571L2.26761 26.8085C0.0805741 28.0704 -0.633573 30.8618 0.606597 33.0096L3.39698 37.8427V40.0005C3.39698 42.2645 5.06235 44.1462 7.23192 44.4855L14.3032 56.7325C15.557 58.9044 18.3453 59.6409 20.5036 58.3934L44.5004 44.5395H60.3413C62.8443 44.5395 64.8802 42.503 64.8802 40.0005V32.7738L65.8879 32.1918C68.0525 30.9417 68.7995 28.1565 67.5494 25.9914Z" fill="#F2F6FF"/>
</svg>
