<svg width="65" height="55" viewBox="0 0 65 55" fill="none" xmlns="http://www.w3.org/2000/svg">
<path d="M22.7492 36.2127C22.8441 36.0554 22.9063 35.8806 22.9321 35.6987C22.9579 35.5168 22.9467 35.3316 22.8992 35.1542C22.8517 34.9767 22.7689 34.8107 22.6557 34.666C22.5424 34.5213 22.4012 34.401 22.2404 34.3122L21.8457 34.0943C21.5595 33.9362 21.3218 33.7031 21.1582 33.4201C20.9947 33.137 20.9114 32.8146 20.9174 32.4878L20.9257 32.0344C20.9291 31.8509 20.8954 31.6687 20.8268 31.4986C20.7581 31.3284 20.6559 31.1739 20.5261 31.0441C20.3964 30.9144 20.2418 30.8121 20.0717 30.7435C19.9015 30.6748 19.7193 30.6412 19.5358 30.6446L19.0825 30.6529C18.7556 30.6589 18.4333 30.5756 18.1502 30.4121C17.8672 30.2485 17.6341 30.0108 17.476 29.7246L17.2581 29.33C17.1693 29.1692 17.049 29.0279 16.9043 28.9147C16.7596 28.8015 16.5936 28.7187 16.4161 28.6712C16.2387 28.6237 16.0535 28.6125 15.8716 28.6383C15.6897 28.6641 15.5149 28.7263 15.3576 28.8213L14.9727 29.0537C14.6924 29.2229 14.3711 29.3124 14.0437 29.3124C13.7162 29.3124 13.395 29.2229 13.1147 29.0537L12.7296 28.8212C12.5724 28.7263 12.3976 28.664 12.2157 28.6383C12.0338 28.6125 11.8486 28.6237 11.6711 28.6712C11.4937 28.7187 11.3276 28.8015 11.183 28.9147C11.0383 29.0279 10.9179 29.1692 10.8292 29.33L10.6112 29.7246C10.4532 30.0108 10.2201 30.2485 9.93704 30.4121C9.65396 30.5757 9.33163 30.6589 9.00475 30.653L8.55138 30.6446C8.36793 30.6413 8.18569 30.6749 8.01555 30.7436C7.8454 30.8122 7.69084 30.9145 7.56111 31.0442C7.43137 31.174 7.32913 31.3285 7.26048 31.4987C7.19183 31.6688 7.15818 31.8511 7.16156 32.0345L7.16988 32.4878C7.17587 32.8147 7.09259 33.1371 6.929 33.4202C6.76541 33.7032 6.52771 33.9364 6.24149 34.0944L5.84697 34.3122C5.68615 34.401 5.54491 34.5214 5.4317 34.666C5.3185 34.8107 5.23566 34.9767 5.18816 35.1542C5.14065 35.3317 5.12945 35.5169 5.15523 35.6988C5.18102 35.8806 5.24325 36.0554 5.3382 36.2127L5.5706 36.5977C5.73987 36.878 5.82933 37.1992 5.82933 37.5267C5.82933 37.8542 5.73987 38.1754 5.5706 38.4558L5.3382 38.8407C5.24325 38.998 5.18102 39.1728 5.15523 39.3547C5.12945 39.5366 5.14065 39.7218 5.18815 39.8992C5.23566 40.0767 5.3185 40.2427 5.4317 40.3874C5.54491 40.5321 5.68615 40.6524 5.84697 40.7412L6.24162 40.9591C6.52782 41.1171 6.7655 41.3503 6.92908 41.6333C7.09265 41.9164 7.17593 42.2387 7.16995 42.5656L7.16162 43.019C7.15825 43.2024 7.1919 43.3847 7.26055 43.5548C7.3292 43.7249 7.43145 43.8795 7.56118 44.0092C7.69092 44.139 7.84548 44.2412 8.01562 44.3099C8.18577 44.3785 8.368 44.4122 8.55144 44.4088L9.00482 44.4005C9.33171 44.3945 9.65404 44.4778 9.93711 44.6414C10.2202 44.805 10.4533 45.0426 10.6113 45.3289L10.8292 45.7234C10.918 45.8842 11.0383 46.0254 11.183 46.1387C11.3277 46.2519 11.4937 46.3347 11.6712 46.3822C11.8486 46.4297 12.0338 46.4409 12.2157 46.4151C12.3976 46.3893 12.5724 46.3271 12.7297 46.2322L13.1147 45.9997C13.395 45.8305 13.7162 45.741 14.0437 45.741C14.3711 45.741 14.6924 45.8305 14.9727 45.9997L15.3577 46.2322C15.515 46.3271 15.6898 46.3893 15.8717 46.4151C16.0535 46.4409 16.2387 46.4297 16.4162 46.3822C16.5937 46.3347 16.7597 46.2519 16.9044 46.1387C17.0491 46.0255 17.1694 45.8843 17.2582 45.7234L17.4761 45.3288C17.6341 45.0426 17.8672 44.8049 18.1503 44.6413C18.4334 44.4777 18.7557 44.3945 19.0826 44.4005L19.536 44.4087C19.7194 44.4121 19.9016 44.3784 20.0718 44.3098C20.2419 44.2411 20.3965 44.1389 20.5262 44.0092C20.6559 43.8794 20.7582 43.7249 20.8269 43.5547C20.8955 43.3846 20.9292 43.2023 20.9258 43.0189L20.9175 42.5656C20.9115 42.2387 20.9947 41.9164 21.1583 41.6333C21.3219 41.3502 21.5596 41.1171 21.8458 40.959L22.2404 40.7412C22.4012 40.6524 22.5424 40.532 22.6556 40.3874C22.7688 40.2427 22.8517 40.0766 22.8992 39.8992C22.9467 39.7217 22.9579 39.5365 22.9321 39.3546C22.9063 39.1727 22.8441 38.9979 22.7492 38.8406L22.5167 38.4558C22.3474 38.1754 22.258 37.8542 22.258 37.5267C22.258 37.1993 22.3474 36.878 22.5167 36.5977L22.7492 36.2127ZM14.0436 43.0097C12.9666 43.0097 11.9138 42.6903 11.0183 42.0919C10.1228 41.4936 9.4249 40.6431 9.01276 39.6481C8.60062 38.653 8.49279 37.5581 8.70291 36.5018C8.91303 35.4455 9.43166 34.4753 10.1932 33.7137C10.9548 32.9521 11.9251 32.4335 12.9814 32.2234C14.0377 32.0133 15.1326 32.1212 16.1276 32.5333C17.1226 32.9455 17.9731 33.6434 18.5714 34.5389C19.1698 35.4344 19.4891 36.4872 19.4891 37.5642C19.4891 38.2793 19.3483 38.9875 19.0746 39.6481C18.801 40.3088 18.3999 40.9091 17.8942 41.4148C17.3885 41.9204 16.7882 42.3215 16.1275 42.5952C15.4669 42.8688 14.7588 43.0097 14.0436 43.0097Z" fill="#F2F6FF"/>
<path d="M17.6221 7.94116H47.2342C47.4616 7.94116 47.6796 8.03148 47.8404 8.19225C48.0011 8.35301 48.0915 8.57106 48.0915 8.79841V11.7669C48.0915 11.9942 48.0012 12.2123 47.8404 12.373C47.6796 12.5338 47.4616 12.6241 47.2342 12.6241H17.6221C17.3948 12.6241 17.1767 12.5338 17.016 12.373C16.8552 12.2123 16.7649 11.9942 16.7649 11.7669V8.79842C16.7649 8.68584 16.7871 8.57437 16.8301 8.47036C16.8732 8.36635 16.9364 8.27185 17.016 8.19225C17.0956 8.11264 17.1901 8.0495 17.2941 8.00642C17.3981 7.96334 17.5096 7.94116 17.6221 7.94116Z" fill="#F2F6FF"/>
<path d="M56.6948 17.947H8.16167C8.03805 17.947 7.91949 17.9961 7.83208 18.0835C7.74467 18.171 7.69556 18.2895 7.69556 18.4131C7.69556 18.5368 7.74467 18.6553 7.83208 18.7427C7.91949 18.8301 8.03805 18.8793 8.16167 18.8793H56.6948C56.8185 18.8793 56.937 18.8301 57.0244 18.7427C57.1118 18.6553 57.1609 18.5368 57.1609 18.4131C57.1609 18.2895 57.1118 18.171 57.0244 18.0835C56.937 17.9961 56.8185 17.947 56.6948 17.947Z" fill="#F2F6FF"/>
<path d="M56.6948 24.8594H8.16167C8.03805 24.8594 7.91949 24.9085 7.83208 24.9959C7.74467 25.0833 7.69556 25.2019 7.69556 25.3255C7.69556 25.4491 7.74467 25.5677 7.83208 25.6551C7.91949 25.7425 8.03805 25.7916 8.16167 25.7916H56.6948C56.8185 25.7916 56.937 25.7425 57.0244 25.6551C57.1118 25.5677 57.1609 25.4491 57.1609 25.3255C57.1609 25.2019 57.1118 25.0833 57.0244 24.9959C56.937 24.9085 56.8185 24.8594 56.6948 24.8594Z" fill="#F2F6FF"/>
<path d="M56.6948 31.5759H24.5355C24.4118 31.5759 24.2933 31.625 24.2059 31.7124C24.1184 31.7999 24.0693 31.9184 24.0693 32.042C24.0693 32.1657 24.1184 32.2842 24.2059 32.3716C24.2933 32.4591 24.4118 32.5082 24.5355 32.5082H56.6948C56.8184 32.5082 56.9369 32.4591 57.0244 32.3716C57.1118 32.2842 57.1609 32.1657 57.1609 32.042C57.1609 31.9184 57.1118 31.7999 57.0244 31.7124C56.9369 31.625 56.8184 31.5759 56.6948 31.5759Z" fill="#F2F6FF"/>
<path d="M50.9772 42.532H37.7222C37.5986 42.532 37.48 42.5811 37.3926 42.6685C37.3052 42.7559 37.2561 42.8745 37.2561 42.9981C37.2561 43.1217 37.3052 43.2403 37.3926 43.3277C37.48 43.4151 37.5986 43.4642 37.7222 43.4642H50.9772C51.1008 43.4642 51.2194 43.4151 51.3068 43.3277C51.3942 43.2403 51.4433 43.1217 51.4433 42.9981C51.4433 42.8745 51.3942 42.7559 51.3068 42.6685C51.2194 42.5811 51.1008 42.532 50.9772 42.532Z" fill="#F2F6FF"/>
<path d="M40.9718 41.2324C41.2495 41.2327 41.5201 41.1454 41.7453 40.983C41.9705 40.8206 42.1387 40.5913 42.2261 40.3277L42.7593 38.7238L43.145 40.2371C43.2096 40.4904 43.3479 40.719 43.5424 40.8937C43.7368 41.0685 43.9788 41.1817 44.2376 41.2189C44.4964 41.2561 44.7604 41.2158 44.9963 41.103C45.2321 40.9901 45.4292 40.8098 45.5626 40.585L46.1103 39.6617L46.5421 40.5102C46.6522 40.7279 46.8207 40.9108 47.0287 41.0383C47.2367 41.1658 47.4761 41.233 47.7201 41.2324H48.5086C48.6322 41.2324 48.7508 41.1833 48.8382 41.0959C48.9256 41.0084 48.9747 40.8899 48.9747 40.7663C48.9747 40.6426 48.9256 40.5241 48.8382 40.4367C48.7508 40.3493 48.6322 40.3001 48.5086 40.3001H47.7201C47.6482 40.3004 47.5776 40.2806 47.5163 40.243C47.455 40.2054 47.4053 40.1515 47.3729 40.0874L46.8252 39.0111C46.7609 38.8848 46.6639 38.7781 46.5443 38.7021C46.4247 38.6261 46.2869 38.5836 46.1453 38.579C46.0037 38.5744 45.8634 38.608 45.7392 38.6761C45.6149 38.7442 45.5112 38.8444 45.4389 38.9663L44.7608 40.1094C44.7215 40.1756 44.6635 40.2288 44.5939 40.262C44.5244 40.2953 44.4466 40.3072 44.3704 40.2962C44.2941 40.2852 44.2228 40.2519 44.1655 40.2004C44.1082 40.1489 44.0674 40.0815 44.0484 40.0069L43.5442 38.0289C43.5019 37.8631 43.4071 37.7155 43.2739 37.6082C43.1407 37.5008 42.9763 37.4395 42.8054 37.4334C42.6344 37.4273 42.4661 37.4767 42.3255 37.5743C42.185 37.6719 42.0799 37.8123 42.0259 37.9747L41.3415 40.0335C41.3157 40.1112 41.2661 40.1788 41.1998 40.2266C41.1334 40.2745 41.0537 40.3002 40.9718 40.3002H38.2857C38.1621 40.3002 38.0435 40.3493 37.9561 40.4367C37.8687 40.5241 37.8196 40.6427 37.8196 40.7663C37.8196 40.8899 37.8687 41.0085 37.9561 41.0959C38.0435 41.1833 38.1621 41.2324 38.2857 41.2324L40.9718 41.2324Z" fill="#F2F6FF"/>
<path d="M62.6983 0H2.15825C1.58605 0.000647861 1.03746 0.228242 0.632853 0.632852C0.228243 1.03746 0.000647861 1.58605 0 2.15825V45.9119C0.000647861 46.4841 0.228243 47.0327 0.632853 47.4373C1.03746 47.8419 1.58605 48.0695 2.15825 48.0702H5.63369L3.8803 50.6076C3.80032 50.7233 3.75246 50.8581 3.74161 50.9983C3.73075 51.1386 3.75729 51.2791 3.81851 51.4057C3.87973 51.5324 3.97344 51.6405 4.09008 51.719C4.20672 51.7976 4.34212 51.8438 4.48245 51.8529L6.97572 52.0159C7.05098 52.0207 7.12349 52.046 7.18554 52.0888C7.24759 52.1317 7.29684 52.1906 7.32804 52.2592L8.36236 54.5342C8.42076 54.6621 8.51195 54.7723 8.62668 54.8535C8.74142 54.9348 8.87561 54.9842 9.01563 54.9968C9.03904 54.9989 9.06245 55 9.08586 55C9.21451 54.9999 9.34123 54.9686 9.45517 54.9088C9.56912 54.8491 9.6669 54.7626 9.74016 54.6569L14.0437 48.429L18.3473 54.657C18.4272 54.7727 18.5364 54.8651 18.6638 54.9248C18.7911 54.9845 18.932 55.0094 19.072 54.9968C19.2121 54.9843 19.3463 54.9349 19.461 54.8536C19.5758 54.7723 19.6669 54.662 19.7251 54.534L20.7594 52.2592C20.7906 52.1906 20.8398 52.1317 20.9018 52.0888C20.9638 52.046 21.0362 52.0208 21.1115 52.0159L23.605 51.8529C23.7453 51.8437 23.8807 51.7975 23.9973 51.719C24.1139 51.6404 24.2076 51.5323 24.2688 51.4058C24.33 51.2792 24.3566 51.1386 24.3457 50.9984C24.3349 50.8583 24.2871 50.7234 24.2071 50.6078L22.4537 48.0702H53.4796C53.6762 48.0707 53.8708 48.0322 54.0524 47.957C54.2339 47.8818 54.3988 47.7713 54.5374 47.632L64.4184 37.7511C64.5577 37.6126 64.6682 37.4477 64.7434 37.2662C64.8186 37.0846 64.8571 36.8899 64.8565 36.6934V2.15825C64.8559 1.58605 64.6283 1.03747 64.2237 0.632856C63.8191 0.228245 63.2705 0.000649624 62.6983 0ZM54.3722 41.0151V38.9752C54.3726 38.6069 54.5191 38.2538 54.7795 37.9934C55.0399 37.733 55.393 37.5865 55.7613 37.5861H59.1052C57.2064 38.2034 55.5504 39.4032 54.3722 41.0151ZM63.9243 36.6539H55.7613C55.1459 36.6546 54.5558 36.8993 54.1206 37.3345C53.6855 37.7697 53.4407 38.3598 53.44 38.9752V47.1379H21.8095L20.8438 45.7404C20.7735 45.6387 20.6658 45.569 20.5441 45.5468C20.4225 45.5245 20.2971 45.5515 20.1954 45.6218C20.0936 45.692 20.024 45.7998 20.0018 45.9214C19.9795 46.043 20.0065 46.1685 20.0767 46.2702L23.3025 50.9385L21.0505 51.0857C20.8069 51.1015 20.5723 51.1831 20.3715 51.3218C20.1708 51.4606 20.0115 51.6512 19.9107 51.8735L18.9766 53.9279L14.4272 47.3441C14.3843 47.282 14.327 47.2313 14.2602 47.1962C14.1934 47.1612 14.1191 47.1429 14.0437 47.1429C13.9682 47.1429 13.8939 47.1612 13.8271 47.1962C13.7603 47.2313 13.703 47.282 13.6601 47.3441L9.11069 53.9279L8.17664 51.8733C8.07577 51.6511 7.91645 51.4605 7.71568 51.3218C7.51491 51.1831 7.28024 51.1015 7.03672 51.0857L4.78482 50.9385L8.01056 46.2702C8.08065 46.1685 8.10749 46.0431 8.08519 45.9216C8.0629 45.8001 7.99328 45.6924 7.89164 45.6222C7.79 45.552 7.66465 45.525 7.54312 45.5472C7.42159 45.5693 7.31383 45.6388 7.2435 45.7404L6.27778 47.1379H2.15825C1.8332 47.1376 1.52158 47.0083 1.29173 46.7784C1.06189 46.5486 0.9326 46.237 0.932229 45.9119V2.15825C0.9326 1.8332 1.06189 1.52158 1.29173 1.29173C1.52158 1.06189 1.8332 0.9326 2.15825 0.932229H62.6983C63.0233 0.932602 63.335 1.06189 63.5648 1.29174C63.7946 1.52158 63.9239 1.83321 63.9243 2.15825V36.6539Z" fill="#F2F6FF"/>
</svg>
