<svg width="40" height="64" viewBox="0 0 40 64" fill="none" xmlns="http://www.w3.org/2000/svg">
<path d="M19.9126 56.9547C20.2019 56.9547 20.4793 56.8398 20.6838 56.6353C20.8883 56.4307 21.0032 56.1533 21.0032 55.8641V31.3331C25.059 31.0505 28.8465 29.2041 31.5675 26.1832C34.2884 23.1624 35.7301 19.2031 35.5887 15.1399C35.4473 11.0768 33.7337 7.2273 30.8094 4.40293C27.885 1.57857 23.9782 0 19.9126 0C15.847 0 11.9403 1.57857 9.01587 4.40293C6.09149 7.2273 4.37798 11.0768 4.23655 15.1399C4.09513 19.2031 5.53685 23.1624 8.25778 26.1832C10.9787 29.2041 14.7663 31.0505 18.822 31.3331V55.8641C18.822 56.1533 18.9369 56.4307 19.1415 56.6353C19.346 56.8398 19.6234 56.9547 19.9126 56.9547ZM6.40824 15.7036C6.40809 13.0326 7.19999 10.4216 8.68378 8.20075C10.1676 5.97987 12.2766 4.24887 14.7442 3.22664C17.2118 2.20441 19.9271 1.93688 22.5467 2.45787C25.1664 2.97885 27.5727 4.26496 29.4614 6.15356C31.3501 8.04215 32.6363 10.4484 33.1575 13.068C33.6786 15.6876 33.4112 18.4029 32.3891 20.8706C31.367 23.3382 29.6361 25.4474 27.4153 26.9313C25.1945 28.4152 22.5836 29.2072 19.9126 29.2072C16.3323 29.2034 12.8998 27.7795 10.3681 25.2479C7.83638 22.7163 6.41228 19.2839 6.40824 15.7036Z" fill="#F2F6FF"/>
<path d="M19.8116 63.9999C29.4153 63.9999 39.6232 61.3098 39.6232 56.3171C39.6232 52.1001 32.522 49.7612 25.876 48.9789C25.5887 48.9451 25.2997 49.0269 25.0727 49.2062C24.8457 49.3855 24.6992 49.6477 24.6654 49.935C24.6317 50.2223 24.7135 50.5112 24.8928 50.7383C25.0721 50.9653 25.3342 51.1118 25.6215 51.1455C33.2993 52.0485 37.442 54.4842 37.442 56.3171C37.442 58.6139 30.7349 61.8187 19.8116 61.8187C8.88829 61.8187 2.18117 58.6139 2.18117 56.3171C2.18117 54.5772 6.07166 52.2056 13.2826 51.2364C13.5694 51.1978 13.829 51.0469 14.0045 50.8169C14.18 50.5869 14.2569 50.2966 14.2183 50.0099C14.1798 49.7231 14.0289 49.4635 13.7989 49.288C13.5688 49.1125 13.2785 49.0356 12.9918 49.0741C6.71075 49.919 0 52.2645 0 56.3171C0 61.3098 10.2079 63.9999 19.8116 63.9999Z" fill="#F2F6FF"/>
<path d="M29.3733 15.7037C29.3733 15.9929 29.4882 16.2703 29.6928 16.4748C29.8973 16.6794 30.1747 16.7943 30.4639 16.7943C30.7532 16.7943 31.0306 16.6794 31.2351 16.4748C31.4396 16.2703 31.5545 15.9929 31.5545 15.7037C31.551 12.6172 30.3234 9.65808 28.1409 7.4756C25.9584 5.29312 22.9993 4.06548 19.9129 4.06201C19.6236 4.06201 19.3462 4.17691 19.1417 4.38144C18.9372 4.58596 18.8223 4.86336 18.8223 5.1526C18.8223 5.44184 18.9372 5.71924 19.1417 5.92376C19.3462 6.12829 19.6236 6.24319 19.9129 6.24319C22.421 6.24607 24.8257 7.24373 26.5992 9.01728C28.3728 10.7908 29.3704 13.1955 29.3733 15.7037Z" fill="#F2F6FF"/>
</svg>
