<svg width="21" height="21" viewBox="0 0 21 21" fill="none" xmlns="http://www.w3.org/2000/svg">
<path d="M6.39453 10.6751C7.23062 12.4017 8.62675 13.7942 10.3555 14.6259C10.483 14.6863 10.624 14.7124 10.7647 14.7017C10.9054 14.691 11.0409 14.6439 11.1578 14.5649L13.6969 12.8688C13.8091 12.7928 13.9387 12.7463 14.0737 12.7339C14.2086 12.7215 14.3446 12.7434 14.4688 12.7978L19.2219 14.8392C19.3843 14.9068 19.52 15.0259 19.6081 15.1782C19.6962 15.3305 19.7318 15.5076 19.7094 15.6821C19.5587 16.858 18.9848 17.9386 18.095 18.7219C17.2052 19.5051 16.0604 19.9373 14.875 19.9376C11.2117 19.9376 7.69844 18.4824 5.10809 15.892C2.51774 13.3017 1.0625 9.7884 1.0625 6.12509C1.06277 4.93965 1.49497 3.79493 2.27823 2.90511C3.06149 2.0153 4.14214 1.44137 5.31797 1.29072C5.49249 1.2683 5.66955 1.30388 5.82187 1.39196C5.97419 1.48005 6.09333 1.61577 6.16094 1.77822L8.20234 6.5415C8.25543 6.66373 8.27764 6.79714 8.26701 6.92997C8.25639 7.06281 8.21325 7.19099 8.14141 7.30322L6.44531 9.88291C6.3698 9.99958 6.32548 10.1337 6.31659 10.2724C6.3077 10.4111 6.33454 10.5497 6.39453 10.6751Z" stroke="white" stroke-width="1.5" stroke-linecap="round" stroke-linejoin="round"/>
</svg>
