<svg width="26" height="25" viewBox="0 0 26 25" fill="none" xmlns="http://www.w3.org/2000/svg">
<path d="M21.0076 24.1832C20.1017 24.8285 14.2889 20.7382 13.1756 20.7292C12.0624 20.7203 6.18416 24.7165 5.28881 24.0568C4.39347 23.397 6.49838 16.6205 6.16294 15.562C5.82749 14.5035 0.199478 10.1637 0.552021 9.1107C0.904641 8.0577 8.0183 7.9599 8.92422 7.31463C9.83014 6.66944 12.2301 -0.00890361 13.3434 8.91246e-06C14.4566 0.00899893 16.7482 6.72509 17.6435 7.38485C18.5389 8.04453 25.6501 8.25688 25.9856 9.31537C26.3211 10.3739 20.6236 14.6225 20.271 15.6755C19.9185 16.7285 21.9135 23.538 21.0076 24.1832Z" fill="#F6DE27"/>
</svg>
