<?xml version="1.0" encoding="utf-8"?><svg viewBox="0 0 72 71" xmlns="http://www.w3.org/2000/svg" xmlns:xlink="http://www.w3.org/1999/xlink"><style>:root>svg{display:none}:root>svg:target{display:block}</style><svg fill="none" viewBox="0 0 49 71" id="advantages-1-icon" xmlns="http://www.w3.org/2000/svg"><path d="M24.116.29a8.79 8.79 0 0 0-8.406 8.652v3.327A14.615 14.615 0 0 0 9.9 23.29v2.797a14.6 14.6 0 0 0 8.638 13.325v.155a4.535 4.535 0 0 1-2.876 4.218L4.651 48.119A7.342 7.342 0 0 0 0 54.952v13.517a2.252 2.252 0 0 0 2.252 2.25h44.496A2.252 2.252 0 0 0 49 68.469V54.952a7.341 7.341 0 0 0-4.654-6.833l-11.012-4.335a4.532 4.532 0 0 1-2.873-4.218v-.155a14.597 14.597 0 0 0 8.638-13.325V23.29a14.613 14.613 0 0 0-5.811-11.02V8.941A8.786 8.786 0 0 0 24.116.29Zm.607.978a7.677 7.677 0 0 1 7.456 7.674v2.57a14.611 14.611 0 0 0-15.358 0v-2.57a7.68 7.68 0 0 1 7.902-7.674Zm.098 9.177a13.5 13.5 0 0 1 13.161 12.87v2.327a18.275 18.275 0 0 1-17.828-6.151 2.026 2.026 0 0 0-3.113 0 31.103 31.103 0 0 1-6.034 5.55v-1.727a13.501 13.501 0 0 1 13.814-12.87Zm-6.244 9.427a.918.918 0 0 1 .724.332 19.385 19.385 0 0 0 18.665 6.574 13.487 13.487 0 0 1-26.954-.397 32.207 32.207 0 0 0 6.88-6.177.917.917 0 0 1 .685-.332Zm1.055 19.98a14.602 14.602 0 0 0 9.715 0 5.644 5.644 0 0 0 3.573 4.967l.125.051-8.557 8.475-8.56-8.475.126-.051a5.642 5.642 0 0 0 3.569-4.967h.01Zm-4.824 5.462 9.006 8.916a.98.98 0 0 0 .126.106V69.61H2.25a1.142 1.142 0 0 1-1.14-1.141V54.95a6.229 6.229 0 0 1 3.948-5.797l6.571-2.587v2.802a4.069 4.069 0 0 0-3.412 3.129l-1.914 8.43a1.805 1.805 0 0 0 .422 1.613c.494.544 1.13.94 1.835 1.146a1.201 1.201 0 1 0 .164-1.111 2.868 2.868 0 0 1-1.174-.782.693.693 0 0 1-.162-.618l1.914-8.43a2.956 2.956 0 0 1 5.765 0l1.914 8.43a.693.693 0 0 1-.163.618 2.862 2.862 0 0 1-1.18.782 1.203 1.203 0 1 0 .163 1.111 3.975 3.975 0 0 0 1.84-1.146 1.806 1.806 0 0 0 .42-1.612l-1.914-8.431a4.067 4.067 0 0 0-3.41-3.129v-3.24l2.071-.815Zm19.375 0 3.211 1.264v5.743a4.367 4.367 0 1 0 1.108 0v-5.307l5.438 2.14a6.23 6.23 0 0 1 3.944 5.797V68.47a1.142 1.142 0 0 1-1.139 1.141H25.053V54.336a.973.973 0 0 0 .125-.106l9.005-8.916Zm3.669 8.083a3.262 3.262 0 0 1 3.094 1.988 3.258 3.258 0 1 1-3.094-1.988Z" fill="#F2F6FF"/></svg><svg fill="none" viewBox="0 0 54 71" id="advantages-2-icon" xmlns="http://www.w3.org/2000/svg"><path d="M41.68 17.582c-.094-.825-.657-4.923-2.66-7.231-.07-1.404-.736-7.274-6.908-9.7C25.797-1.832 21.41 3.5 20.5 4.735c-2.281.426-4.278 1.202-5.672 2.25-4.815 3.624-5.535 10.33-3.494 14.9-1.145 2.946-1.389 5.495-1.173 6.87.375 2.388 2.222 3.054 3.542 3.099a14.444 14.444 0 0 0 13.845 10.301c6.588 0 12.323-4.43 13.99-10.786 2.573-4.503 2.62-9.14.143-13.788Zm-.711 11.6c-1.87-4.588-5.593-8.09-11.096-10.453 3.117-.633 6.647-.702 10.596-.226 1.878 3.644 2.048 7.156.5 10.678ZM31.565 2.045c3.956 1.555 5.284 4.669 5.733 6.69-3.802-3.505-9.59-4.702-14.593-4.293 1.587-1.645 4.757-4.008 8.86-2.397ZM15.73 8.185c1.289-.971 3.154-1.674 5.274-2.057a.727.727 0 0 0 .179-.033c3.938-.67 8.73-.198 12.508 1.893-4.168-.65-10.089-.014-15.116 4.096-3.026 2.475-5.049 5.243-6.364 7.846-1.092-3.869-.186-8.956 3.519-11.745Zm-4.088 20.337c-.19-1.211.07-3.599 1.204-6.374l.014-.035c1.162-2.83 3.232-6.062 6.665-8.868 3.68-3.009 7.849-3.963 11.274-3.963 2.887 0 5.246.678 6.334 1.378 1.741 1.12 2.618 4.354 2.943 6.28-4.829-.52-9.092-.207-12.78.933a.745.745 0 0 0-.203.072c-6.016 1.922-10.484 6.064-13.34 12.413-.674-.015-1.866-.27-2.111-1.836Zm15.905 12.134c-5.85 0-10.947-3.9-12.493-9.511 2.676-6.052 6.772-9.951 12.375-11.763 6.815 2.423 10.948 6.259 12.626 11.714a12.948 12.948 0 0 1-12.508 9.56ZM3.723 54.112c.606-2.122 1.36-4.763.826-8.204-.417-2.686-1.103-4.194-1.707-5.525-.531-1.17-.99-2.178-1.203-3.827-.457-3.56.36-9.323.37-9.38a.749.749 0 0 0-.636-.85.747.747 0 0 0-.848.636c-.035.244-.856 6.02-.373 9.786.24 1.873.767 3.03 1.324 4.256.593 1.303 1.205 2.651 1.591 5.135.484 3.116-.19 5.479-.786 7.563-.305 1.07-.594 2.08-.677 3.06-.234 2.774 1.127 6.42 1.185 6.574a.75.75 0 0 0 1.404-.529c-.013-.034-1.299-3.479-1.094-5.92.07-.834.327-1.733.624-2.775ZM9.097 36.425c-.41-.958-.796-1.864-1.026-3.302-.415-2.606.58-6.108.59-6.143a.75.75 0 1 0-1.44-.416c-.046.156-1.1 3.857-.63 6.795.257 1.622.72 2.703 1.126 3.656.329.771.64 1.5.83 2.462.458 2.314-.435 4.515-.444 4.536a.75.75 0 0 0 1.383.579c.044-.107 1.08-2.633.532-5.406-.22-1.118-.577-1.952-.921-2.76ZM51.748 26.327a.75.75 0 0 0-.635.849c.008.057.827 5.82.369 9.38-.212 1.65-.671 2.66-1.202 3.828-.605 1.33-1.29 2.838-1.707 5.524-.534 3.442.22 6.082.825 8.204.297 1.042.554 1.941.625 2.774.204 2.435-1.08 5.885-1.093 5.92a.75.75 0 0 0 1.403.529c.059-.154 1.418-3.8 1.184-6.575-.082-.979-.371-1.99-.677-3.06-.595-2.084-1.27-4.446-.785-7.563.385-2.482.998-3.83 1.591-5.134.557-1.226 1.083-2.384 1.324-4.257.485-3.764-.337-9.542-.372-9.786a.749.749 0 0 0-.85-.633ZM44.972 26.05a.751.751 0 0 0-.513.93c.01.034 1.005 3.537.59 6.142-.229 1.439-.616 2.344-1.025 3.303-.344.808-.701 1.642-.922 2.759-.55 2.773.486 5.3.53 5.406a.748.748 0 0 0 .98.402.751.751 0 0 0 .405-.98c-.01-.022-.903-2.224-.445-4.537.19-.962.502-1.691.83-2.462.407-.953.869-2.034 1.127-3.656.468-2.938-.585-6.638-.63-6.795a.748.748 0 0 0-.927-.511Z" fill="#F2F6FF"/><path d="M25.245 41.509c.5 1.375-1.124 4.124-7.123 4.124-5.248 0-10.122 3.374-10.121 7.497v16.127c0 .414.335.743.75.743h36.384a.741.741 0 0 0 .748-.72c.071-2.817.303-13.14-.02-17.65-.374-5.248-8.853-5.997-12.227-5.997-2.277 0-3.636-1.542-3.636-4.124" stroke="#F2F6FF" stroke-width="1.5"/></svg><svg fill="none" viewBox="0 0 65 55" id="advantages-3-icon" xmlns="http://www.w3.org/2000/svg"><path d="M22.75 36.213a1.366 1.366 0 0 0-.51-1.9l-.394-.219a1.799 1.799 0 0 1-.929-1.606l.009-.454a1.365 1.365 0 0 0-1.39-1.39l-.454.009a1.798 1.798 0 0 1-1.606-.928l-.218-.395a1.365 1.365 0 0 0-1.9-.509l-.385.233a1.798 1.798 0 0 1-1.858 0l-.385-.233a1.364 1.364 0 0 0-1.9.509l-.219.395a1.798 1.798 0 0 1-1.606.928l-.454-.008a1.365 1.365 0 0 0-1.39 1.39l.009.453a1.798 1.798 0 0 1-.929 1.606l-.394.218a1.366 1.366 0 0 0-.509 1.9l.233.386a1.797 1.797 0 0 1 0 1.858l-.233.385a1.366 1.366 0 0 0 .509 1.9l.395.218a1.798 1.798 0 0 1 .928 1.607l-.008.453a1.365 1.365 0 0 0 1.39 1.39l.453-.008a1.797 1.797 0 0 1 1.606.928l.218.394a1.366 1.366 0 0 0 1.9.51l.386-.233a1.798 1.798 0 0 1 1.858 0l.385.232a1.366 1.366 0 0 0 1.9-.509l.218-.394a1.797 1.797 0 0 1 1.607-.928l.453.008a1.366 1.366 0 0 0 1.39-1.39l-.008-.453a1.797 1.797 0 0 1 .928-1.607l.394-.218a1.366 1.366 0 0 0 .51-1.9l-.233-.385a1.797 1.797 0 0 1 0-1.858l.232-.385Zm-8.706 6.797a5.445 5.445 0 1 1 0-10.89 5.445 5.445 0 0 1 0 10.89ZM17.622 7.941h29.612a.857.857 0 0 1 .858.857v2.969a.857.857 0 0 1-.858.857H17.622a.857.857 0 0 1-.857-.857V8.798a.859.859 0 0 1 .857-.857ZM56.695 17.947H8.162a.466.466 0 1 0 0 .932h48.533a.466.466 0 0 0 0-.932ZM56.695 24.86H8.162a.466.466 0 1 0 0 .932h48.533a.466.466 0 1 0 0-.933ZM56.695 31.576h-32.16a.466.466 0 1 0 0 .932h32.16a.466.466 0 0 0 0-.932ZM50.977 42.532H37.722a.466.466 0 1 0 0 .932h13.255a.466.466 0 1 0 0-.932ZM40.972 41.232a1.32 1.32 0 0 0 1.254-.904l.533-1.604.386 1.513a1.322 1.322 0 0 0 2.418.348l.547-.923.432.848a1.316 1.316 0 0 0 1.178.722h.789a.466.466 0 1 0 0-.932h-.789a.387.387 0 0 1-.347-.213l-.548-1.076a.792.792 0 0 0-1.386-.045l-.678 1.143a.389.389 0 0 1-.713-.102l-.504-1.978a.791.791 0 0 0-1.518-.054l-.684 2.058a.39.39 0 0 1-.37.267h-2.686a.466.466 0 1 0 0 .932h2.686Z" fill="#F2F6FF"/><path d="M62.698 0H2.158A2.16 2.16 0 0 0 0 2.158v43.754a2.16 2.16 0 0 0 2.158 2.158h3.476L3.88 50.608a.795.795 0 0 0 .602 1.245l2.494.163a.416.416 0 0 1 .352.243l1.034 2.275a.796.796 0 0 0 1.378.123l4.304-6.228 4.303 6.228a.794.794 0 0 0 1.378-.123l1.034-2.275a.417.417 0 0 1 .352-.243l2.494-.163a.796.796 0 0 0 .602-1.245l-1.753-2.538H53.48a1.487 1.487 0 0 0 1.057-.438l9.881-9.88a1.486 1.486 0 0 0 .438-1.059V2.158A2.16 2.16 0 0 0 62.698 0Zm-8.326 41.015v-2.04a1.39 1.39 0 0 1 1.39-1.389h3.343a9.501 9.501 0 0 0-4.733 3.43Zm9.552-4.361h-8.163a2.324 2.324 0 0 0-2.321 2.321v8.163H21.81l-.966-1.398a.466.466 0 1 0-.767.53l3.225 4.668-2.252.148a1.348 1.348 0 0 0-1.14.788l-.933 2.054-4.55-6.584a.467.467 0 0 0-.767 0l-4.55 6.584-.933-2.055a1.347 1.347 0 0 0-1.14-.787l-2.252-.148L8.01 46.27a.466.466 0 0 0-.767-.53l-.966 1.398h-4.12a1.227 1.227 0 0 1-1.226-1.226V2.158A1.227 1.227 0 0 1 2.158.932h60.54a1.227 1.227 0 0 1 1.226 1.226v34.496Z" fill="#F2F6FF"/></svg><svg fill="none" viewBox="0 0 69 59" id="advantages-4-icon" xmlns="http://www.w3.org/2000/svg"><path fill-rule="evenodd" clip-rule="evenodd" d="M28.387 37.448v-3.276a.966.966 0 0 1 1.931 0v3.276a.966.966 0 0 1-1.93 0Zm-6.423 0v-3.276a.966.966 0 0 1 1.931 0v3.276a.966.966 0 0 1-1.93 0Zm-6.423 0v-3.276a.966.966 0 0 1 1.932 0v3.276a.967.967 0 0 1-1.932 0Zm-6.423 0v-3.276a.966.966 0 0 1 1.931 0v3.276a.966.966 0 0 1-1.93 0Zm1.805-21.417c0-.306.258-.566.565-.566h17.526c.306 0 .565.26.565.566v4.594a.573.573 0 0 1-.566.565H11.489a.573.573 0 0 1-.565-.565V16.03Zm.565 7.091h17.526a2.5 2.5 0 0 0 2.497-2.497V16.03a2.5 2.5 0 0 0-2.497-2.497H11.488a2.5 2.5 0 0 0-2.497 2.497v4.594a2.5 2.5 0 0 0 2.497 2.497Zm53.434 7.396-.042.025v-5.311l.996 1.726a2.61 2.61 0 0 1-.954 3.56Zm-4.58 12.09H48.67V30.345c2.615 2.313 5.77 3.734 9.41 4.228a.966.966 0 1 0 .26-1.914c-3.263-.443-6.003-1.656-8.318-3.692h12.925v11.034a2.61 2.61 0 0 1-2.607 2.607ZM19.537 56.72a2.615 2.615 0 0 1-3.562-.954L9.494 44.539h31.143l-21.1 12.182Zm-14.21-16.72a2.61 2.61 0 0 0 2.608 2.607h38.803V30.345c-2.614 2.313-5.77 3.734-9.41 4.228a.966.966 0 1 1-.26-1.914c3.264-.443 6.003-1.656 8.318-3.692H5.33v11.034ZM2.28 32.044a2.611 2.611 0 0 1 .954-3.562l.164-.095v5.593l-1.118-1.936Zm43.811-5.63-4.66-1.628c-2.114-.857-3.216-2.16-3.025-3.58.16-1.197 1.225-2.242 2.424-2.381 1.47-.173 2.808 1.022 3.665 3.262l1.596 4.327ZM7.936 10a2.61 2.61 0 0 0-2.607 2.606v14.43h36.685l-1.286-.451c-2.967-1.193-4.551-3.302-4.238-5.637.277-2.064 2.047-3.801 4.116-4.043 2.382-.277 4.512 1.406 5.696 4.503l.437 1.187V10H7.936ZM48.618 2.28a2.618 2.618 0 0 1 3.562.954L54.97 8.07h-16.38l10.027-5.79Zm.702 24.135 1.593-4.316c1.94-5.164 5.773-3.27 6.093-.892.19 1.42-.912 2.723-3.025 3.58l-4.66 1.628ZM62.95 12.606A2.61 2.61 0 0 0 60.34 10h-11.67v12.595l.434-1.175c1.187-3.109 3.318-4.79 5.7-4.515 2.068.242 3.838 1.979 4.115 4.043.314 2.335-1.27 4.444-4.238 5.637l-1.286.451h9.553v-14.43Zm4.6 13.385-2.669-4.623v-8.762a4.543 4.543 0 0 0-4.539-4.537h-3.14l-3.349-5.802a4.546 4.546 0 0 0-6.2-1.66L34.727 8.068H7.936a4.543 4.543 0 0 0-4.539 4.537v13.551l-1.13.651C.082 28.07-.632 30.862.608 33.01l2.79 4.833V40a4.546 4.546 0 0 0 3.835 4.486l7.071 12.247a4.546 4.546 0 0 0 6.2 1.66L44.5 44.54h15.841a4.544 4.544 0 0 0 4.54-4.538v-7.227l1.007-.582a4.548 4.548 0 0 0 1.661-6.2Z" fill="#F2F6FF"/></svg><svg fill="none" viewBox="0 0 72 63" id="advantages-5-icon" xmlns="http://www.w3.org/2000/svg"><path d="M14.82 11.7c0 .387.193.7.58.94.387.227.853.413 1.4.56a19 19 0 0 1 1.64.48c.547.173 1.013.48 1.4.92.387.427.58.98.58 1.66 0 .907-.353 1.633-1.06 2.18-.693.547-1.587.82-2.68.82-.973 0-1.807-.213-2.5-.64-.693-.427-1.187-.993-1.48-1.7l1.5-.86c.16.48.46.86.9 1.14.44.28.967.42 1.58.42.573 0 1.047-.107 1.42-.32.373-.227.56-.573.56-1.04 0-.387-.193-.693-.58-.92-.387-.24-.853-.427-1.4-.56a25.616 25.616 0 0 1-1.64-.5 3.297 3.297 0 0 1-1.4-.92c-.387-.427-.58-.973-.58-1.64 0-.867.333-1.58 1-2.14.68-.56 1.527-.84 2.54-.84.813 0 1.533.187 2.16.56.64.36 1.12.867 1.44 1.52l-1.46.82c-.36-.853-1.073-1.28-2.14-1.28-.493 0-.913.12-1.26.36-.347.227-.52.553-.52.98Zm8.642-4.52c-.333 0-.613-.113-.84-.34-.226-.227-.34-.5-.34-.82 0-.32.114-.593.34-.82.227-.24.507-.36.84-.36.32 0 .594.12.82.36.227.227.34.5.34.82 0 .32-.113.593-.34.82-.226.227-.5.34-.82.34ZM22.582 19V9h1.74v10h-1.74Zm9.575-10.26c1.173 0 2.113.373 2.82 1.12.707.733 1.06 1.733 1.06 3V19h-1.74v-6.04c0-.813-.22-1.44-.66-1.88-.44-.453-1.047-.68-1.82-.68-.867 0-1.567.273-2.1.82-.533.533-.8 1.36-.8 2.48V19h-1.74V9h1.74v1.44c.707-1.133 1.787-1.7 3.24-1.7Zm11.21 10.52c-1.508 0-2.76-.5-3.76-1.5-1-1.013-1.5-2.267-1.5-3.76 0-1.493.5-2.74 1.5-3.74 1-1.013 2.252-1.52 3.76-1.52.986 0 1.872.24 2.66.72a4.397 4.397 0 0 1 1.76 1.9l-1.46.84a2.948 2.948 0 0 0-1.18-1.28c-.52-.32-1.114-.48-1.78-.48-1 0-1.84.34-2.52 1.02-.668.68-1 1.527-1 2.54 0 1 .332 1.84 1 2.52.68.68 1.52 1.02 2.52 1.02.666 0 1.266-.153 1.8-.46.532-.32.94-.747 1.22-1.28l1.48.86a4.932 4.932 0 0 1-1.84 1.9c-.8.467-1.688.7-2.66.7Zm7.5-4.46c.174.893.58 1.587 1.22 2.08.654.493 1.454.74 2.4.74 1.32 0 2.28-.487 2.88-1.46l1.48.84c-.973 1.507-2.44 2.26-4.4 2.26-1.586 0-2.88-.493-3.88-1.48-.986-1-1.48-2.26-1.48-3.78 0-1.507.487-2.76 1.46-3.76.974-1 2.234-1.5 3.78-1.5 1.467 0 2.66.52 3.58 1.56.934 1.027 1.4 2.267 1.4 3.72 0 .253-.02.513-.06.78h-8.38Zm3.46-4.42c-.933 0-1.706.267-2.32.8-.613.52-.993 1.22-1.14 2.1h6.68c-.146-.947-.52-1.667-1.12-2.16-.6-.493-1.3-.74-2.1-.74ZM1.023 55v-2.97l8.052-8.217c1.958-1.958 2.937-3.652 2.937-5.082 0-1.122-.341-1.991-1.023-2.607-.66-.638-1.507-.957-2.541-.957-1.936 0-3.366.957-4.29 2.871L.957 36.157c.726-1.54 1.749-2.706 3.069-3.498 1.32-.792 2.783-1.188 4.389-1.188 2.024 0 3.762.638 5.214 1.914 1.452 1.276 2.178 3.014 2.178 5.214 0 2.354-1.309 4.862-3.927 7.524l-5.214 5.214h9.57V55H1.023Zm33.512-2.838c-1.583 2.178-3.805 3.267-6.665 3.267s-5.094-1.089-6.7-3.267c-1.584-2.178-2.376-5.082-2.376-8.712s.793-6.534 2.377-8.712c1.605-2.178 3.838-3.267 6.698-3.267 2.86 0 5.083 1.089 6.666 3.267 1.607 2.178 2.41 5.082 2.41 8.712s-.803 6.534-2.41 8.712Zm-6.665-.429c1.715 0 3.024-.715 3.927-2.145.902-1.43 1.353-3.476 1.353-6.138s-.451-4.708-1.353-6.138c-.902-1.43-2.212-2.145-3.928-2.145-1.694 0-3.003.715-3.927 2.145-.901 1.43-1.352 3.476-1.352 6.138s.45 4.708 1.352 6.138c.924 1.43 2.233 2.145 3.927 2.145ZM44.447 31.9h3.3V55h-3.795V35.959l-4.653 1.32-.924-3.234 6.072-2.145Zm23.168 20.262c-1.584 2.178-3.805 3.267-6.665 3.267s-5.094-1.089-6.7-3.267c-1.584-2.178-2.376-5.082-2.376-8.712s.792-6.534 2.377-8.712c1.605-2.178 3.839-3.267 6.699-3.267s5.081 1.089 6.665 3.267c1.607 2.178 2.41 5.082 2.41 8.712s-.803 6.534-2.41 8.712Zm-6.665-.429c1.715 0 3.024-.715 3.926-2.145.902-1.43 1.353-3.476 1.353-6.138s-.45-4.708-1.353-6.138c-.902-1.43-2.21-2.145-3.927-2.145-1.694 0-3.002.715-3.926 2.145-.903 1.43-1.354 3.476-1.354 6.138s.452 4.708 1.354 6.138c.923 1.43 2.232 2.145 3.926 2.145Z" fill="#F2F6FF"/></svg><svg fill="none" viewBox="0 0 40 64" id="advantages-6-icon" xmlns="http://www.w3.org/2000/svg"><path d="M19.913 56.955a1.09 1.09 0 0 0 1.09-1.09V31.332a15.685 15.685 0 1 0-2.181 0v24.531a1.09 1.09 0 0 0 1.09 1.09ZM6.408 15.704a13.504 13.504 0 1 1 13.505 13.503A13.518 13.518 0 0 1 6.408 15.704Z" fill="#F2F6FF"/><path d="M19.812 64c9.603 0 19.811-2.69 19.811-7.683 0-4.217-7.101-6.556-13.747-7.338a1.09 1.09 0 1 0-.255 2.166c7.678.903 11.821 3.34 11.821 5.172 0 2.297-6.707 5.502-17.63 5.502-10.924 0-17.63-3.205-17.63-5.502 0-1.74 3.89-4.111 11.1-5.08a1.091 1.091 0 0 0-.29-2.163C6.71 49.92 0 52.264 0 56.317 0 61.31 10.208 64 19.812 64ZM29.373 15.704a1.09 1.09 0 1 0 2.181 0A11.655 11.655 0 0 0 19.913 4.062a1.09 1.09 0 1 0 0 2.181 9.471 9.471 0 0 1 9.46 9.46Z" fill="#F2F6FF"/></svg><svg fill="none" viewBox="0 0 21 21" id="phone-icon" xmlns="http://www.w3.org/2000/svg"><path d="M6.395 10.675a8.49 8.49 0 0 0 3.96 3.95.812.812 0 0 0 .803-.06l2.539-1.696a.803.803 0 0 1 .772-.071l4.753 2.041a.802.802 0 0 1 .487.843 4.875 4.875 0 0 1-4.834 4.256A13.812 13.812 0 0 1 1.062 6.125a4.875 4.875 0 0 1 4.256-4.834.802.802 0 0 1 .843.487l2.041 4.763a.812.812 0 0 1-.06.762l-1.697 2.58a.813.813 0 0 0-.05.792Z" stroke="#fff" stroke-width="1.5" stroke-linecap="round" stroke-linejoin="round"/></svg></svg>