<svg width="91" height="100" viewBox="0 0 91 100" fill="none" xmlns="http://www.w3.org/2000/svg">
<path d="M87.4297 29.9385V93.2111C87.4298 93.9975 87.2877 94.7761 87.0117 95.5026C86.7356 96.2292 86.331 96.8893 85.821 97.4453C85.3109 98.0014 84.7053 98.4424 84.0389 98.7433C83.3724 99.0443 82.6581 99.1991 81.9368 99.199H9.06351C8.34215 99.1991 7.62785 99.0443 6.96139 98.7433C6.29494 98.4424 5.68938 98.0014 5.1793 97.4453C4.66922 96.8893 4.26462 96.2292 3.98859 95.5026C3.71256 94.7761 3.57051 93.9975 3.57056 93.2111V29.9385H87.4297Z" fill="#F97AC5"/>
<path d="M79.1903 29.9385V76.844C79.1903 81.1849 77.6084 85.3479 74.7927 88.4173C71.9771 91.4867 68.1582 93.2111 64.1762 93.2111H3.57056C3.57056 94.7992 4.14928 96.3223 5.17941 97.4452C6.20954 98.5682 7.60669 99.199 9.06351 99.199H81.9368C82.6581 99.199 83.3724 99.0442 84.0388 98.7432C84.7053 98.4423 85.3108 98.0012 85.8209 97.4452C86.3309 96.8892 86.7355 96.2291 87.0116 95.5026C87.2876 94.7761 87.4297 93.9974 87.4297 93.2111V29.9385H79.1903Z" fill="#EF58B1"/>
<path d="M88.2535 14.8652H2.74648C1.22964 14.8652 0 16.2057 0 17.8592V26.9429C0 28.5964 1.22964 29.9369 2.74648 29.9369H88.2535C89.7704 29.9369 91 28.5964 91 26.9429V17.8592C91 16.2057 89.7704 14.8652 88.2535 14.8652Z" fill="#FED402"/>
<path d="M88.2535 14.8668H85.507C85.507 16.0597 85.2915 17.2409 84.8727 18.343C84.454 19.4451 83.8402 20.4465 83.0664 21.29C82.2926 22.1335 81.374 22.8026 80.3631 23.2591C79.3521 23.7156 78.2685 23.9505 77.1742 23.9505H72.2525C71.8413 23.9507 71.4342 23.8622 71.0544 23.6902C70.6747 23.5182 70.3299 23.2661 70.0399 22.9483C69.7498 22.6305 69.5203 22.2534 69.3644 21.8386C69.2085 21.4238 69.1294 20.9795 69.1316 20.5312C69.1572 15.3191 69.171 5.98869 69.171 5.98869C69.171 5.5211 69.0704 5.06002 68.8775 4.64239C68.6846 4.22477 68.4046 3.86221 68.06 3.58377C67.7154 3.30534 67.3158 3.11876 66.8932 3.039C66.4705 2.95923 66.0366 2.9885 65.6262 3.12445L49.8834 8.34195C50.7793 9.47886 51.2706 10.9289 51.2676 12.4277V13.1143L51.7217 12.785C51.924 12.6382 52.1714 12.585 52.4097 12.637C52.648 12.689 52.8576 12.8421 52.9924 13.0624L59.6434 23.9505H0V26.9445C0 27.7386 0.28936 28.5001 0.804425 29.0616C1.31949 29.623 2.01807 29.9385 2.74648 29.9385H88.2535C88.9819 29.9385 89.6805 29.623 90.1956 29.0616C90.7106 28.5001 91 27.7386 91 26.9445V17.8608C91 17.0667 90.7106 16.3052 90.1956 15.7437C89.6805 15.1823 88.9819 14.8668 88.2535 14.8668Z" fill="#FAC600"/>
<path d="M38.2677 29.9385H52.7325V99.199H38.2677V29.9385Z" fill="#FED402"/>
<path d="M38.2677 93.1442H52.7325V99.1975H38.2677V93.1442ZM38.2677 14.8652V37.5156L41.4545 32.2989C41.8983 31.5724 42.4998 30.9767 43.2057 30.5646C43.9115 30.1525 44.6998 29.9369 45.5005 29.9369C46.3012 29.9369 47.0895 30.1525 47.7954 30.5646C48.5013 30.9767 49.1028 31.5726 49.5466 32.2991L52.7325 37.5152V14.8652H38.2677Z" fill="#FAC600"/>
<path d="M38.2678 37.38L34.0748 44.3811C33.9884 44.5222 33.8705 44.6371 33.7321 44.7147C33.5937 44.7924 33.4394 44.8303 33.2838 44.8249C33.1282 44.8195 32.9765 44.771 32.8429 44.6839C32.7093 44.5968 32.5983 44.474 32.5203 44.3272L30.3762 40.2893C30.3057 40.1571 30.2083 40.0442 30.0914 39.9595C29.9746 39.8747 29.8415 39.8202 29.7024 39.8003L25.4582 39.2015C25.3037 39.1798 25.1569 39.1156 25.0316 39.0148C24.9064 38.914 24.8067 38.78 24.7422 38.6255C24.6777 38.471 24.6504 38.3012 24.6629 38.132C24.6754 37.9628 24.7273 37.7998 24.8137 37.6586L29.5305 29.9346L38.2711 34.5175L38.2678 37.38Z" fill="#EF58B1"/>
<path d="M47.2707 19.7845L47.1425 19.9961L45.5002 22.6827L45.2456 23.0999L34.0748 41.3871C33.9884 41.5282 33.8705 41.643 33.7321 41.7207C33.5937 41.7983 33.4394 41.8363 33.2838 41.8309C33.1282 41.8255 32.9765 41.7769 32.8429 41.6899C32.7093 41.6028 32.5983 41.48 32.5203 41.3332L30.3762 37.2953C30.3057 37.1631 30.2083 37.0502 30.0914 36.9654C29.9746 36.8806 29.8415 36.8262 29.7024 36.8063L25.4582 36.2075C25.3037 36.1858 25.1569 36.1215 25.0316 36.0207C24.9064 35.9199 24.8067 35.786 24.7422 35.6315C24.6777 35.477 24.6504 35.3071 24.6629 35.1379C24.6754 34.9687 24.7273 34.8058 24.8137 34.6646L31.213 24.1857L38.0078 13.0621C38.1426 12.8417 38.3522 12.6887 38.5904 12.6367C38.8287 12.5846 39.0762 12.6379 39.2785 12.7846L39.7325 13.114L42.0725 14.8126L45.5002 17.2996L47.0162 18.3993C47.2177 18.5469 47.3575 18.7753 47.4052 19.0348C47.4529 19.2943 47.4045 19.5638 47.2707 19.7845Z" fill="#46CC8D"/>
<path d="M65.542 39.2018L61.2978 39.8006C61.1587 39.8205 61.0256 39.875 60.9088 39.9598C60.7919 40.0445 60.6945 40.1574 60.624 40.2896L58.4799 44.3275C58.4019 44.4744 58.2909 44.5971 58.1573 44.6842C58.0237 44.7713 57.872 44.8198 57.7164 44.8252C57.5608 44.8306 57.4065 44.7927 57.2681 44.715C57.1297 44.6374 57.0118 44.5226 56.9254 44.3814L52.7324 37.5168V33.0203L49.986 29.9385H61.4717L66.1865 37.6589C66.2729 37.8002 66.3248 37.9631 66.3373 38.1323C66.3498 38.3015 66.3225 38.4713 66.258 38.6258C66.1935 38.7803 66.0938 38.9143 65.9686 39.0151C65.8433 39.1159 65.6965 39.1802 65.542 39.2018Z" fill="#EF58B1"/>
<path d="M52.7325 29.9385H50.8502L52.7325 33.0203V29.9385Z" fill="#FAC600"/>
<path d="M65.5421 36.2075L61.2979 36.8063C61.1587 36.8262 61.0257 36.8806 60.9088 36.9654C60.792 37.0502 60.6946 37.1631 60.6241 37.2953L58.48 41.3332C58.402 41.48 58.291 41.6028 58.1574 41.6899C58.0238 41.7769 57.872 41.8255 57.7165 41.8309C57.5609 41.8363 57.4066 41.7983 57.2682 41.7207C57.1298 41.643 57.0119 41.5282 56.9255 41.3871L45.7546 23.0999L45.5001 22.6827L43.8577 19.9961L43.7296 19.7845C43.5957 19.5638 43.5474 19.2943 43.5951 19.0348C43.6427 18.7753 43.7826 18.5469 43.9841 18.3993L45.5001 17.2996L48.9277 14.8126L51.2677 13.114L51.7218 12.7846C51.9241 12.6379 52.1716 12.5846 52.4098 12.6367C52.6481 12.6887 52.8577 12.8417 52.9925 13.0621L59.7873 24.1857L66.1866 34.6646C66.273 34.8058 66.3249 34.9687 66.3374 35.1379C66.3499 35.3071 66.3226 35.477 66.2581 35.6315C66.1936 35.786 66.0939 35.9199 65.9686 36.0207C65.8433 36.1215 65.6965 36.1858 65.5421 36.2075Z" fill="#46CC8D"/>
<path d="M41.1167 8.34195C40.2208 9.47886 39.7295 10.9289 39.7325 12.4277V13.1143L39.2784 12.785C39.0761 12.6382 38.8286 12.585 38.5904 12.637C38.3521 12.689 38.1425 12.8421 38.0077 13.0624L31.2129 24.1861L25.3739 26.1222C24.9635 26.2581 24.5296 26.2874 24.1069 26.2076C23.6843 26.1278 23.2846 25.9413 22.94 25.6628C22.5954 25.3844 22.3155 25.0218 22.1226 24.6042C21.9296 24.1866 21.8291 23.7255 21.8291 23.2579V5.98869C21.8291 5.5211 21.9296 5.06002 22.1226 4.64239C22.3155 4.22477 22.5954 3.86221 22.94 3.58377C23.2846 3.30534 23.6843 3.11876 24.1069 3.039C24.5296 2.95923 24.9635 2.9885 25.3739 3.12445L41.1167 8.34195Z" fill="#FAC600"/>
<path d="M48.9276 10.9296V18.3147L47.3492 18.8377L45.5 19.4505L43.8576 19.9954L41.1166 20.9035L31.2128 24.1849L38.0076 13.0613C38.1424 12.8409 38.352 12.6879 38.5902 12.6359C38.8285 12.5839 39.076 12.6371 39.2783 12.7839L39.7323 13.1132V12.4266C39.7294 10.9278 40.2206 9.47773 41.1166 8.34082L45.5 9.7939L48.9276 10.9296Z" fill="#00C27A"/>
<path d="M60.4839 25.3256L47.1369 20.9035L44.3959 19.9954L42.7535 19.4505L40.9042 18.8377L39.3259 18.3147V10.9296L42.7535 9.7939L47.1369 8.34082C48.0328 9.47773 48.5241 10.9278 48.5211 12.4266V13.1132L48.9752 12.7839C49.3964 12.4785 52.7123 12.6022 52.9924 13.0613L60.4839 25.3256Z" fill="#00C27A"/>
<path d="M51.2678 12.4269V16.818C51.2675 18.4375 50.6942 19.9943 49.6672 21.1644C48.6402 22.3345 47.2387 23.0276 45.7547 23.0994H45.2456C43.7616 23.0276 42.3601 22.3345 41.3331 21.1644C40.3061 19.9943 39.7328 18.4375 39.7325 16.818V12.4269C39.7326 11.1833 40.071 9.9676 40.7049 8.93363C41.3388 7.89966 42.2397 7.09383 43.2937 6.61803C44.3478 6.14224 45.5076 6.01785 46.6264 6.26061C47.7453 6.50336 48.773 7.10235 49.5796 7.98183C49.6858 8.0976 49.7865 8.21736 49.8835 8.34111C50.7795 9.47802 51.2707 10.9281 51.2678 12.4269Z" fill="#00C27A"/>
<path d="M41.1057 17.9138L25.3741 23.1281C24.9636 23.2641 24.5296 23.2934 24.1069 23.2137C23.6841 23.1339 23.2844 22.9473 22.9398 22.6689C22.5951 22.3904 22.3151 22.0277 22.1221 21.61C21.9292 21.1923 21.8287 20.7311 21.8287 20.2635V2.99382C21.8288 2.52619 21.9293 2.06506 22.1222 1.64739C22.3151 1.22972 22.5952 0.867126 22.9398 0.588666C23.2844 0.310206 23.6841 0.123622 24.1068 0.0438656C24.5295 -0.0358905 24.9634 -0.00660054 25.3739 0.129388L41.1105 5.34529L48.927 7.93607" fill="#46CC8D"/>
<path d="M42.0728 15.3212L65.626 23.1281C66.0365 23.2641 66.4705 23.2934 66.8932 23.2137C67.3159 23.1339 67.7157 22.9473 68.0603 22.6689C68.405 22.3904 68.685 22.0277 68.8779 21.61C69.0709 21.1923 69.1714 20.7311 69.1713 20.2635V2.99382C69.1713 2.52619 69.0708 2.06506 68.8779 1.64739C68.6849 1.22972 68.4049 0.867126 68.0603 0.588666C67.7157 0.310206 67.316 0.123622 66.8933 0.0438656C66.4706 -0.0358905 66.0366 -0.00660054 65.6262 0.129388L42.0728 7.93587V15.3212Z" fill="#46CC8D"/>
<path d="M58.5461 13.1248H51.2676C50.9033 13.1248 50.5541 12.9671 50.2965 12.6864C50.039 12.4056 49.8943 12.0249 49.8943 11.6278C49.8943 11.2308 50.039 10.8501 50.2965 10.5693C50.5541 10.2886 50.9033 10.1309 51.2676 10.1309H58.5461C58.9103 10.1309 59.2596 10.2886 59.5171 10.5693C59.7746 10.8501 59.9193 11.2308 59.9193 11.6278C59.9193 12.0249 59.7746 12.4056 59.5171 12.6864C59.2596 12.9671 58.9103 13.1248 58.5461 13.1248ZM39.7323 13.1248H32.4538C32.0896 13.1248 31.7403 12.9671 31.4828 12.6864C31.2252 12.4056 31.0806 12.0249 31.0806 11.6278C31.0806 11.2308 31.2252 10.8501 31.4828 10.5693C31.7403 10.2886 32.0896 10.1309 32.4538 10.1309H39.7323C40.0965 10.1309 40.4458 10.2886 40.7034 10.5693C40.9609 10.8501 41.1056 11.2308 41.1056 11.6278C41.1056 12.0249 40.9609 12.4056 40.7034 12.6864C40.4458 12.9671 40.0965 13.1248 39.7323 13.1248Z" fill="#00C27A"/>
<path d="M51.2678 9.43187C51.2678 5.95947 48.6855 3.14453 45.5001 3.14453C42.3148 3.14453 39.7325 5.95947 39.7325 9.43187V13.823C39.7325 17.2954 42.3148 20.1104 45.5001 20.1104C48.6855 20.1104 51.2678 17.2954 51.2678 13.823V9.43187Z" fill="#08B865"/>
<path d="M47.9675 3.74922C48.333 4.58973 48.5221 5.50844 48.5212 6.43861V10.8298C48.5212 12.4973 47.9135 14.0965 46.8319 15.2756C45.7502 16.4547 44.2832 17.1171 42.7536 17.1171C41.9002 17.1182 41.0573 16.912 40.2861 16.5135C40.7535 17.5899 41.4916 18.4994 42.4146 19.1363C43.3377 19.7732 44.4077 20.1112 45.5 20.1111C47.0297 20.1111 48.4967 19.4487 49.5784 18.2696C50.66 17.0905 51.2677 15.4913 51.2677 13.8237V9.43258C51.2678 8.24178 50.9577 7.07543 50.3734 6.06926C49.7892 5.06308 48.9548 4.25866 47.9675 3.74922Z" fill="#09A755"/>
</svg>
