<svg width="68" height="20" viewBox="0 0 68 20" fill="none" xmlns="http://www.w3.org/2000/svg">
<path d="M64.4427 16.9941C65.7688 16.9941 66.708 16.7548 67.4079 16.2392V13.901C66.6896 14.3981 65.824 14.7111 64.6085 14.7111C62.5641 14.7111 61.7169 13.1277 61.7169 10.6238C61.7169 7.99097 62.7483 6.64694 64.6269 6.64694C65.7319 6.64694 66.8186 7.03358 67.3895 7.4018V4.97151C66.7817 4.6401 65.7319 4.40076 64.2954 4.40076C60.6303 4.40076 58.7333 7.03358 58.7333 10.7158C58.7517 14.7479 60.6119 16.9941 64.4427 16.9941ZM46.5225 15.9263V13.588C45.6385 14.1956 44.1283 14.7295 42.7469 14.7295C40.6474 14.7295 39.8554 13.7353 39.7265 11.7101H46.6514V10.2003C46.6514 5.98413 44.7913 4.40076 41.9366 4.40076C38.4373 4.40076 36.7797 7.0704 36.7797 10.7343C36.7797 14.9505 38.8609 16.9941 42.5075 16.9941C44.3308 16.9941 45.6753 16.497 46.5225 15.9263ZM20.2408 4.62169V9.40864H16.41V4.62169H13.5369V16.7548H16.41V11.6916H20.2408V16.7548H23.1139V4.62169H20.2408ZM36.0614 14.4718H34.7906V4.62169H26.4291V5.65273C26.4291 8.61695 26.2449 12.4465 25.2319 14.4718H24.3111V19.5165H26.9632V16.7548H33.3909V19.5165H36.043V14.4718H36.0614ZM55.676 16.7548H58.9359L54.3315 10.2187L58.3834 4.62169H55.4918L51.44 10.2187V4.62169H48.5669V16.7548H51.44V10.7895L55.676 16.7548ZM41.8629 6.64694C43.281 6.64694 43.7231 7.82527 43.7231 9.35341V9.59275H39.7265C39.8001 7.65956 40.5 6.64694 41.8629 6.64694ZM31.9175 14.4718H27.8656C28.6576 12.649 28.8786 9.33499 28.8786 7.2361V6.86788H31.9175V14.4718Z" fill="black"/>
<path d="M11.1426 16.7543H8.21418V2.26459H6.90654C4.51228 2.26459 3.25989 3.46133 3.25989 5.24723C3.25989 7.27248 4.12551 8.21145 5.912 9.40819L7.3854 10.4024L3.14938 16.7543H0L3.81241 11.0836C1.62074 9.51866 0.386766 7.99052 0.386766 5.41293C0.386766 2.19095 2.6337 0 6.88813 0H11.1241V16.7543H11.1426Z" fill="#FC3F1D"/>
</svg>
