<svg width="58" height="81" viewBox="0 0 58 81" fill="none" xmlns="http://www.w3.org/2000/svg">
<path d="M28.8118 50.9914C27.6657 50.953 26.5728 50.4985 25.7375 49.7128C25.5773 49.5522 25.4836 49.337 25.4752 49.1103C25.4668 48.8835 25.5443 48.662 25.6922 48.49C25.8402 48.3179 26.0475 48.2081 26.273 48.1823C26.4984 48.1566 26.7252 48.217 26.9081 48.3513C28.2246 49.4839 29.399 49.4839 30.7155 48.3513C30.8984 48.217 31.1252 48.1566 31.3506 48.1823C31.5761 48.2081 31.7835 48.3179 31.9314 48.49C32.0793 48.662 32.1568 48.8835 32.1484 49.1103C32.14 49.337 32.0463 49.5522 31.8861 49.7128C31.0508 50.4985 29.9579 50.953 28.8118 50.9914Z" fill="black"/>
<path d="M35.7276 55.0203C35.6383 54.8629 35.4902 54.7473 35.3158 54.6991C35.1414 54.6508 34.955 54.6739 34.7976 54.763L34.676 54.8325C34.5262 54.9017 34.3668 54.9478 34.2033 54.9695C33.9748 55.005 33.7443 55.0254 33.5132 55.0306C33.0182 55.0393 32.5234 55.0066 32.0339 54.9328C31.9143 54.9148 31.3399 54.7708 31.2743 54.7579C31.0089 54.7036 30.735 54.7055 30.4704 54.7635C30.2057 54.8216 29.9562 54.9345 29.7378 55.0949C29.4573 55.2694 29.1404 55.3772 28.8117 55.4101C28.4824 55.3779 28.1648 55.2705 27.8836 55.0962C27.6653 54.9358 27.4157 54.8229 27.1511 54.7648C26.8864 54.7068 26.6125 54.7049 26.3471 54.7592C26.2828 54.772 25.7072 54.9161 25.5875 54.9341C25.098 55.0079 24.6032 55.0406 24.1083 55.0319C23.8771 55.0267 23.6466 55.0063 23.4182 54.9708C23.2546 54.9491 23.0952 54.903 22.9454 54.8338L22.8239 54.7643C22.6795 54.6818 22.5099 54.6549 22.347 54.6887C22.1841 54.7226 22.0393 54.8148 21.9397 54.948C21.8401 55.0812 21.7926 55.2462 21.8062 55.412C21.8198 55.5778 21.8935 55.7329 22.0135 55.848C22.2989 56.114 22.6408 56.3119 23.0136 56.4269C23.3176 56.5316 23.631 56.6066 23.9494 56.6507C24.5507 56.7562 25.1631 56.7841 25.7715 56.7337C26.0554 56.6756 26.3449 56.6497 26.6346 56.6565C26.8333 56.7028 26.9562 56.863 27.126 56.9614C27.3067 57.0677 27.4998 57.1515 27.701 57.2109C28.424 57.4296 29.1955 57.4296 29.9186 57.2109C30.1197 57.1515 30.3128 57.0677 30.4935 56.9614C30.6659 56.863 30.7862 56.7041 30.9849 56.6565C31.2746 56.6497 31.5641 56.6756 31.848 56.7337C32.4564 56.7841 33.0688 56.7562 33.6701 56.6507C33.9885 56.6066 34.3019 56.5316 34.6059 56.4269C34.9787 56.3119 35.3206 56.114 35.606 55.848C35.7152 55.7431 35.7863 55.6048 35.8083 55.455C35.8303 55.3051 35.8019 55.1522 35.7276 55.0203Z" fill="black"/>
<path d="M28.8388 60.8401C28.2993 60.837 27.7675 60.7115 27.2836 60.4729C27.0655 60.3549 26.9012 60.1574 26.8248 59.9215C26.7484 59.6855 26.7658 59.4293 26.8734 59.2058C26.981 58.9824 27.1705 58.8089 27.4026 58.7215C27.6346 58.6341 27.8914 58.6394 28.1197 58.7363C28.3414 58.8523 28.5879 58.9129 28.8381 58.9129C29.0883 58.9129 29.3348 58.8523 29.5565 58.7363C29.7848 58.6394 30.0416 58.6341 30.2737 58.7215C30.5058 58.8089 30.6952 58.9824 30.8028 59.2058C30.9104 59.4293 30.9278 59.6855 30.8514 59.9215C30.7751 60.1574 30.6107 60.3549 30.3926 60.4729C29.9091 60.7112 29.3778 60.8367 28.8388 60.8401Z" fill="black"/>
<path d="M23.6858 35.2155C22.5924 35.128 21.4675 35.0669 20.3503 34.9704C19.23 34.8939 18.1083 34.8032 16.9886 34.6636C16.9886 34.6636 15.728 34.5048 15.3061 34.4707C14.7915 34.4313 14.2751 34.4201 13.7593 34.4372C12.7038 34.5842 11.6827 34.9172 10.7435 35.4206L10.7139 35.4361C10.618 35.485 10.5073 35.4963 10.4035 35.4676C10.2998 35.4389 10.2106 35.3723 10.1535 35.2811C10.0964 35.1898 10.0756 35.0805 10.0951 34.9746C10.1147 34.8688 10.1732 34.7741 10.2592 34.7093C11.2338 33.9794 12.3431 33.4494 13.5232 33.1496C13.8268 33.0783 14.9382 32.9631 14.9382 32.9631L15.3684 32.9535L17.0895 32.9355C18.237 32.935 19.3834 33.0062 20.5221 33.1484C21.6773 33.2654 22.8218 33.4709 23.9456 33.7632C24.124 33.8112 24.278 33.924 24.3775 34.0796C24.477 34.2352 24.5148 34.4223 24.4835 34.6044C24.4522 34.7864 24.354 34.9502 24.2082 35.0636C24.0624 35.177 23.8795 35.2318 23.6954 35.2174L23.6858 35.2155Z" fill="black"/>
<path d="M36.4216 41.0823C36.8435 41.0958 37.2725 41.0823 37.697 41.0765C38.5201 41.0769 39.3414 40.9998 40.15 40.8463C40.921 40.7103 41.67 40.4706 42.3766 40.1336C42.3766 40.1336 42.6885 39.9683 42.7747 39.9343C42.9461 39.8656 43.127 39.824 43.3111 39.8108C43.6362 39.7872 43.9619 39.8472 44.2572 39.9851C44.613 40.1696 44.9807 40.3305 45.3576 40.4668L45.3763 40.4726C45.4616 40.4994 45.5361 40.5527 45.589 40.6247C45.6419 40.6968 45.6704 40.7839 45.6704 40.8733C45.6704 40.9627 45.6419 41.0497 45.589 41.1218C45.5361 41.1939 45.4616 41.2472 45.3763 41.274C44.8824 41.3957 44.3673 41.4034 43.87 41.2965C43.7506 41.2638 43.6241 41.2692 43.5079 41.3119C43.4693 41.3286 43.2294 41.5003 43.2294 41.5003C42.4086 42.0661 41.4761 42.4495 40.4947 42.6246C39.5584 42.8003 38.6029 42.8509 37.6532 42.7751C36.6978 42.7301 35.7534 42.5511 34.8478 42.2432C34.7015 42.1887 34.5802 42.0826 34.5068 41.9448C34.4334 41.807 34.4131 41.6471 34.4496 41.4953C34.4861 41.3435 34.5769 41.2104 34.7049 41.121C34.8329 41.0316 34.9892 40.9922 35.1443 41.0103C35.1443 41.0103 36.0055 41.0765 36.4216 41.0823Z" fill="black"/>
<path d="M21.2019 41.0823C20.78 41.0958 20.351 41.0823 19.9265 41.0765C19.1034 41.0769 18.2821 40.9998 17.4735 40.8463C16.7025 40.7103 15.9535 40.4706 15.2469 40.1336C15.2469 40.1336 14.935 39.9683 14.8488 39.9343C14.6774 39.8656 14.4965 39.824 14.3124 39.8108C13.9873 39.7872 13.6616 39.8472 13.3663 39.9851C13.0105 40.1696 12.6428 40.3305 12.2659 40.4668L12.2472 40.4726C12.1619 40.4994 12.0874 40.5527 12.0345 40.6247C11.9816 40.6968 11.9531 40.7839 11.9531 40.8733C11.9531 40.9627 11.9816 41.0497 12.0345 41.1218C12.0874 41.1939 12.1619 41.2472 12.2472 41.274C12.7411 41.3957 13.2562 41.4034 13.7535 41.2965C13.8729 41.2638 13.9994 41.2692 14.1156 41.3119C14.1542 41.3286 14.3941 41.5003 14.3941 41.5003C15.2149 42.0661 16.1474 42.4495 17.1288 42.6246C18.0651 42.8003 19.0206 42.8509 19.9703 42.7751C20.9257 42.7301 21.8701 42.5511 22.7757 42.2432C22.922 42.1887 23.0433 42.0826 23.1167 41.9448C23.1901 41.807 23.2104 41.6471 23.1739 41.4953C23.1374 41.3435 23.0466 41.2104 22.9186 41.121C22.7906 41.0316 22.6343 40.9922 22.4792 41.0103C22.4792 41.0103 21.618 41.0765 21.2019 41.0823Z" fill="black"/>
<path d="M33.6759 33.7626C34.7997 33.4703 35.9442 33.2647 37.0994 33.1477C38.2381 33.0055 39.3845 32.9344 40.532 32.9348L42.2531 32.9529L43.1663 32.9895C43.4805 33.0239 43.7924 33.0772 44.1002 33.149C45.2804 33.4489 46.3897 33.9792 47.3642 34.7093C47.4522 34.7734 47.5127 34.8684 47.5334 34.9752C47.5542 35.0821 47.5336 35.1928 47.476 35.2851C47.4183 35.3775 47.3278 35.4445 47.2227 35.4727C47.1176 35.501 47.0057 35.4884 46.9095 35.4374L46.8799 35.4213C45.9399 34.9173 44.918 34.5842 43.8616 34.4373C43.61 34.4102 43.357 34.3984 43.104 34.4019L42.318 34.4707L40.6355 34.6637C39.5158 34.8032 38.3941 34.8939 37.2737 34.9704C36.1566 35.0669 35.0343 35.128 33.9383 35.2155H33.9267C33.7426 35.2299 33.5597 35.175 33.4139 35.0616C33.2681 34.9482 33.17 34.7845 33.1387 34.6025C33.1073 34.4204 33.1451 34.2333 33.2446 34.0777C33.3441 33.9221 33.4982 33.8092 33.6765 33.7613L33.6759 33.7626Z" fill="black"/>
<path d="M28.8117 47.5082C28.6412 47.5082 28.4776 47.4404 28.357 47.3198C28.2363 47.1992 28.1686 47.0356 28.1686 46.865V45.643C28.1686 45.4724 28.2363 45.3089 28.357 45.1882C28.4776 45.0676 28.6412 44.9999 28.8117 44.9999C28.9823 44.9999 29.1459 45.0676 29.2665 45.1882C29.3871 45.3089 29.4549 45.4724 29.4549 45.643V46.865C29.4549 47.0356 29.3871 47.1992 29.2665 47.3198C29.1459 47.4404 28.9823 47.5082 28.8117 47.5082ZM28.8117 43.0704C28.6412 43.0704 28.4776 43.0026 28.357 42.882C28.2363 42.7614 28.1686 42.5978 28.1686 42.4272V41.1409C28.1686 40.9703 28.2363 40.8067 28.357 40.6861C28.4776 40.5655 28.6412 40.4978 28.8117 40.4978C28.9823 40.4978 29.1459 40.5655 29.2665 40.6861C29.3871 40.8067 29.4549 40.9703 29.4549 41.1409V42.4272C29.4549 42.5978 29.3871 42.7614 29.2665 42.882C29.1459 43.0026 28.9823 43.0704 28.8117 43.0704ZM28.8117 38.5683C28.6412 38.5683 28.4776 38.5005 28.357 38.3799C28.2363 38.2593 28.1686 38.0957 28.1686 37.9251V36.6388C28.1686 36.4682 28.2363 36.3046 28.357 36.184C28.4776 36.0634 28.6412 35.9957 28.8117 35.9957C28.9823 35.9957 29.1459 36.0634 29.2665 36.184C29.3871 36.3046 29.4549 36.4682 29.4549 36.6388V37.9251C29.4549 38.0957 29.3871 38.2593 29.2665 38.3799C29.1459 38.5005 28.9823 38.5683 28.8117 38.5683ZM28.8117 34.0662C28.6412 34.0662 28.4776 33.9984 28.357 33.8778C28.2363 33.7572 28.1686 33.5936 28.1686 33.423V32.1367C28.1686 31.9661 28.2363 31.8025 28.357 31.6819C28.4776 31.5613 28.6412 31.4935 28.8117 31.4935C28.9823 31.4935 29.1459 31.5613 29.2665 31.6819C29.3871 31.8025 29.4549 31.9661 29.4549 32.1367V33.423C29.4549 33.5936 29.3871 33.7572 29.2665 33.8778C29.1459 33.9984 28.9823 34.0662 28.8117 34.0662Z" fill="black"/>
<path d="M43.162 48.5314H43.1543C42.7124 48.525 42.2622 48.4992 41.8165 48.4555C41.7325 48.4471 41.6509 48.4221 41.5765 48.3822C41.5021 48.3422 41.4363 48.288 41.3829 48.2226C41.3294 48.1572 41.2894 48.0819 41.265 48.001C41.2406 47.9202 41.2325 47.8353 41.2409 47.7512C41.2493 47.6672 41.2743 47.5857 41.3142 47.5112C41.3542 47.4368 41.4084 47.371 41.4738 47.3176C41.5392 47.2641 41.6145 47.2241 41.6954 47.1997C41.7762 47.1754 41.8611 47.1672 41.9452 47.1756C42.3561 47.2161 42.7703 47.2399 43.1762 47.2451C43.3467 47.2463 43.5099 47.3152 43.6296 47.4366C43.7494 47.5581 43.816 47.7222 43.8148 47.8927C43.8136 48.0633 43.7447 48.2264 43.6233 48.3462C43.5018 48.466 43.3377 48.5326 43.1672 48.5314H43.162ZM46.3444 48.1622C46.1903 48.1627 46.0412 48.108 45.9241 48.0078C45.8071 47.9077 45.7298 47.7689 45.7064 47.6166C45.6831 47.4644 45.7151 47.3088 45.7968 47.1781C45.8785 47.0475 46.0043 46.9505 46.1514 46.9048C46.3235 46.8565 46.4893 46.7881 46.6454 46.701C46.7912 46.6124 46.9662 46.5855 47.132 46.626C47.2977 46.6665 47.4405 46.7712 47.5291 46.9171C47.6176 47.0629 47.6446 47.2379 47.604 47.4037C47.5635 47.5694 47.4588 47.7122 47.313 47.8008C47.0672 47.942 46.8055 48.0536 46.5334 48.1333C46.4722 48.1523 46.4085 48.1621 46.3444 48.1622ZM38.7326 47.8085C38.6651 47.8083 38.5981 47.7977 38.5338 47.777C38.1042 47.638 37.6804 47.4779 37.2745 47.303C37.1193 47.2344 36.9974 47.1073 36.9355 46.9494C36.8736 46.7914 36.8765 46.6153 36.9438 46.4596C37.0111 46.3038 37.1372 46.1809 37.2947 46.1177C37.4522 46.0545 37.6283 46.0561 37.7846 46.1221C38.1531 46.2816 38.539 46.4263 38.9307 46.5537C39.0762 46.601 39.2002 46.6987 39.2801 46.8292C39.3601 46.9597 39.391 47.1144 39.3671 47.2656C39.3432 47.4168 39.2662 47.5545 39.1499 47.654C39.0336 47.7535 38.8856 47.8083 38.7326 47.8085ZM34.7746 45.715C34.6295 45.7149 34.4888 45.6657 34.3752 45.5754C34.0207 45.2929 33.6823 44.9908 33.3616 44.6705C33.2444 44.5492 33.1796 44.3868 33.1811 44.2181C33.1825 44.0495 33.2502 43.8882 33.3694 43.7689C33.4887 43.6497 33.65 43.582 33.8186 43.5806C33.9872 43.5791 34.1497 43.6439 34.271 43.7611C34.5581 44.0472 34.8613 44.3167 35.1791 44.5683C35.2837 44.6513 35.3598 44.7649 35.3969 44.8932C35.434 45.0216 35.4303 45.1582 35.3861 45.2843C35.342 45.4104 35.2597 45.5196 35.1507 45.5968C35.0417 45.6739 34.9114 45.7153 34.7778 45.715H34.7746Z" fill="black"/>
<path d="M14.4617 48.5314C14.2911 48.5326 14.127 48.466 14.0056 48.3462C13.8841 48.2264 13.8152 48.0633 13.814 47.8927C13.8128 47.7222 13.8794 47.5581 13.9992 47.4366C14.119 47.3152 14.2821 47.2463 14.4527 47.2451C14.8585 47.2393 15.2727 47.2161 15.6837 47.1756C15.7677 47.1672 15.8526 47.1754 15.9335 47.1997C16.0143 47.2241 16.0896 47.2641 16.155 47.3176C16.2204 47.371 16.2746 47.4368 16.3146 47.5112C16.3546 47.5857 16.3795 47.6672 16.3879 47.7512C16.3964 47.8353 16.3882 47.9202 16.3638 48.001C16.3395 48.0819 16.2994 48.1572 16.246 48.2226C16.1925 48.288 16.1267 48.3422 16.0523 48.3822C15.9779 48.4221 15.8963 48.4471 15.8123 48.4555C15.3666 48.4992 14.9164 48.525 14.4745 48.5314H14.4617ZM11.2793 48.1622C11.2139 48.1624 11.1488 48.1527 11.0864 48.1333C10.8143 48.0536 10.5527 47.942 10.3069 47.8008C10.161 47.7122 10.0563 47.5694 10.0158 47.4037C9.97526 47.2379 10.0022 47.0629 10.0908 46.9171C10.1793 46.7712 10.3221 46.6665 10.4879 46.626C10.6536 46.5855 10.8286 46.6124 10.9745 46.701C11.1305 46.7881 11.2963 46.8565 11.4684 46.9048C11.6155 46.9505 11.7414 47.0475 11.823 47.1781C11.9047 47.3088 11.9367 47.4644 11.9134 47.6166C11.89 47.7689 11.8128 47.9077 11.6957 48.0078C11.5786 48.108 11.4295 48.1627 11.2755 48.1622H11.2793ZM18.8911 47.8085C18.738 47.8083 18.59 47.7535 18.4737 47.654C18.3574 47.5545 18.2804 47.4168 18.2566 47.2656C18.2327 47.1144 18.2635 46.9597 18.3435 46.8292C18.4235 46.6987 18.5474 46.601 18.693 46.5537C19.0847 46.4251 19.4706 46.2816 19.8391 46.1221C19.9954 46.0561 20.1715 46.0545 20.329 46.1177C20.4864 46.1809 20.6126 46.3038 20.6798 46.4596C20.7471 46.6153 20.7501 46.7914 20.6882 46.9494C20.6262 47.1073 20.5044 47.2344 20.3491 47.303C19.9433 47.4779 19.5195 47.638 19.0898 47.777C19.0256 47.7977 18.9586 47.8083 18.8911 47.8085ZM22.8491 45.715C22.7155 45.7153 22.5852 45.6739 22.4762 45.5968C22.3672 45.5196 22.2849 45.4104 22.2408 45.2843C22.1966 45.1582 22.1929 45.0216 22.2299 44.8932C22.267 44.7649 22.3432 44.6513 22.4478 44.5683C22.7645 44.3166 23.0666 44.0471 23.3527 43.7611C23.474 43.6439 23.6364 43.5791 23.8051 43.5806C23.9737 43.582 24.135 43.6497 24.2543 43.7689C24.3735 43.8882 24.4412 44.0495 24.4426 44.2181C24.4441 44.3868 24.3793 44.5492 24.2621 44.6705C23.9414 44.9919 23.603 45.2951 23.2485 45.5787C23.1345 45.6677 22.9938 45.7158 22.8491 45.715Z" fill="black"/>
<path d="M26.371 65.4921C26.3139 65.4921 26.257 65.4846 26.2019 65.4696C25.7678 65.3519 25.3368 65.2123 24.9207 65.0586C24.7608 64.9989 24.6311 64.8781 24.5603 64.7228C24.4894 64.5675 24.4832 64.3905 24.5429 64.2305C24.6026 64.0706 24.7233 63.941 24.8786 63.8701C25.0339 63.7993 25.211 63.793 25.3709 63.8527C25.7497 63.9942 26.1427 64.1202 26.5395 64.2283C26.6899 64.2691 26.8202 64.3632 26.9065 64.4929C26.9927 64.6226 27.0289 64.7792 27.0084 64.9336C26.9879 65.088 26.9121 65.2298 26.795 65.3325C26.6779 65.4352 26.5268 65.4919 26.371 65.4921ZM22.2941 63.6269C22.1649 63.6269 22.0387 63.5879 21.932 63.515C21.5599 63.2607 21.201 62.9876 20.8566 62.6969C20.7263 62.5868 20.645 62.4295 20.6307 62.2595C20.6164 62.0894 20.6703 61.9207 20.7804 61.7904C20.8905 61.6601 21.0479 61.5788 21.2179 61.5645C21.3879 61.5503 21.5566 61.6041 21.6869 61.7142C21.9976 61.9771 22.3218 62.2238 22.6581 62.4532C22.7714 62.5308 22.8569 62.6427 22.9021 62.7725C22.9472 62.9023 22.9496 63.0431 22.9089 63.1743C22.8682 63.3055 22.7866 63.4203 22.6759 63.5017C22.5653 63.5832 22.4314 63.6271 22.2941 63.6269Z" fill="black"/>
<path d="M31.2558 65.4921C31.1 65.4919 30.9496 65.4352 30.8325 65.3325C30.7154 65.2298 30.6395 65.088 30.619 64.9336C30.5985 64.7792 30.6347 64.6226 30.721 64.4929C30.8072 64.3632 30.9376 64.2691 31.0879 64.2283C31.4841 64.1202 31.8777 63.9942 32.2565 63.8527C32.4164 63.793 32.5935 63.7993 32.7488 63.8701C32.9041 63.941 33.0249 64.0706 33.0846 64.2305C33.1443 64.3905 33.138 64.5675 33.0672 64.7228C32.9963 64.8781 32.8666 64.9989 32.7067 65.0586C32.2906 65.2136 31.8597 65.3519 31.4256 65.4696C31.3702 65.4846 31.3131 65.4922 31.2558 65.4921ZM35.3327 63.6269C35.1953 63.6271 35.0615 63.5832 34.9509 63.5017C34.8402 63.4203 34.7586 63.3055 34.7179 63.1743C34.6772 63.0431 34.6796 62.9023 34.7247 62.7725C34.7699 62.6427 34.8554 62.5308 34.9687 62.4532C35.305 62.2238 35.6292 61.9771 35.9399 61.7142C36.0702 61.6041 36.2389 61.5503 36.4089 61.5645C36.5789 61.5788 36.7363 61.6601 36.8464 61.7904C36.9565 61.9207 37.0103 62.0894 36.9961 62.2595C36.9818 62.4295 36.9005 62.5868 36.7702 62.6969C36.4253 62.9872 36.066 63.2598 35.6936 63.5137C35.5863 63.5869 35.4594 63.626 35.3295 63.6257L35.3327 63.6269Z" fill="black"/>
<path d="M38.2579 27.1933C38.1889 27.1931 38.1203 27.182 38.0547 27.1605C37.6688 27.0319 37.29 26.9129 36.9067 26.8017C36.8256 26.778 36.75 26.7386 36.6841 26.6857C36.6182 26.6329 36.5634 26.5675 36.5228 26.4935C36.4822 26.4194 36.4566 26.3381 36.4474 26.2541C36.4382 26.1702 36.4457 26.0852 36.4693 26.0041C36.493 25.9231 36.5324 25.8474 36.5852 25.7816C36.6381 25.7157 36.7035 25.6609 36.7775 25.6203C36.8516 25.5797 36.9329 25.5541 37.0169 25.5449C37.1008 25.5357 37.1858 25.5431 37.2668 25.5668C37.6656 25.6826 38.0639 25.8069 38.4618 25.9398C38.6069 25.988 38.7301 26.0863 38.8092 26.2171C38.8884 26.3478 38.9184 26.5025 38.8939 26.6534C38.8693 26.8043 38.7919 26.9415 38.6753 27.0405C38.5588 27.1394 38.4108 27.1936 38.2579 27.1933ZM19.3652 27.1933C19.2126 27.1928 19.0651 27.1381 18.9492 27.0389C18.8332 26.9397 18.7563 26.8025 18.7322 26.6518C18.7081 26.5012 18.7383 26.3468 18.8175 26.2164C18.8967 26.086 19.0197 25.9879 19.1645 25.9398C19.5821 25.8009 20 25.6723 20.418 25.5539C20.4993 25.5301 20.5846 25.5225 20.6688 25.5317C20.7531 25.5409 20.8347 25.5667 20.9089 25.6075C20.9832 25.6483 21.0486 25.7034 21.1015 25.7696C21.1544 25.8358 21.1937 25.9118 21.2171 25.9932C21.2406 26.0747 21.2477 26.1599 21.2381 26.2441C21.2284 26.3283 21.2023 26.4098 21.1611 26.4838C21.1198 26.5579 21.0644 26.6231 20.9979 26.6756C20.9315 26.7282 20.8553 26.7671 20.7737 26.7901C20.3719 26.9054 19.9704 27.0295 19.5691 27.1625C19.5032 27.1838 19.4344 27.1942 19.3652 27.1933ZM33.9604 26.091C33.9218 26.091 33.8832 26.0876 33.8452 26.0807C33.431 26.0061 33.0169 25.9405 32.6027 25.8839C32.519 25.8725 32.4383 25.8448 32.3653 25.8022C32.2924 25.7597 32.2285 25.7032 32.1773 25.636C32.1262 25.5688 32.0887 25.4922 32.0672 25.4105C32.0457 25.3288 32.0404 25.2437 32.0518 25.16C32.0632 25.0763 32.0909 24.9956 32.1334 24.9227C32.1759 24.8497 32.2324 24.7858 32.2996 24.7346C32.3669 24.6835 32.4435 24.6461 32.5252 24.6245C32.6069 24.603 32.692 24.5978 32.7757 24.6091C33.2087 24.6683 33.6416 24.7369 34.0742 24.8149C34.2322 24.8435 34.3738 24.9302 34.4711 25.0579C34.5684 25.1856 34.6145 25.345 34.6002 25.505C34.586 25.6649 34.5124 25.8137 34.394 25.9221C34.2756 26.0305 34.1209 26.0908 33.9604 26.091ZM23.7245 26.0845C23.5641 26.084 23.4096 26.0236 23.2914 25.915C23.1733 25.8065 23.1 25.6577 23.0859 25.4979C23.0718 25.3381 23.1179 25.1787 23.2152 25.0512C23.3126 24.9236 23.4541 24.8371 23.612 24.8085C24.045 24.7313 24.4779 24.6636 24.9105 24.6053C24.9946 24.5931 25.0803 24.5977 25.1626 24.6189C25.2449 24.64 25.3223 24.6772 25.3901 24.7285C25.4579 24.7797 25.515 24.8438 25.5578 24.9172C25.6007 24.9905 25.6287 25.0717 25.64 25.1559C25.6514 25.2402 25.6459 25.3258 25.624 25.4079C25.602 25.49 25.564 25.567 25.5121 25.6343C25.4603 25.7016 25.3956 25.758 25.3218 25.8002C25.248 25.8424 25.1666 25.8695 25.0822 25.88C24.6672 25.9357 24.2525 26.0001 23.8383 26.073C23.8008 26.0794 23.7627 26.0824 23.7245 26.082V26.0845ZM29.4859 25.6343H29.4711C29.0499 25.6253 28.6318 25.6253 28.2138 25.6343H28.1996C28.029 25.6363 27.8647 25.5704 27.7427 25.4512C27.6207 25.3319 27.551 25.1691 27.549 24.9986C27.5471 24.828 27.613 24.6636 27.7322 24.5416C27.8514 24.4196 28.0142 24.35 28.1848 24.348C28.623 24.3381 29.0614 24.3381 29.5001 24.348C29.6706 24.3499 29.8335 24.4194 29.9528 24.5414C30.0721 24.6633 30.138 24.8277 30.1362 24.9982C30.1343 25.1688 30.0647 25.3317 29.9428 25.4509C29.8208 25.5702 29.6565 25.6362 29.4859 25.6343Z" fill="black"/>
<path d="M55.9852 38.7561C55.9421 38.7091 55.8933 38.6699 55.8482 38.6274C56.8882 32.7348 56.8432 22.1838 54.0365 16.3632C49.4623 6.8805 38.8579 0 28.8247 0H28.806C18.7682 0 8.16386 6.88179 3.59036 16.3632C0.783623 22.1838 0.738602 32.7348 1.77859 38.6274C1.73357 38.6724 1.68469 38.7117 1.6416 38.7561C0.268453 40.2463 -0.26987 42.3835 0.127601 44.7734C0.743747 48.489 4.48886 52.4765 8.2732 52.4913C9.55437 56.8442 11.4736 60.3482 13.9877 62.787C15.8735 64.6784 17.9888 66.3261 20.2842 67.6917C19.9626 70.4927 18.6422 76.9629 13.23 79.1399C13.022 79.2234 12.8496 79.3767 12.7424 79.5735C12.6351 79.7703 12.5997 79.9983 12.6423 80.2183C12.6848 80.4383 12.8026 80.6367 12.9755 80.7793C13.1483 80.922 13.3654 81 13.5895 81C13.7129 80.9998 13.8351 80.9763 13.9497 80.9305C19.8668 78.5508 21.5962 72.0736 22.103 68.6462C23.6688 69.3837 25.3069 69.9566 26.991 70.3557C28.1916 70.6413 29.4423 70.6413 30.6429 70.3557C32.327 69.9566 33.9651 69.3837 35.5309 68.6462C36.0358 72.071 37.7652 78.5508 43.6848 80.9305C43.8024 80.9777 43.9281 81.0013 44.0548 80.9999C44.1815 80.9986 44.3067 80.9723 44.4232 80.9225C44.5397 80.8728 44.6453 80.8005 44.7339 80.71C44.8225 80.6194 44.8924 80.5123 44.9396 80.3947C45.035 80.1574 45.0323 79.8919 44.9319 79.6565C44.8316 79.4212 44.6419 79.2354 44.4045 79.1399C38.9924 76.9654 37.6713 70.4953 37.3504 67.6917C39.6459 66.3261 41.7614 64.6784 43.6475 62.787C46.161 60.3482 48.0802 56.8442 49.362 52.4913C53.1457 52.4753 56.8908 48.4877 57.5069 44.7734C57.8967 42.3835 57.3584 40.2463 55.9852 38.7561ZM2.02428 44.4576C1.84769 43.6953 1.84865 42.9027 2.02707 42.1408C2.2055 41.3789 2.55662 40.6682 3.05333 40.0636C3.49299 39.6219 4.01627 39.2722 4.5926 39.035C5.16893 38.7978 5.78675 38.6778 6.40997 38.6821C6.42283 39.8175 6.46249 40.9259 6.52895 42.0072C5.83292 41.7295 5.08207 41.6166 4.33514 41.6773C4.08154 41.7033 3.84853 41.8286 3.68703 42.0258C3.52553 42.223 3.44865 42.4762 3.47321 42.7299C3.49777 42.9837 3.62176 43.2174 3.81809 43.38C4.01443 43.5426 4.26714 43.6209 4.52101 43.5978C4.92939 43.5557 5.34192 43.6107 5.72503 43.7583C6.10815 43.9058 6.45102 44.1417 6.72576 44.4467C6.93189 46.485 7.26917 48.5078 7.73552 50.5027C5.16031 50.0994 2.46034 47.0714 2.02685 44.4576H2.02428ZM42.2963 61.4004C39.3217 64.2836 35.7965 67.136 30.1888 68.4751C29.2831 68.6909 28.3393 68.6909 27.4335 68.4751C21.8271 67.1373 18.3007 64.2849 15.3274 61.4004C10.5069 56.7259 8.03137 47.6368 8.35938 35.8117C8.53313 32.8904 8.91854 29.9856 9.51256 27.12C15.0785 26.3052 18.4975 21.5818 21.0534 18.0174C21.9803 16.6503 23.2356 15.5378 24.7042 14.7819C26.1727 14.026 27.8076 13.6508 29.4588 13.6909C30.8459 13.7143 32.2048 14.0859 33.4109 14.7714C34.6169 15.4569 35.6314 16.4344 36.3612 17.6142C36.5457 17.9221 36.8016 18.181 37.1074 18.3691C37.4131 18.5572 37.7596 18.6689 38.1177 18.6947C38.3486 18.7082 38.5621 18.7146 38.764 18.7204C39.1806 18.7064 39.5968 18.7574 39.9976 18.8715C41.7985 19.5018 42.8159 21.0647 43.8971 22.7196C44.368 23.4723 44.8835 24.1963 45.4407 24.8876C46.1121 25.6899 46.9391 26.3478 47.8718 26.8216C48.7135 29.7469 49.1813 32.7669 49.2642 35.8097C49.5922 47.6368 47.1167 56.7259 42.2963 61.4004ZM46.8736 23.6856C46.3652 23.051 45.8947 22.3869 45.4645 21.6969C44.3158 19.9392 43.0153 17.9467 40.6163 17.1061C40.0342 16.9222 39.4258 16.8353 38.8155 16.8488C38.6309 16.8437 38.436 16.8379 38.2251 16.8257C38.168 16.8168 38.1137 16.7947 38.0666 16.7612C38.0195 16.7277 37.9808 16.6837 37.9537 16.6327C37.0549 15.1967 35.8144 14.0057 34.3431 13.166C32.8718 12.3263 31.2154 11.8641 29.5218 11.8206C27.5644 11.782 25.6278 12.2281 23.8845 13.119C22.1411 14.01 20.6451 15.3182 19.5298 16.9273C16.7571 20.7946 13.3104 25.6138 7.40108 25.3726C7.27658 25.3649 7.15179 25.3821 7.03405 25.4233C6.91631 25.4645 6.80797 25.5287 6.71542 25.6124C6.62286 25.696 6.54794 25.7973 6.49506 25.9102C6.44218 26.0232 6.4124 26.1456 6.40747 26.2702C6.40254 26.3949 6.42257 26.5192 6.46636 26.636C6.51016 26.7528 6.57685 26.8597 6.66252 26.9504C6.74819 27.041 6.85111 27.1137 6.96523 27.164C7.07936 27.2144 7.20239 27.2414 7.32711 27.2435C7.39143 27.2435 7.45574 27.2397 7.51684 27.2435C6.95886 30.0527 6.59568 32.8971 6.42991 35.7564C6.4209 36.096 6.42219 36.4253 6.41704 36.7603C5.42224 36.7772 4.44109 36.9949 3.53248 37.4003C2.71567 31.7405 2.8636 22.3034 5.32496 17.1987C9.59424 8.34819 19.4661 1.9269 28.8034 1.9269H28.8208C38.1569 1.9269 48.03 8.34883 52.2961 17.1987C54.7581 22.3047 54.9034 31.7418 54.086 37.399C53.1782 36.994 52.1979 36.7765 51.204 36.7597C51.1989 36.4246 51.2001 36.096 51.1911 35.7564C51.1114 33.0038 50.7395 30.2674 50.0817 27.5934C50.2856 27.6365 50.4901 27.6789 50.7023 27.7105C50.7484 27.7171 50.7948 27.7205 50.8413 27.7208C51.0829 27.7289 51.3183 27.6431 51.4982 27.4815C51.678 27.3198 51.7883 27.0949 51.806 26.8537C51.8236 26.6126 51.7472 26.3739 51.5928 26.1879C51.4383 26.0018 51.2179 25.8827 50.9776 25.8556C49.3833 25.6807 47.9157 24.9047 46.8736 23.6856ZM55.5968 44.4596C55.1626 47.0753 52.4607 50.1155 49.8804 50.5188C50.3488 48.5194 50.6874 46.4918 50.894 44.4486C51.1685 44.1433 51.5114 43.9072 51.8945 43.7597C52.2777 43.6121 52.6903 43.5573 53.0987 43.5997C53.3527 43.6213 53.6051 43.5427 53.8018 43.3807C53.9986 43.2187 54.1241 42.9861 54.1516 42.7327C54.1638 42.6066 54.1511 42.4793 54.1142 42.3581C54.0773 42.2369 54.0168 42.1242 53.9363 42.0264C53.8558 41.9286 53.7568 41.8476 53.645 41.788C53.5332 41.7284 53.4107 41.6915 53.2846 41.6792C52.5363 41.622 51.785 41.7398 51.0902 42.0233C51.1579 40.9389 51.1978 39.8261 51.2098 38.6847C51.833 38.6801 52.4509 38.7998 53.0272 39.0369C53.6036 39.274 54.1269 39.6237 54.5664 40.0655C55.0631 40.6698 55.4143 41.3801 55.5929 42.1416C55.7715 42.9032 55.7729 43.6955 55.5968 44.4576V44.4596Z" fill="black"/>
</svg>
