<svg width="52" height="59" viewBox="0 0 52 59" fill="none" xmlns="http://www.w3.org/2000/svg">
<path d="M43.51 35.12C48.56 32.43 52 27.11 52 21C52 12.18 44.82 5 36 5C35.38 5 34.77 5.04 34.17 5.11C31.81 2 28.1 0 24 0C20.93 0 17.95 1.11 15.63 3.12C13.31 5.12 11.8 7.91 11.35 10.96L9.21 25.88C8.84 28.52 7.76 31.02 6.09 33.11L1.96 38.29C0.7 39.87 0 41.85 0 43.88C0 48.82 4.01 52.84 8.95 52.84C9.21 52.84 9.47 52.83 9.75 52.81C11.55 52.64 13.41 52.63 14.98 52.74C16.61 55.36 19.05 58.01 24 58.01C28.95 58.01 31.38 55.36 33.01 52.75C34.77 52.64 36.52 52.66 38.25 52.82C38.52 52.84 38.79 52.85 39.04 52.85C43.98 52.85 47.99 48.83 47.99 43.89C47.99 41.87 47.29 39.88 46.03 38.31L43.5 35.13L43.51 35.12ZM50 21C50 28.72 43.72 35 36 35C28.28 35 22 28.72 22 21C22 13.28 28.28 7 36 7C43.72 7 50 13.28 50 21ZM39.05 50.84C38.85 50.84 38.63 50.84 38.43 50.81C37.03 50.68 35.61 50.64 34.19 50.68L34.31 50.45C35.7 47.91 37.32 46.87 39.52 47.09C40.07 47.15 40.56 46.74 40.61 46.19C40.66 45.64 40.26 45.15 39.71 45.1C36.68 44.8 34.33 46.24 32.55 49.49L32.37 49.82C30.79 52.71 29.01 55.99 23.99 55.99C18.97 55.99 17.19 52.71 15.61 49.82L15.43 49.49C13.65 46.24 11.3 44.8 8.27 45.1C7.72 45.15 7.32 45.64 7.37 46.19C7.42 46.74 7.91 47.15 8.46 47.09C10.66 46.87 12.28 47.91 13.67 50.45L13.79 50.67C12.43 50.63 10.97 50.67 9.56 50.8C9.35 50.82 9.14 50.83 8.93 50.83C5.1 50.83 1.98 47.71 1.98 43.87C1.98 42.3 2.52 40.76 3.5 39.53L7.63 34.35C9.52 31.98 10.74 29.15 11.17 26.16L13.31 11.24C13.68 8.66 14.96 6.31 16.92 4.62C18.88 2.92 21.39 1.98 23.99 1.98C27.1 1.98 29.94 3.35 31.93 5.52C25.07 7.32 19.99 13.56 19.99 20.98C19.99 29.8 27.17 36.98 35.99 36.98C37.97 36.98 39.86 36.6 41.61 35.94L44.47 39.52C45.45 40.74 45.99 42.28 45.99 43.85C45.99 47.69 42.87 50.81 39.04 50.81L39.05 50.84Z" fill="black"/>
<path d="M36 33C42.62 33 48 27.62 48 21C48 14.38 42.62 9 36 9C29.38 9 24 14.38 24 21C24 27.62 29.38 33 36 33ZM36 11C41.51 11 46 15.49 46 21C46 26.51 41.51 31 36 31C30.49 31 26 26.51 26 21C26 15.49 30.49 11 36 11Z" fill="black"/>
<path d="M33 17.5C33.83 17.5 34.5 16.83 34.5 16C34.5 15.17 33.83 14.5 33 14.5C32.17 14.5 31.5 15.17 31.5 16C31.5 16.83 32.17 17.5 33 17.5Z" fill="black"/>
<path d="M39 17.5C39.83 17.5 40.5 16.83 40.5 16C40.5 15.17 39.83 14.5 39 14.5C38.17 14.5 37.5 15.17 37.5 16C37.5 16.83 38.17 17.5 39 17.5Z" fill="black"/>
<path d="M30 22.5C30.83 22.5 31.5 21.83 31.5 21C31.5 20.17 30.83 19.5 30 19.5C29.17 19.5 28.5 20.17 28.5 21C28.5 21.83 29.17 22.5 30 22.5Z" fill="black"/>
<path d="M36 22.5C36.83 22.5 37.5 21.83 37.5 21C37.5 20.17 36.83 19.5 36 19.5C35.17 19.5 34.5 20.17 34.5 21C34.5 21.83 35.17 22.5 36 22.5Z" fill="black"/>
<path d="M42 22.5C42.83 22.5 43.5 21.83 43.5 21C43.5 20.17 42.83 19.5 42 19.5C41.17 19.5 40.5 20.17 40.5 21C40.5 21.83 41.17 22.5 42 22.5Z" fill="black"/>
<path d="M33 24.5C32.17 24.5 31.5 25.17 31.5 26C31.5 26.83 32.17 27.5 33 27.5C33.83 27.5 34.5 26.83 34.5 26C34.5 25.17 33.83 24.5 33 24.5Z" fill="black"/>
<path d="M39 24.5C38.17 24.5 37.5 25.17 37.5 26C37.5 26.83 38.17 27.5 39 27.5C39.83 27.5 40.5 26.83 40.5 26C40.5 25.17 39.83 24.5 39 24.5Z" fill="black"/>
</svg>
