<svg width="72" height="46" viewBox="0 0 72 46" fill="none" xmlns="http://www.w3.org/2000/svg">
<path d="M34.9624 31.2189C34.976 31.2195 34.9891 31.22 35.0028 31.22C35.4651 31.22 35.8503 30.8557 35.8718 30.3892C35.8939 29.909 35.5222 29.5017 35.0416 29.4803C34.0986 29.4373 33.3034 29.0646 32.6781 28.3722C31.5595 27.1341 30.9787 24.8498 31.1239 22.2625C31.1507 21.7823 30.7837 21.3714 30.3036 21.3446C29.824 21.3179 29.4125 21.6848 29.3858 22.165C29.2123 25.2518 29.9414 27.9397 31.386 29.539C32.3216 30.5742 33.5582 31.155 34.9624 31.2189Z" fill="black"/>
<path d="M69.4906 28.7632C68.1508 27.4664 66.2229 26.2687 63.7609 25.2036C61.345 24.1584 58.4679 23.2621 55.2091 22.5398C52.1705 21.8662 48.8614 21.3594 45.361 21.0281C45.1535 18.7799 44.6508 16.3184 43.8902 13.8464C42.1993 8.34843 39.3562 3.14082 36.4706 0.254745C36.3008 0.0849146 36.078 0 35.8552 0C35.6325 0 35.4097 0.0849146 35.2399 0.254745C32.3538 3.14029 29.5112 8.34843 27.8203 13.8464C27.0602 16.3184 26.557 18.7799 26.3494 21.0281C22.849 21.3588 19.54 21.8662 16.5014 22.5398C13.2426 23.2621 10.3654 24.1584 7.94954 25.2036C5.48752 26.2687 3.55963 27.4664 2.21985 28.7638C0.746941 30.189 0 31.7133 0 33.2936C0 35.1691 1.03471 36.9481 3.07582 38.5804C4.91723 40.0533 7.52916 41.3679 10.8382 42.4875C17.5334 44.7525 26.4181 46 35.8552 46C45.2929 46 54.177 44.7525 60.8728 42.4875C64.1818 41.3679 66.7938 40.0533 68.6352 38.5804C70.6763 36.9476 71.711 35.1691 71.711 33.2936C71.7105 31.7127 70.9635 30.189 69.4906 28.7632ZM27.2583 29.1878C27.3448 29.3964 27.4366 29.5988 27.5335 29.7958C26.9087 30.0773 26.3877 30.3913 25.9778 30.7352C25.0684 31.4973 24.8776 32.2683 24.8776 32.7805C24.8776 33.7339 25.4919 35.0868 28.4194 36.1173C30.4191 36.8213 33.0593 37.2092 35.8547 37.2092C38.6501 37.2092 41.2909 36.8213 43.2906 36.1173C46.2175 35.0868 46.8324 33.7339 46.8324 32.7805C46.8324 32.2678 46.6416 31.4973 45.7321 30.7352C45.3222 30.3918 44.8012 30.0773 44.1764 29.7958C44.2734 29.5988 44.3656 29.3964 44.4516 29.1878C44.7006 28.5871 44.904 27.9413 45.0617 27.2531C48.6748 27.8297 51.7192 28.725 53.8976 29.8551C55.954 30.9218 57.0862 32.1289 57.0862 33.2543C57.0862 36.4229 48.3666 39.9537 35.8547 39.9537C23.3428 39.9537 14.6238 36.4229 14.6238 33.2543C14.6238 32.1289 15.7565 30.9218 17.8128 29.8551C19.9907 28.7255 23.0356 27.8297 26.6487 27.2531C26.806 27.9413 27.0094 28.5871 27.2583 29.1878ZM35.8547 34.5537C39.0925 34.5537 41.608 33.4346 43.2518 31.2918C44.6864 31.8888 45.0916 32.4927 45.0916 32.7805C45.0916 33.2071 44.3562 33.8969 42.7129 34.4756C40.8946 35.1156 38.4588 35.4684 35.8552 35.4684C33.2517 35.4684 30.8164 35.1156 28.9981 34.4756C27.3548 33.8969 26.6194 33.2077 26.6194 32.7805C26.6194 32.4927 27.0246 31.8888 28.4587 31.2918C30.1014 33.4351 32.6174 34.5537 35.8547 34.5537ZM29.4834 14.3586C30.9731 9.51523 33.3712 4.93662 35.8547 2.1407C38.3382 4.93662 40.7363 9.51523 42.226 14.3586C43.9814 20.0673 44.2063 25.2293 42.8429 28.5216C41.6635 31.3694 39.3121 32.813 35.8547 32.813C32.3973 32.813 30.0464 31.3689 28.867 28.5216C27.5031 25.2293 27.728 20.0668 29.4834 14.3586ZM60.314 40.8385C53.7939 43.0442 45.1073 44.2592 35.8547 44.2592C26.6021 44.2592 17.9156 43.0442 11.3954 40.8385C5.25951 38.7623 1.74024 36.0125 1.74024 33.2936C1.74024 31.0324 4.19073 28.7271 8.6404 26.8018C13.0806 24.8807 19.2952 23.4665 26.2462 22.7872C26.2236 23.7558 26.2614 24.6731 26.3594 25.5365C22.5702 26.1429 19.3486 27.0974 17.0114 28.3098C13.5996 30.0794 12.883 31.9753 12.883 33.2543C12.883 34.5516 13.576 35.7708 14.9425 36.8774C16.135 37.8434 17.8181 38.702 19.9446 39.4306C24.2077 40.8909 29.8577 41.695 35.8547 41.695C41.8517 41.695 47.5023 40.8909 51.7653 39.4306C53.8919 38.702 55.575 37.8434 56.7675 36.8774C58.134 35.7708 58.8269 34.5516 58.8269 33.2543C58.8269 31.9753 58.1109 30.0794 54.6986 28.3098C52.3613 27.0974 49.1398 26.1429 45.3506 25.5365C45.4486 24.6731 45.4863 23.7558 45.4638 22.7872C52.4148 23.4665 58.6293 24.8802 63.0695 26.8018C67.5192 28.7271 69.9697 31.0329 69.9697 33.2936C69.9692 36.0125 66.4499 38.7623 60.314 40.8385Z" fill="black"/>
</svg>
