<svg width="72" height="63" viewBox="0 0 72 63" fill="none" xmlns="http://www.w3.org/2000/svg">
<path d="M14.82 11.7C14.82 12.0867 15.0133 12.4 15.4 12.64C15.7867 12.8667 16.2533 13.0533 16.8 13.2C17.3467 13.3333 17.8933 13.4933 18.44 13.68C18.9867 13.8533 19.4533 14.16 19.84 14.6C20.2267 15.0267 20.42 15.58 20.42 16.26C20.42 17.1667 20.0667 17.8933 19.36 18.44C18.6667 18.9867 17.7733 19.26 16.68 19.26C15.7067 19.26 14.8733 19.0467 14.18 18.62C13.4867 18.1933 12.9933 17.6267 12.7 16.92L14.2 16.06C14.36 16.54 14.66 16.92 15.1 17.2C15.54 17.48 16.0667 17.62 16.68 17.62C17.2533 17.62 17.7267 17.5133 18.1 17.3C18.4733 17.0733 18.66 16.7267 18.66 16.26C18.66 15.8733 18.4667 15.5667 18.08 15.34C17.6933 15.1 17.2267 14.9133 16.68 14.78C16.1333 14.6333 15.5867 14.4667 15.04 14.28C14.4933 14.0933 14.0267 13.7867 13.64 13.36C13.2533 12.9333 13.06 12.3867 13.06 11.72C13.06 10.8533 13.3933 10.14 14.06 9.58C14.74 9.02 15.5867 8.74 16.6 8.74C17.4133 8.74 18.1333 8.92667 18.76 9.3C19.4 9.66 19.88 10.1667 20.2 10.82L18.74 11.64C18.38 10.7867 17.6667 10.36 16.6 10.36C16.1067 10.36 15.6867 10.48 15.34 10.72C14.9933 10.9467 14.82 11.2733 14.82 11.7ZM23.4625 7.18C23.1292 7.18 22.8492 7.06667 22.6225 6.84C22.3958 6.61333 22.2825 6.34 22.2825 6.02C22.2825 5.7 22.3958 5.42667 22.6225 5.2C22.8492 4.96 23.1292 4.84 23.4625 4.84C23.7825 4.84 24.0558 4.96 24.2825 5.2C24.5092 5.42667 24.6225 5.7 24.6225 6.02C24.6225 6.34 24.5092 6.61333 24.2825 6.84C24.0558 7.06667 23.7825 7.18 23.4625 7.18ZM22.5825 19V9H24.3225V19H22.5825ZM32.157 8.74C33.3304 8.74 34.2704 9.11333 34.977 9.86C35.6837 10.5933 36.037 11.5933 36.037 12.86V19H34.297V12.96C34.297 12.1467 34.077 11.52 33.637 11.08C33.197 10.6267 32.5904 10.4 31.817 10.4C30.9504 10.4 30.2504 10.6733 29.717 11.22C29.1837 11.7533 28.917 12.58 28.917 13.7V19H27.177V9H28.917V10.44C29.6237 9.30667 30.7037 8.74 32.157 8.74ZM43.3661 19.26C41.8594 19.26 40.6061 18.76 39.6061 17.76C38.6061 16.7467 38.1061 15.4933 38.1061 14C38.1061 12.5067 38.6061 11.26 39.6061 10.26C40.6061 9.24667 41.8594 8.74 43.3661 8.74C44.3528 8.74 45.2394 8.98 46.0261 9.46C46.8128 9.92667 47.3994 10.56 47.7861 11.36L46.3261 12.2C46.0728 11.6667 45.6794 11.24 45.1461 10.92C44.6261 10.6 44.0328 10.44 43.3661 10.44C42.3661 10.44 41.5261 10.78 40.8461 11.46C40.1794 12.14 39.8461 12.9867 39.8461 14C39.8461 15 40.1794 15.84 40.8461 16.52C41.5261 17.2 42.3661 17.54 43.3661 17.54C44.0328 17.54 44.6328 17.3867 45.1661 17.08C45.6994 16.76 46.1061 16.3333 46.3861 15.8L47.8661 16.66C47.4394 17.4467 46.8261 18.08 46.0261 18.56C45.2261 19.0267 44.3394 19.26 43.3661 19.26ZM50.8673 14.8C51.0407 15.6933 51.4473 16.3867 52.0873 16.88C52.7407 17.3733 53.5407 17.62 54.4873 17.62C55.8073 17.62 56.7673 17.1333 57.3673 16.16L58.8473 17C57.874 18.5067 56.4073 19.26 54.4473 19.26C52.8607 19.26 51.5673 18.7667 50.5673 17.78C49.5807 16.78 49.0873 15.52 49.0873 14C49.0873 12.4933 49.574 11.24 50.5473 10.24C51.5207 9.24 52.7807 8.74 54.3273 8.74C55.794 8.74 56.9873 9.26 57.9073 10.3C58.8407 11.3267 59.3073 12.5667 59.3073 14.02C59.3073 14.2733 59.2873 14.5333 59.2473 14.8H50.8673ZM54.3273 10.38C53.394 10.38 52.6207 10.6467 52.0073 11.18C51.394 11.7 51.014 12.4 50.8673 13.28H57.5473C57.4007 12.3333 57.0273 11.6133 56.4273 11.12C55.8273 10.6267 55.1273 10.38 54.3273 10.38Z" fill="#F2F6FF"/>
<path d="M1.023 55V52.03L9.075 43.813C11.033 41.855 12.012 40.161 12.012 38.731C12.012 37.609 11.671 36.74 10.989 36.124C10.329 35.486 9.482 35.167 8.448 35.167C6.512 35.167 5.082 36.124 4.158 38.038L0.957 36.157C1.683 34.617 2.706 33.451 4.026 32.659C5.346 31.867 6.809 31.471 8.415 31.471C10.439 31.471 12.177 32.109 13.629 33.385C15.081 34.661 15.807 36.399 15.807 38.599C15.807 40.953 14.498 43.461 11.88 46.123L6.666 51.337H16.236V55H1.023ZM34.5355 52.162C32.9515 54.34 30.7295 55.429 27.8695 55.429C25.0095 55.429 22.7765 54.34 21.1705 52.162C19.5865 49.984 18.7945 47.08 18.7945 43.45C18.7945 39.82 19.5865 36.916 21.1705 34.738C22.7765 32.56 25.0095 31.471 27.8695 31.471C30.7295 31.471 32.9515 32.56 34.5355 34.738C36.1415 36.916 36.9445 39.82 36.9445 43.45C36.9445 47.08 36.1415 49.984 34.5355 52.162ZM27.8695 51.733C29.5855 51.733 30.8945 51.018 31.7965 49.588C32.6985 48.158 33.1495 46.112 33.1495 43.45C33.1495 40.788 32.6985 38.742 31.7965 37.312C30.8945 35.882 29.5855 35.167 27.8695 35.167C26.1755 35.167 24.8665 35.882 23.9425 37.312C23.0405 38.742 22.5895 40.788 22.5895 43.45C22.5895 46.112 23.0405 48.158 23.9425 49.588C24.8665 51.018 26.1755 51.733 27.8695 51.733ZM44.4471 31.9H47.7471V55H43.9521V35.959L39.2991 37.279L38.3751 34.045L44.4471 31.9ZM67.6155 52.162C66.0315 54.34 63.8095 55.429 60.9495 55.429C58.0895 55.429 55.8565 54.34 54.2505 52.162C52.6665 49.984 51.8745 47.08 51.8745 43.45C51.8745 39.82 52.6665 36.916 54.2505 34.738C55.8565 32.56 58.0895 31.471 60.9495 31.471C63.8095 31.471 66.0315 32.56 67.6155 34.738C69.2215 36.916 70.0245 39.82 70.0245 43.45C70.0245 47.08 69.2215 49.984 67.6155 52.162ZM60.9495 51.733C62.6655 51.733 63.9745 51.018 64.8765 49.588C65.7785 48.158 66.2295 46.112 66.2295 43.45C66.2295 40.788 65.7785 38.742 64.8765 37.312C63.9745 35.882 62.6655 35.167 60.9495 35.167C59.2555 35.167 57.9465 35.882 57.0225 37.312C56.1205 38.742 55.6695 40.788 55.6695 43.45C55.6695 46.112 56.1205 48.158 57.0225 49.588C57.9465 51.018 59.2555 51.733 60.9495 51.733Z" fill="#F2F6FF"/>
</svg>
