<svg width="18" height="24" viewBox="0 0 18 24" fill="none" xmlns="http://www.w3.org/2000/svg">
<path fill-rule="evenodd" clip-rule="evenodd" d="M9 23.375C9 23.375 17.75 17.25 17.75 9.375C17.75 7.05436 16.8281 4.82876 15.1872 3.18782C13.5462 1.54687 11.3206 0.625 9 0.625C6.67936 0.625 4.45376 1.54687 2.81282 3.18782C1.17187 4.82876 0.25 7.05436 0.25 9.375C0.25 17.25 9 23.375 9 23.375ZM12.5 9.375C12.5 11.308 10.933 12.875 9 12.875C7.067 12.875 5.5 11.308 5.5 9.375C5.5 7.442 7.067 5.875 9 5.875C10.933 5.875 12.5 7.442 12.5 9.375Z" fill="#213B72"/>
</svg>
